SplineFontDB: 3.0
FontName: KizunaDrops
FullName: KizunaDrops
FamilyName: KizunaDrops
Weight: Book
Version: 1.0
ItalicAngle: 0
UnderlinePosition: -150
UnderlineWidth: 50
Ascent: 800
Descent: 200
InvalidEm: 0
sfntRevision: 0x00010000
LayerCount: 2
Layer: 0 1 "Back" 1
Layer: 1 1 "Fore" 0
HasVMetrics: 1
XUID: [1021 227 304575 227]
StyleMap: 0x0000
FSType: 0
OS2Version: 1
OS2_WeightWidthSlopeOnly: 0
OS2_UseTypoMetrics: 0
CreationTime: 1522960792
ModificationTime: 1522961128
PfmFamily: 17
TTFWeight: 400
TTFWidth: 5
LineGap: 90
VLineGap: 90
Panose: 2 0 5 3 0 0 0 0 0 0
OS2TypoAscent: 800
OS2TypoAOffset: 0
OS2TypoDescent: -200
OS2TypoDOffset: 0
OS2TypoLinegap: 90
OS2WinAscent: 1080
OS2WinAOffset: 0
OS2WinDescent: 120
OS2WinDOffset: 0
HheadAscent: 880
HheadAOffset: 0
HheadDescent: -98
HheadDOffset: 0
OS2SubXSize: 650
OS2SubYSize: 699
OS2SubXOff: 0
OS2SubYOff: 140
OS2SupXSize: 650
OS2SupYSize: 699
OS2SupXOff: 0
OS2SupYOff: 479
OS2StrikeYSize: 49
OS2StrikeYPos: 258
OS2Vendor: 'PfEd'
OS2CodePages: 00120004.00000000
OS2UnicodeRanges: 800002c7.68c7fc7c.00000012.00000000
DEI: 91125
ShortTable: maxp 16
  1
  0
  9356
  75
  6
  0
  0
  2
  0
  1
  1
  0
  64
  0
  0
  0
EndShort
LangName: 1033 "" "" "Regular" "FontForge 2.0 : KizunaDrops : 5-4-2018" "" "Version 1.0"
GaspTable: 1 65535 2 0
Encoding: UnicodeBmp
UnicodeInterp: none
NameList: AGL For New Fonts
DisplaySize: -48
AntiAlias: 1
FitToEm: 0
WinInfo: 12282 23 14
BeginChars: 66964 9356

StartChar: Japan1.568
Encoding: 65827 -1 570
Width: 500
GlyphClass: 2
Flags: W
LayerCount: 2
Fore
SplineSet
496 672 m 1,0,-1
 476 672 l 1,1,-1
 476 692 l 1,2,-1
 -41 692 l 1,3,-1
 -41 672 l 1,4,-1
 -61 672 l 1,5,-1
 -61 820 l 1,6,-1
 -41 820 l 1,7,-1
 -41 800 l 1,8,-1
 476 800 l 1,9,-1
 476 820 l 1,10,-1
 496 820 l 1,11,-1
 496 672 l 1,0,-1
-65 271 m 1,12,-1
 -44 271 l 1,13,14
 -45 287 -45 287 -45 348 c 0,15,16
 -45 414 -45 414 -18.5 478.5 c 128,-1,17
 8 543 8 543 53.5 591.5 c 128,-1,18
 99 640 99 640 166.5 662.5 c 128,-1,19
 234 685 234 685 308 668 c 1,20,21
 143 616 143 616 90 458 c 1,22,23
 173 529 173 529 281.5 522.5 c 128,-1,24
 390 516 390 516 462 439 c 0,25,26
 539 355 539 355 533 229 c 0,27,28
 532 185 532 185 518.5 142 c 128,-1,29
 505 99 505 99 473.5 58 c 128,-1,30
 442 17 442 17 396.5 -12 c 128,-1,31
 351 -41 351 -41 281 -55 c 128,-1,32
 211 -69 211 -69 126 -61 c 1,33,34
 219 -25 219 -25 281.5 23.5 c 128,-1,35
 344 72 344 72 369.5 118.5 c 128,-1,36
 395 165 395 165 401.5 212 c 128,-1,37
 408 259 408 259 398.5 293 c 128,-1,38
 389 327 389 327 372 350 c 0,39,40
 339 393 339 393 286.5 403 c 128,-1,41
 234 413 234 413 188 396.5 c 128,-1,42
 142 380 142 380 108 345 c 128,-1,43
 74 310 74 310 73 271 c 1,44,-1
 93 271 l 1,45,-1
 93 253 l 1,46,-1
 -65 253 l 1,47,-1
 -65 271 l 1,12,-1
EndSplineSet
EndChar

StartChar: Japan1.660
Encoding: 12540 12540 662
Width: 1000
GlyphClass: 2
Flags: W
LayerCount: 2
Fore
SplineSet
854 279 m 1,0,-1
 818 315 l 1,1,-1
 201 315 l 1,2,-1
 165 279 l 1,3,-1
 165 486 l 1,4,-1
 201 450 l 1,5,-1
 818 450 l 1,6,-1
 854 486 l 1,7,-1
 854 279 l 1,0,-1
EndSplineSet
EndChar

StartChar: Japan1.661
Encoding: 8213 8213 663
Width: 1000
GlyphClass: 2
Flags: W
LayerCount: 2
Fore
SplineSet
854 279 m 1,0,-1
 818 315 l 1,1,-1
 201 315 l 1,2,-1
 165 279 l 1,3,-1
 165 486 l 1,4,-1
 201 450 l 1,5,-1
 818 450 l 1,6,-1
 854 486 l 1,7,-1
 854 279 l 1,0,-1
EndSplineSet
EndChar

StartChar: Japan1.662
Encoding: 8208 8208 664
Width: 1000
GlyphClass: 2
Flags: W
LayerCount: 2
Fore
SplineSet
612 436 m 1,0,-1
 612 324 l 1,1,-1
 380 324 l 1,2,-1
 380 436 l 1,3,-1
 612 436 l 1,0,-1
EndSplineSet
EndChar

StartChar: Japan1.668
Encoding: 8230 8230 670
Width: 1000
GlyphClass: 2
Flags: W
LayerCount: 2
Fore
SplineSet
277 364 m 128,-1,1
 277 325 277 325 249 297 c 128,-1,2
 221 269 221 269 182 269 c 0,3,4
 142 269 142 269 114 297 c 128,-1,5
 86 325 86 325 86 364 c 128,-1,6
 86 403 86 403 114 431 c 128,-1,7
 142 459 142 459 182 459 c 0,8,9
 221 459 221 459 249 431 c 128,-1,0
 277 403 277 403 277 364 c 128,-1,1
593 364 m 128,-1,11
 593 325 593 325 565 297 c 128,-1,12
 537 269 537 269 498 269 c 0,13,14
 458 269 458 269 430 297 c 128,-1,15
 402 325 402 325 402 364 c 128,-1,16
 402 403 402 403 430 431 c 128,-1,17
 458 459 458 459 498 459 c 0,18,19
 537 459 537 459 565 431 c 128,-1,10
 593 403 593 403 593 364 c 128,-1,11
913 364 m 128,-1,21
 913 325 913 325 885 297 c 128,-1,22
 857 269 857 269 818 269 c 0,23,24
 778 269 778 269 750 297 c 128,-1,25
 722 325 722 325 722 364 c 128,-1,26
 722 403 722 403 750 431 c 128,-1,27
 778 459 778 459 818 459 c 0,28,29
 857 459 857 459 885 431 c 128,-1,20
 913 403 913 403 913 364 c 128,-1,21
EndSplineSet
EndChar

StartChar: Japan1.669
Encoding: 8229 8229 671
Width: 1000
GlyphClass: 2
Flags: W
LayerCount: 2
Fore
SplineSet
429 364 m 128,-1,1
 429 325 429 325 401 297 c 128,-1,2
 373 269 373 269 334 269 c 0,3,4
 294 269 294 269 266 297 c 128,-1,5
 238 325 238 325 238 364 c 128,-1,6
 238 403 238 403 266 431 c 128,-1,7
 294 459 294 459 334 459 c 0,8,9
 373 459 373 459 401 431 c 128,-1,0
 429 403 429 403 429 364 c 128,-1,1
745 364 m 128,-1,11
 745 325 745 325 717 297 c 128,-1,12
 689 269 689 269 650 269 c 0,13,14
 610 269 610 269 582 297 c 128,-1,15
 554 325 554 325 554 364 c 128,-1,16
 554 403 554 403 582 431 c 128,-1,17
 610 459 610 459 650 459 c 0,18,19
 689 459 689 459 717 431 c 128,-1,10
 745 403 745 403 745 364 c 128,-1,11
EndSplineSet
EndChar

StartChar: Japan1.686
Encoding: 12300 12300 688
Width: 1000
GlyphClass: 2
Flags: W
LayerCount: 2
Fore
SplineSet
936 836 m 1,0,-1
 936 778 l 1,1,-1
 593 778 l 1,2,-1
 593 -51 l 1,3,-1
 535 -51 l 1,4,-1
 535 836 l 1,5,-1
 936 836 l 1,0,-1
EndSplineSet
EndChar

StartChar: Japan1.687
Encoding: 12301 12301 689
Width: 1000
GlyphClass: 2
Flags: W
LayerCount: 2
Fore
SplineSet
24 -96 m 1,0,-1
 24 -38 l 1,1,-1
 367 -38 l 1,2,-1
 367 779 l 1,3,-1
 425 779 l 1,4,-1
 425 -96 l 1,5,-1
 24 -96 l 1,0,-1
EndSplineSet
EndChar

StartChar: Japan1.688
Encoding: 12302 12302 690
Width: 1000
GlyphClass: 2
Flags: W
LayerCount: 2
Fore
SplineSet
968 701 m 1,0,-1
 794 701 l 1,1,-1
 794 -54 l 1,2,-1
 678 -54 l 1,3,-1
 678 814 l 1,4,-1
 968 814 l 1,5,-1
 968 701 l 1,0,-1
938 784 m 1,6,-1
 708 784 l 1,7,-1
 708 -24 l 1,8,-1
 764 -24 l 1,9,-1
 764 731 l 1,10,-1
 938 731 l 1,11,-1
 938 784 l 1,6,-1
EndSplineSet
EndChar

StartChar: Japan1.689
Encoding: 12303 12303 691
Width: 1000
GlyphClass: 2
Flags: W
LayerCount: 2
Fore
SplineSet
24 19 m 1,0,-1
 198 19 l 1,1,-1
 198 770 l 1,2,-1
 314 770 l 1,3,-1
 314 -94 l 1,4,-1
 24 -94 l 1,5,-1
 24 19 l 1,0,-1
54 -64 m 1,6,-1
 284 -64 l 1,7,-1
 284 740 l 1,8,-1
 228 740 l 1,9,-1
 228 -11 l 1,10,-1
 54 -11 l 1,11,-1
 54 -64 l 1,6,-1
EndSplineSet
EndChar

StartChar: Japan1.740
Encoding: 12307 12307 742
Width: 1000
GlyphClass: 2
Flags: W
LayerCount: 2
Fore
SplineSet
811 714 m 1,0,-1
 811 455 l 1,1,-1
 189 455 l 1,2,-1
 189 714 l 1,3,-1
 811 714 l 1,0,-1
811 305 m 1,4,-1
 811 46 l 1,5,-1
 189 46 l 1,6,-1
 189 305 l 1,7,-1
 811 305 l 1,4,-1
EndSplineSet
EndChar

StartChar: Japan1.840
Encoding: 65369 65369 842
Width: 1000
GlyphClass: 2
Flags: W
LayerCount: 2
Fore
SplineSet
564 643 m 1,0,1
 664 634 664 634 723 564.5 c 128,-1,2
 782 495 782 495 784 399 c 0,3,4
 786 309 786 309 731.5 235 c 128,-1,5
 677 161 677 161 568 130 c 1,6,7
 629 198 629 198 656 259 c 128,-1,8
 683 320 683 320 679 395 c 0,9,10
 676 456 676 456 646 494.5 c 128,-1,11
 616 533 616 533 564 544 c 1,12,-1
 564 63 l 1,13,-1
 580 63 l 1,14,-1
 580 33 l 1,15,-1
 442 33 l 1,16,-1
 442 63 l 1,17,-1
 458 63 l 1,18,-1
 458 540 l 1,19,20
 415 522 415 522 383 482.5 c 128,-1,21
 351 443 351 443 343 384 c 1,22,-1
 343 182 l 1,23,-1
 358 182 l 1,24,-1
 358 153 l 1,25,-1
 225 153 l 1,26,-1
 225 182 l 1,27,-1
 240 182 l 1,28,-1
 240 656 l 1,29,-1
 225 656 l 1,30,-1
 225 686 l 1,31,-1
 358 686 l 1,32,-1
 358 656 l 1,33,-1
 343 656 l 1,34,-1
 343 575 l 1,35,36
 356 593 356 593 390 611 c 128,-1,37
 424 629 424 629 458 639 c 1,38,-1
 458 717 l 1,39,-1
 442 717 l 1,40,-1
 442 747 l 1,41,-1
 580 747 l 1,42,-1
 580 717 l 1,43,-1
 564 717 l 1,44,-1
 564 643 l 1,0,1
EndSplineSet
EndChar

StartChar: Japan1.841
Encoding: 65370 65370 843
Width: 1000
GlyphClass: 2
Flags: W
LayerCount: 2
Fore
SplineSet
786 672 m 1,0,-1
 766 672 l 1,1,-1
 766 692 l 1,2,-1
 249 692 l 1,3,-1
 249 672 l 1,4,-1
 229 672 l 1,5,-1
 229 820 l 1,6,-1
 249 820 l 1,7,-1
 249 800 l 1,8,-1
 766 800 l 1,9,-1
 766 820 l 1,10,-1
 786 820 l 1,11,-1
 786 672 l 1,0,-1
233 277 m 1,12,-1
 253 277 l 1,13,14
 252 292 252 292 252 351 c 0,15,16
 252 415 252 415 278 478 c 128,-1,17
 304 541 304 541 349 588 c 128,-1,18
 394 635 394 635 460.5 657 c 128,-1,19
 527 679 527 679 600 662 c 1,20,21
 437 611 437 611 386 461 c 1,22,23
 465 528 465 528 568.5 521 c 128,-1,24
 672 514 672 514 742 439 c 0,25,26
 786 391 786 391 805.5 328 c 128,-1,27
 825 265 825 265 815 199 c 0,28,29
 796 78 796 78 702 1 c 0,30,31
 679 -18 679 -18 652 -30.5 c 128,-1,32
 625 -43 625 -43 606.5 -50 c 128,-1,33
 588 -57 588 -57 550.5 -60.5 c 128,-1,34
 513 -64 513 -64 501.5 -64.5 c 128,-1,35
 490 -65 490 -65 443 -64.5 c 128,-1,36
 396 -64 396 -64 389 -64 c 1,37,-1
 389 -83 l 1,38,-1
 370 -83 l 1,39,-1
 370 69 l 1,40,-1
 389 69 l 1,41,-1
 389 50 l 1,42,43
 398 50 398 50 431 49.5 c 128,-1,44
 464 49 464 49 472 49.5 c 128,-1,45
 480 50 480 50 505 51.5 c 128,-1,46
 530 53 530 53 540 56.5 c 128,-1,47
 550 60 550 60 568 65.5 c 128,-1,48
 586 71 586 71 599.5 80 c 128,-1,49
 613 89 613 89 627 101 c 0,50,51
 680 147 680 147 691 218 c 0,52,53
 703 296 703 296 657 352 c 0,54,55
 624 392 624 392 573 401.5 c 128,-1,56
 522 411 522 411 478 395.5 c 128,-1,57
 434 380 434 380 402 347.5 c 128,-1,58
 370 315 370 315 369 277 c 1,59,-1
 388 277 l 1,60,-1
 388 258 l 1,61,-1
 233 258 l 1,62,-1
 233 277 l 1,12,-1
EndSplineSet
EndChar

StartChar: Japan1.842
Encoding: 12353 12353 844
Width: 1000
GlyphClass: 2
Flags: W
LayerCount: 2
Fore
SplineSet
520 479 m 1,0,-1
 520 443 l 1,1,2
 592 439 592 439 647.5 406.5 c 128,-1,3
 703 374 703 374 731 324 c 128,-1,4
 759 274 759 274 765 211 c 128,-1,5
 771 148 771 148 743 84 c 0,6,7
 714 12 714 12 639 -27 c 128,-1,8
 564 -66 564 -66 466 -52 c 1,9,10
 532 -25 532 -25 578.5 13 c 128,-1,11
 625 51 625 51 649 121 c 0,12,13
 679 206 679 206 643 272 c 128,-1,14
 607 338 607 338 514 346 c 1,15,16
 505 288 505 288 475 246.5 c 128,-1,17
 445 205 445 205 418 189 c 1,18,-1
 418 327 l 1,19,20
 350 292 350 292 331.5 219.5 c 128,-1,21
 313 147 313 147 358 93 c 1,22,-1
 533 271 l 1,23,-1
 532 323 l 1,24,-1
 651 207 l 1,25,-1
 602 204 l 1,26,-1
 355 -45 l 1,27,28
 269 6 269 6 240 107.5 c 128,-1,29
 211 209 211 209 253 289 c 0,30,31
 306 396 306 396 415 431 c 1,32,-1
 415 479 l 1,33,-1
 282 479 l 1,34,-1
 249 446 l 1,35,-1
 249 609 l 1,36,-1
 282 575 l 1,37,-1
 415 575 l 1,38,-1
 415 638 l 1,39,-1
 382 671 l 1,40,-1
 554 671 l 1,41,-1
 520 638 l 1,42,-1
 520 575 l 1,43,-1
 692 575 l 1,44,-1
 726 608 l 1,45,-1
 726 446 l 1,46,-1
 692 479 l 1,47,-1
 520 479 l 1,0,-1
EndSplineSet
EndChar

StartChar: Japan1.843
Encoding: 12354 12354 845
Width: 1000
GlyphClass: 2
Flags: W
LayerCount: 2
Fore
SplineSet
521 601 m 1,0,-1
 521 547 l 1,1,2
 575 546 575 546 625 529 c 0,3,4
 712 500 712 500 765 430.5 c 128,-1,5
 818 361 818 361 823 265 c 0,6,7
 831 105 831 105 725.5 12 c 128,-1,8
 620 -81 620 -81 461 -64 c 1,9,10
 592 -19 592 -19 653.5 69.5 c 128,-1,11
 715 158 715 158 709 258 c 0,12,13
 704 337 704 337 655 385 c 128,-1,14
 606 433 606 433 518 440 c 1,15,16
 509 377 509 377 476 318 c 128,-1,17
 443 259 443 259 404 229 c 1,18,-1
 405 418 l 1,19,20
 335 384 335 384 304 316 c 0,21,22
 281 264 281 264 286.5 209 c 128,-1,23
 292 154 292 154 323 110 c 1,24,-1
 546 337 l 1,25,-1
 547 398 l 1,26,-1
 680 269 l 1,27,-1
 622 263 l 1,28,-1
 320 -45 l 1,29,30
 300 -35 300 -35 260 11 c 128,-1,31
 220 57 220 57 200 106 c 0,32,33
 146 236 146 236 205 361 c 0,34,35
 233 423 233 423 285.5 469 c 128,-1,36
 338 515 338 515 406 535 c 1,37,-1
 406 601 l 1,38,-1
 232 601 l 1,39,-1
 193 561 l 1,40,-1
 193 747 l 1,41,-1
 232 707 l 1,42,-1
 406 707 l 1,43,-1
 406 783 l 1,44,-1
 367 823 l 1,45,-1
 560 823 l 1,46,-1
 521 783 l 1,47,-1
 521 707 l 1,48,-1
 742 707 l 1,49,-1
 782 741 l 1,50,-1
 782 561 l 1,51,-1
 742 601 l 1,52,-1
 521 601 l 1,0,-1
EndSplineSet
EndChar

StartChar: Japan1.844
Encoding: 12355 12355 846
Width: 1000
GlyphClass: 2
Flags: W
LayerCount: 2
Fore
SplineSet
374 559 m 1,0,-1
 340 526 l 1,1,-1
 340 338 l 2,2,3
 340 224 340 224 347 167 c 0,4,5
 361 28 361 28 446 -37 c 1,6,7
 374 -39 374 -39 315.5 7.5 c 128,-1,8
 257 54 257 54 238 151 c 0,9,10
 228 200 228 200 228 338 c 2,11,-1
 228 526 l 1,12,-1
 194 559 l 1,13,-1
 374 559 l 1,0,-1
799 93 m 1,14,-1
 619 93 l 1,15,-1
 653 127 l 1,16,-1
 653 250 l 2,17,18
 653 278 653 278 649 332 c 0,19,20
 641 412 641 412 623 453.5 c 128,-1,21
 605 495 605 495 564 531 c 1,22,23
 641 526 641 526 691.5 479.5 c 128,-1,24
 742 433 742 433 758 349 c 0,25,26
 766 310 766 310 766 250 c 2,27,-1
 766 127 l 1,28,-1
 799 93 l 1,14,-1
EndSplineSet
EndChar

StartChar: Japan1.845
Encoding: 12356 12356 847
Width: 1000
GlyphClass: 2
Flags: W
LayerCount: 2
Fore
SplineSet
313 675 m 1,0,-1
 313 435 l 2,1,2
 313 283 313 283 321 225 c 0,3,4
 336 113 336 113 368 55.5 c 128,-1,5
 400 -2 400 -2 445 -34 c 1,6,7
 358 -34 358 -34 290.5 25.5 c 128,-1,8
 223 85 223 85 199 204 c 0,9,10
 194 227 194 227 191.5 249.5 c 128,-1,11
 189 272 189 272 188 299 c 128,-1,12
 187 326 187 326 186.5 341.5 c 128,-1,13
 186 357 186 357 186.5 390 c 128,-1,14
 187 423 187 423 187 435 c 2,15,-1
 187 675 l 1,16,-1
 151 711 l 1,17,-1
 348 711 l 1,18,-1
 313 675 l 1,0,-1
873 137 m 1,19,-1
 672 137 l 1,20,-1
 708 173 l 1,21,-1
 708 330 l 2,22,23
 708 483 708 483 685.5 557 c 128,-1,24
 663 631 663 631 605 684 c 1,25,26
 705 669 705 669 769.5 580 c 128,-1,27
 834 491 834 491 834 330 c 2,28,-1
 834 173 l 1,29,-1
 873 137 l 1,19,-1
EndSplineSet
EndChar

StartChar: Japan1.846
Encoding: 12357 12357 848
Width: 1000
GlyphClass: 2
Flags: W
LayerCount: 2
Fore
SplineSet
492 670 m 1,0,-1
 636 564 l 1,1,2
 585 540 585 540 539 545 c 128,-1,3
 493 550 493 550 462 568 c 2,4,-1
 430 586 l 1,5,-1
 385 574 l 1,6,-1
 485 714 l 1,7,-1
 492 670 l 1,0,-1
320 490 m 1,8,-1
 452 490 l 2,9,10
 619 490 619 490 689.5 406.5 c 128,-1,11
 760 323 760 323 731 197 c 0,12,13
 704 81 704 81 601 2 c 128,-1,14
 498 -77 498 -77 355 -63 c 1,15,16
 450 -21 450 -21 523.5 62.5 c 128,-1,17
 597 146 597 146 613 226 c 0,18,19
 627 295 627 295 587.5 338.5 c 128,-1,20
 548 382 548 382 450 382 c 2,21,-1
 320 382 l 1,22,-1
 286 349 l 1,23,-1
 286 524 l 1,24,-1
 320 490 l 1,8,-1
EndSplineSet
EndChar

StartChar: Japan1.847
Encoding: 12358 12358 849
Width: 1000
GlyphClass: 2
Flags: W
LayerCount: 2
Fore
SplineSet
484 811 m 1,0,-1
 662 683 l 1,1,2
 628 665 628 665 589.5 661 c 128,-1,3
 551 657 551 657 520.5 664.5 c 128,-1,4
 490 672 490 672 464.5 682 c 128,-1,5
 439 692 439 692 425 702 c 2,6,-1
 411 711 l 1,7,-1
 350 698 l 1,8,-1
 480 870 l 1,9,-1
 484 811 l 1,0,-1
443 617 m 2,10,-1
 268 617 l 1,11,-1
 232 652 l 1,12,-1
 232 462 l 1,13,-1
 268 498 l 1,14,-1
 442 498 l 2,15,16
 616 498 616 498 648 393 c 0,17,18
 675 298 675 298 607 180 c 0,19,20
 516 21 516 21 327 -70 c 1,21,22
 444 -68 444 -68 539 -22.5 c 128,-1,23
 634 23 634 23 696 104 c 0,24,25
 759 186 759 186 776.5 278 c 128,-1,26
 794 370 794 370 760 464 c 1,27,28
 691 617 691 617 443 617 c 2,10,-1
EndSplineSet
EndChar

StartChar: Japan1.848
Encoding: 12359 12359 850
Width: 1000
GlyphClass: 2
Flags: W
LayerCount: 2
Fore
SplineSet
491 665 m 1,0,-1
 610 532 l 1,1,2
 578 523 578 523 548.5 525.5 c 128,-1,3
 519 528 519 528 494.5 539.5 c 128,-1,4
 470 551 470 551 451.5 563.5 c 128,-1,5
 433 576 433 576 423 586 c 2,6,-1
 413 596 l 1,7,-1
 365 595 l 1,8,-1
 491 706 l 1,9,-1
 491 665 l 1,0,-1
304 476 m 1,10,-1
 635 476 l 1,11,12
 631 429 631 429 629.5 415 c 128,-1,13
 628 401 628 401 620.5 359 c 128,-1,14
 613 317 613 317 602.5 291.5 c 128,-1,15
 592 266 592 266 572 226 c 128,-1,16
 552 186 552 186 523 145 c 0,17,18
 475 77 475 77 385.5 19.5 c 128,-1,19
 296 -38 296 -38 207 -57 c 1,20,21
 314 26 314 26 394 142.5 c 128,-1,22
 474 259 474 259 506 366 c 1,23,-1
 303 366 l 1,24,-1
 270 333 l 1,25,-1
 271 509 l 1,26,-1
 304 476 l 1,10,-1
775 -84 m 1,27,-1
 742 -51 l 1,28,-1
 551 -51 l 1,29,-1
 551 98 l 1,30,-1
 520 131 l 1,31,-1
 689 131 l 1,32,-1
 660 98 l 1,33,-1
 660 58 l 1,34,-1
 742 58 l 1,35,-1
 775 91 l 1,36,-1
 775 -84 l 1,27,-1
EndSplineSet
EndChar

StartChar: Japan1.849
Encoding: 12360 12360 851
Width: 1000
GlyphClass: 2
Flags: W
LayerCount: 2
Fore
SplineSet
277 598 m 1,0,-1
 692 598 l 1,1,2
 685 448 685 448 616 302 c 128,-1,3
 547 156 547 156 426 52.5 c 128,-1,4
 305 -51 305 -51 164 -69 c 1,5,6
 452 144 452 144 537 478 c 1,7,-1
 277 477 l 1,8,-1
 241 442 l 1,9,-1
 241 634 l 1,10,-1
 277 598 l 1,0,-1
839 -72 m 1,11,-1
 803 -38 l 1,12,-1
 582 -38 l 1,13,-1
 582 140 l 1,14,-1
 550 176 l 1,15,-1
 738 176 l 1,16,-1
 705 140 l 1,17,-1
 705 79 l 1,18,-1
 803 79 l 1,19,-1
 839 116 l 1,20,-1
 839 -72 l 1,11,-1
492 817 m 1,21,-1
 656 663 l 1,22,23
 617 649 617 649 580.5 649.5 c 128,-1,24
 544 650 544 650 512 662 c 128,-1,25
 480 674 480 674 456 687.5 c 128,-1,26
 432 701 432 701 418 712 c 2,27,-1
 404 724 l 1,28,-1
 350 717 l 1,29,-1
 490 861 l 1,30,-1
 492 817 l 1,21,-1
EndSplineSet
EndChar

StartChar: Japan1.850
Encoding: 12361 12361 852
Width: 1000
GlyphClass: 2
Flags: W
LayerCount: 2
Fore
SplineSet
492 449 m 1,0,-1
 492 412 l 1,1,2
 607 409 607 409 678 334.5 c 128,-1,3
 749 260 749 260 737 142 c 0,4,5
 729 57 729 57 671 6.5 c 128,-1,6
 613 -44 613 -44 519 -52 c 1,7,8
 584 -14 584 -14 614 48 c 128,-1,9
 644 110 644 110 639.5 165.5 c 128,-1,10
 635 221 635 221 607 256 c 0,11,12
 569 305 569 305 492 311 c 1,13,-1
 492 -40 l 1,14,-1
 311 -40 l 1,15,16
 250 4 250 4 223 60.5 c 128,-1,17
 196 117 196 117 202.5 170.5 c 128,-1,18
 209 224 209 224 234 272.5 c 128,-1,19
 259 321 259 321 300.5 354.5 c 128,-1,20
 342 388 342 388 387 399 c 1,21,-1
 387 449 l 1,22,-1
 277 449 l 1,23,-1
 244 416 l 1,24,-1
 244 573 l 1,25,-1
 277 540 l 1,26,-1
 387 540 l 1,27,-1
 387 618 l 1,28,-1
 357 652 l 1,29,-1
 525 652 l 1,30,-1
 492 618 l 1,31,-1
 492 540 l 1,32,-1
 609 540 l 1,33,-1
 642 573 l 1,34,-1
 642 416 l 1,35,-1
 609 449 l 1,36,-1
 492 449 l 1,0,-1
840 376 m 1,37,-1
 673 376 l 1,38,-1
 707 409 l 1,39,40
 707 480 707 480 699.5 511.5 c 128,-1,41
 692 543 692 543 665 576 c 1,42,43
 731 573 731 573 769 531 c 128,-1,44
 807 489 807 489 807 409 c 1,45,-1
 840 376 l 1,37,-1
387 49 m 1,46,-1
 387 294 l 1,47,48
 348 276 348 276 324.5 230.5 c 128,-1,49
 301 185 301 185 305.5 132.5 c 128,-1,50
 310 80 310 80 347 49 c 1,51,-1
 387 49 l 1,46,-1
EndSplineSet
EndChar

StartChar: Japan1.851
Encoding: 12362 12362 853
Width: 1000
GlyphClass: 2
Flags: W
LayerCount: 2
Fore
SplineSet
508 589 m 1,0,-1
 508 522 l 1,1,2
 574 519 574 519 636.5 491 c 128,-1,3
 699 463 699 463 739 411 c 0,4,5
 785 350 785 350 794 271 c 128,-1,6
 803 192 803 192 778 123 c 128,-1,7
 753 54 753 54 690 3 c 128,-1,8
 627 -48 627 -48 539 -54 c 1,9,10
 616 -3 616 -3 653.5 76 c 128,-1,11
 691 155 691 155 687.5 226 c 128,-1,12
 684 297 684 297 650 341 c 0,13,14
 600 406 600 406 508 410 c 1,15,-1
 508 -32 l 1,16,-1
 296 -33 l 1,17,18
 229 16 229 16 195.5 82 c 128,-1,19
 162 148 162 148 165.5 213.5 c 128,-1,20
 169 279 169 279 195.5 339.5 c 128,-1,21
 222 400 222 400 275 445 c 128,-1,22
 328 490 328 490 394 508 c 1,23,-1
 394 589 l 1,24,-1
 248 589 l 1,25,-1
 212 554 l 1,26,-1
 212 725 l 1,27,-1
 248 689 l 1,28,-1
 394 689 l 1,29,-1
 394 779 l 1,30,-1
 358 815 l 1,31,-1
 544 815 l 1,32,-1
 508 779 l 1,33,-1
 508 689 l 1,34,-1
 662 689 l 1,35,-1
 698 725 l 1,36,-1
 698 554 l 1,37,-1
 662 589 l 1,38,-1
 508 589 l 1,0,-1
928 479 m 1,39,-1
 748 479 l 1,40,-1
 783 516 l 1,41,42
 783 669 783 669 729 729 c 1,43,44
 806 724 806 724 849.5 664.5 c 128,-1,45
 893 605 893 605 893 516 c 1,46,-1
 928 479 l 1,39,-1
394 71 m 1,47,-1
 394 392 l 1,48,49
 328 361 328 361 299 297.5 c 128,-1,50
 270 234 270 234 281 171 c 128,-1,51
 292 108 292 108 335 71 c 1,52,-1
 394 71 l 1,47,-1
EndSplineSet
EndChar

StartChar: Japan1.852
Encoding: 12363 12363 854
Width: 1000
GlyphClass: 2
Flags: W
LayerCount: 2
Fore
SplineSet
689 -20 m 1,0,-1
 473 -20 l 1,1,-1
 437 -56 l 1,2,-1
 437 133 l 1,3,-1
 473 97 l 1,4,-1
 575 97 l 1,5,-1
 575 482 l 1,6,-1
 462 482 l 1,7,8
 443 272 443 272 365 132 c 128,-1,9
 287 -8 287 -8 134 -71 c 1,10,11
 314 148 314 148 339 482 c 1,12,-1
 212 482 l 1,13,-1
 176 446 l 1,14,-1
 176 633 l 1,15,-1
 212 597 l 1,16,-1
 350 597 l 1,17,18
 353 676 353 676 353.5 716.5 c 128,-1,19
 354 757 354 757 355 766 c 1,20,-1
 319 802 l 1,21,-1
 514 802 l 1,22,-1
 478 766 l 1,23,24
 481 734 481 734 474 597 c 1,25,-1
 689 596 l 1,26,-1
 689 -20 l 1,0,-1
838 769 m 1,27,-1
 815 726 l 1,28,29
 866 560 866 560 869 545 c 0,30,31
 890 476 890 476 879 408.5 c 128,-1,32
 868 341 868 341 829 293 c 1,33,-1
 704 690 l 1,34,-1
 658 710 l 1,35,-1
 838 769 l 1,27,-1
EndSplineSet
EndChar

StartChar: Japan1.853
Encoding: 12364 12364 855
Width: 1000
GlyphClass: 2
Flags: W
LayerCount: 2
Fore
SplineSet
673 -20 m 1,0,-1
 457 -20 l 1,1,-1
 421 -56 l 1,2,-1
 421 133 l 1,3,-1
 457 97 l 1,4,-1
 559 97 l 1,5,-1
 559 482 l 1,6,-1
 446 482 l 1,7,8
 427 272 427 272 349 132 c 128,-1,9
 271 -8 271 -8 118 -71 c 1,10,11
 298 148 298 148 323 482 c 1,12,-1
 196 482 l 1,13,-1
 160 446 l 1,14,-1
 160 633 l 1,15,-1
 196 597 l 1,16,-1
 334 597 l 1,17,18
 337 676 337 676 337.5 716.5 c 128,-1,19
 338 757 338 757 339 766 c 1,20,-1
 303 802 l 1,21,-1
 498 802 l 1,22,-1
 462 766 l 1,23,24
 465 734 465 734 458 597 c 1,25,-1
 673 596 l 1,26,-1
 673 -20 l 1,0,-1
822 769 m 1,27,-1
 799 726 l 1,28,29
 850 560 850 560 853 545 c 0,30,31
 874 476 874 476 863 408.5 c 128,-1,32
 852 341 852 341 813 293 c 1,33,-1
 688 690 l 1,34,-1
 642 710 l 1,35,-1
 822 769 l 1,27,-1
905 664 m 1,36,-1
 851 750 l 1,37,-1
 905 836 l 1,38,-1
 959 750 l 1,39,-1
 905 664 l 1,36,-1
945 495 m 1,40,-1
 891 581 l 1,41,-1
 945 667 l 1,42,-1
 999 581 l 1,43,-1
 945 495 l 1,40,-1
EndSplineSet
EndChar

StartChar: Japan1.854
Encoding: 12365 12365 856
Width: 1000
GlyphClass: 2
Flags: W
LayerCount: 2
Fore
SplineSet
809 376 m 1,0,-1
 773 412 l 1,1,-1
 685 412 l 1,2,3
 691 393 691 393 694 374 c 0,4,5
 696 360 696 360 698 335.5 c 128,-1,6
 700 311 700 311 691 251.5 c 128,-1,7
 682 192 682 192 655 149 c 1,8,-1
 559 412 l 1,9,-1
 243 412 l 1,10,-1
 207 376 l 1,11,-1
 207 554 l 1,12,-1
 243 518 l 1,13,-1
 520 518 l 1,14,-1
 490 602 l 1,15,-1
 242 602 l 1,16,-1
 206 566 l 1,17,-1
 206 745 l 1,18,-1
 242 709 l 1,19,-1
 451 709 l 1,20,-1
 427 770 l 1,21,-1
 382 786 l 1,22,-1
 559 849 l 1,23,-1
 541 811 l 1,24,-1
 579 709 l 1,25,-1
 773 709 l 1,26,-1
 809 745 l 1,27,-1
 809 566 l 1,28,-1
 773 602 l 1,29,-1
 618 602 l 1,30,-1
 648 518 l 1,31,-1
 773 518 l 1,32,-1
 809 554 l 1,33,-1
 809 376 l 1,0,-1
412 298 m 1,34,-1
 377 262 l 1,35,36
 371 140 371 140 400 67 c 128,-1,37
 429 -6 429 -6 500 -72 c 1,38,39
 452 -73 452 -73 406.5 -51 c 128,-1,40
 361 -29 361 -29 324 11.5 c 128,-1,41
 287 52 287 52 266 117.5 c 128,-1,42
 245 183 245 183 248 262 c 1,43,-1
 212 298 l 1,44,-1
 412 298 l 1,34,-1
EndSplineSet
EndChar

StartChar: Japan1.855
Encoding: 12366 12366 857
Width: 1000
GlyphClass: 2
Flags: W
LayerCount: 2
Fore
SplineSet
809 376 m 1,0,-1
 773 412 l 1,1,-1
 685 412 l 1,2,3
 691 393 691 393 694 374 c 0,4,5
 696 360 696 360 698 335.5 c 128,-1,6
 700 311 700 311 691 251.5 c 128,-1,7
 682 192 682 192 655 149 c 1,8,-1
 559 412 l 1,9,-1
 243 412 l 1,10,-1
 207 376 l 1,11,-1
 207 554 l 1,12,-1
 243 518 l 1,13,-1
 520 518 l 1,14,-1
 490 602 l 1,15,-1
 242 602 l 1,16,-1
 206 566 l 1,17,-1
 206 745 l 1,18,-1
 242 709 l 1,19,-1
 451 709 l 1,20,-1
 427 770 l 1,21,-1
 382 786 l 1,22,-1
 559 849 l 1,23,-1
 541 811 l 1,24,-1
 579 709 l 1,25,-1
 773 709 l 1,26,-1
 809 745 l 1,27,-1
 809 566 l 1,28,-1
 773 602 l 1,29,-1
 618 602 l 1,30,-1
 648 518 l 1,31,-1
 773 518 l 1,32,-1
 809 554 l 1,33,-1
 809 376 l 1,0,-1
412 298 m 1,34,-1
 377 262 l 1,35,36
 371 140 371 140 400 67 c 128,-1,37
 429 -6 429 -6 500 -72 c 1,38,39
 452 -73 452 -73 406.5 -51 c 128,-1,40
 361 -29 361 -29 324 11.5 c 128,-1,41
 287 52 287 52 266 117.5 c 128,-1,42
 245 183 245 183 248 262 c 1,43,-1
 212 298 l 1,44,-1
 412 298 l 1,34,-1
888 658 m 1,45,-1
 834 744 l 1,46,-1
 888 830 l 1,47,-1
 942 744 l 1,48,-1
 888 658 l 1,45,-1
940 489 m 1,49,-1
 886 575 l 1,50,-1
 940 661 l 1,51,-1
 994 575 l 1,52,-1
 940 489 l 1,49,-1
EndSplineSet
EndChar

StartChar: Japan1.856
Encoding: 12367 12367 858
Width: 1000
GlyphClass: 2
Flags: W
LayerCount: 2
Fore
SplineSet
755 48 m 1,0,-1
 604 -96 l 1,1,-1
 604 -35 l 1,2,-1
 217 394 l 1,3,-1
 600 778 l 1,4,-1
 602 839 l 1,5,-1
 746 691 l 1,6,-1
 686 691 l 1,7,-1
 385 392 l 1,8,-1
 697 51 l 1,9,-1
 755 48 l 1,0,-1
EndSplineSet
EndChar

StartChar: Japan1.857
Encoding: 12368 12368 859
Width: 1000
GlyphClass: 2
Flags: W
LayerCount: 2
Fore
SplineSet
755 48 m 1,0,-1
 604 -96 l 1,1,-1
 604 -35 l 1,2,-1
 217 394 l 1,3,-1
 600 778 l 1,4,-1
 602 839 l 1,5,-1
 746 691 l 1,6,-1
 686 691 l 1,7,-1
 385 392 l 1,8,-1
 697 51 l 1,9,-1
 755 48 l 1,0,-1
680 420 m 1,10,-1
 626 506 l 1,11,-1
 680 592 l 1,12,-1
 734 506 l 1,13,-1
 680 420 l 1,10,-1
732 251 m 1,14,-1
 678 337 l 1,15,-1
 732 423 l 1,16,-1
 786 337 l 1,17,-1
 732 251 l 1,14,-1
EndSplineSet
EndChar

StartChar: Japan1.858
Encoding: 12369 12369 860
Width: 1000
GlyphClass: 2
Flags: W
LayerCount: 2
Fore
SplineSet
857 462 m 1,0,-1
 821 498 l 1,1,-1
 737 498 l 1,2,3
 736 415 736 415 732 357 c 128,-1,4
 728 299 728 299 711.5 228 c 128,-1,5
 695 157 695 157 666.5 108 c 128,-1,6
 638 59 638 59 585.5 13.5 c 128,-1,7
 533 -32 533 -32 459 -58 c 1,8,9
 527 16 527 16 564 114 c 128,-1,10
 601 212 601 212 610 297 c 128,-1,11
 619 382 619 382 618 498 c 1,12,-1
 438 498 l 1,13,-1
 402 462 l 1,14,-1
 402 640 l 1,15,-1
 438 604 l 1,16,-1
 617 604 l 1,17,-1
 618 768 l 1,18,-1
 582 805 l 1,19,-1
 772 805 l 1,20,-1
 737 768 l 1,21,-1
 738 604 l 1,22,-1
 821 604 l 1,23,-1
 857 640 l 1,24,-1
 857 462 l 1,0,-1
361 33 m 1,25,-1
 174 33 l 1,26,-1
 210 69 l 1,27,-1
 210 752 l 1,28,-1
 174 788 l 1,29,-1
 361 788 l 1,30,-1
 325 752 l 1,31,-1
 325 69 l 1,32,-1
 361 33 l 1,25,-1
EndSplineSet
EndChar

StartChar: Japan1.859
Encoding: 12370 12370 861
Width: 1000
GlyphClass: 2
Flags: W
LayerCount: 2
Fore
SplineSet
857 462 m 1,0,-1
 821 498 l 1,1,-1
 737 498 l 1,2,3
 736 415 736 415 732 357 c 128,-1,4
 728 299 728 299 711.5 228 c 128,-1,5
 695 157 695 157 666.5 108 c 128,-1,6
 638 59 638 59 585.5 13.5 c 128,-1,7
 533 -32 533 -32 459 -58 c 1,8,9
 527 16 527 16 564 114 c 128,-1,10
 601 212 601 212 610 297 c 128,-1,11
 619 382 619 382 618 498 c 1,12,-1
 438 498 l 1,13,-1
 402 462 l 1,14,-1
 402 640 l 1,15,-1
 438 604 l 1,16,-1
 617 604 l 1,17,-1
 618 768 l 1,18,-1
 582 805 l 1,19,-1
 772 805 l 1,20,-1
 737 768 l 1,21,-1
 738 604 l 1,22,-1
 821 604 l 1,23,-1
 857 640 l 1,24,-1
 857 462 l 1,0,-1
361 33 m 1,25,-1
 174 33 l 1,26,-1
 210 69 l 1,27,-1
 210 752 l 1,28,-1
 174 788 l 1,29,-1
 361 788 l 1,30,-1
 325 752 l 1,31,-1
 325 69 l 1,32,-1
 361 33 l 1,25,-1
888 634 m 1,33,-1
 834 720 l 1,34,-1
 888 806 l 1,35,-1
 942 720 l 1,36,-1
 888 634 l 1,33,-1
940 465 m 1,37,-1
 886 551 l 1,38,-1
 940 637 l 1,39,-1
 994 551 l 1,40,-1
 940 465 l 1,37,-1
EndSplineSet
EndChar

StartChar: Japan1.860
Encoding: 12371 12371 862
Width: 1000
GlyphClass: 2
Flags: W
LayerCount: 2
Fore
SplineSet
768 595 m 1,0,-1
 732 632 l 1,1,-1
 285 632 l 1,2,-1
 249 595 l 1,3,-1
 249 796 l 1,4,-1
 285 759 l 1,5,-1
 732 759 l 1,6,-1
 768 796 l 1,7,-1
 768 595 l 1,0,-1
769 -69 m 1,8,-1
 732 -32 l 1,9,10
 717 -32 717 -32 651 -33.5 c 128,-1,11
 585 -35 585 -35 554 -34 c 128,-1,12
 523 -33 523 -33 471.5 -25 c 128,-1,13
 420 -17 420 -17 380 -2 c 0,14,15
 282 36 282 36 235 121 c 128,-1,16
 188 206 188 206 207 309 c 1,17,18
 220 273 220 273 240 243.5 c 128,-1,19
 260 214 260 214 281.5 193 c 128,-1,20
 303 172 303 172 332 155.5 c 128,-1,21
 361 139 361 139 386 128.5 c 128,-1,22
 411 118 411 118 445.5 111 c 128,-1,23
 480 104 480 104 505.5 101 c 128,-1,24
 531 98 531 98 567 96.5 c 128,-1,25
 603 95 603 95 625.5 95.5 c 128,-1,26
 648 96 648 96 682 96.5 c 128,-1,27
 716 97 716 97 732 97 c 1,28,-1
 769 134 l 1,29,-1
 769 -69 l 1,8,-1
EndSplineSet
EndChar

StartChar: Japan1.861
Encoding: 12372 12372 863
Width: 1000
GlyphClass: 2
Flags: W
LayerCount: 2
Fore
SplineSet
768 595 m 1,0,-1
 732 632 l 1,1,-1
 285 632 l 1,2,-1
 249 595 l 1,3,-1
 249 796 l 1,4,-1
 285 759 l 1,5,-1
 732 759 l 1,6,-1
 768 796 l 1,7,-1
 768 595 l 1,0,-1
769 -69 m 1,8,-1
 732 -32 l 1,9,10
 717 -32 717 -32 651 -33.5 c 128,-1,11
 585 -35 585 -35 554 -34 c 128,-1,12
 523 -33 523 -33 471.5 -25 c 128,-1,13
 420 -17 420 -17 380 -2 c 0,14,15
 282 36 282 36 235 121 c 128,-1,16
 188 206 188 206 207 309 c 1,17,18
 220 273 220 273 240 243.5 c 128,-1,19
 260 214 260 214 281.5 193 c 128,-1,20
 303 172 303 172 332 155.5 c 128,-1,21
 361 139 361 139 386 128.5 c 128,-1,22
 411 118 411 118 445.5 111 c 128,-1,23
 480 104 480 104 505.5 101 c 128,-1,24
 531 98 531 98 567 96.5 c 128,-1,25
 603 95 603 95 625.5 95.5 c 128,-1,26
 648 96 648 96 682 96.5 c 128,-1,27
 716 97 716 97 732 97 c 1,28,-1
 769 134 l 1,29,-1
 769 -69 l 1,8,-1
870 595 m 1,30,-1
 816 681 l 1,31,-1
 870 767 l 1,32,-1
 924 681 l 1,33,-1
 870 595 l 1,30,-1
818 426 m 1,34,-1
 764 512 l 1,35,-1
 818 598 l 1,36,-1
 872 512 l 1,37,-1
 818 426 l 1,34,-1
EndSplineSet
EndChar

StartChar: Japan1.862
Encoding: 12373 12373 864
Width: 1000
GlyphClass: 2
Flags: W
LayerCount: 2
Fore
SplineSet
826 515 m 1,0,-1
 790 550 l 1,1,-1
 646 550 l 1,2,-1
 692 426 l 2,3,4
 719 351 719 351 711 274.5 c 128,-1,5
 703 198 703 198 664 139 c 1,6,-1
 513 550 l 1,7,-1
 234 550 l 1,8,-1
 198 515 l 1,9,-1
 198 697 l 1,10,-1
 234 661 l 1,11,-1
 472 661 l 1,12,-1
 434 765 l 1,13,-1
 385 783 l 1,14,-1
 568 852 l 1,15,-1
 551 808 l 1,16,-1
 605 661 l 1,17,-1
 790 661 l 1,18,-1
 826 697 l 1,19,-1
 826 515 l 1,0,-1
400 392 m 1,20,-1
 369 357 l 1,21,22
 369 348 369 348 369 330 c 0,23,24
 369 275 369 275 369.5 246 c 128,-1,25
 370 217 370 217 376.5 168 c 128,-1,26
 383 119 383 119 396 86.5 c 128,-1,27
 409 54 409 54 435 15 c 128,-1,28
 461 -24 461 -24 499 -56 c 1,29,30
 422 -58 422 -58 367 -21.5 c 128,-1,31
 312 15 312 15 290.5 69 c 128,-1,32
 269 123 269 123 255 183 c 128,-1,33
 241 243 241 243 245.5 287.5 c 128,-1,34
 250 332 250 332 247 351 c 0,35,36
 247 356 247 356 247 357 c 2,37,-1
 220 392 l 1,38,-1
 400 392 l 1,20,-1
EndSplineSet
EndChar

StartChar: Japan1.863
Encoding: 12374 12374 865
Width: 1000
GlyphClass: 2
Flags: W
LayerCount: 2
Fore
SplineSet
826 515 m 1,0,-1
 790 550 l 1,1,-1
 646 550 l 1,2,-1
 692 426 l 2,3,4
 719 351 719 351 711 274.5 c 128,-1,5
 703 198 703 198 664 139 c 1,6,-1
 513 550 l 1,7,-1
 234 550 l 1,8,-1
 198 515 l 1,9,-1
 198 697 l 1,10,-1
 234 661 l 1,11,-1
 472 661 l 1,12,-1
 434 765 l 1,13,-1
 385 783 l 1,14,-1
 568 852 l 1,15,-1
 551 808 l 1,16,-1
 605 661 l 1,17,-1
 790 661 l 1,18,-1
 826 697 l 1,19,-1
 826 515 l 1,0,-1
400 392 m 1,20,-1
 369 357 l 1,21,22
 369 348 369 348 369 330 c 0,23,24
 369 275 369 275 369.5 246 c 128,-1,25
 370 217 370 217 376.5 168 c 128,-1,26
 383 119 383 119 396 86.5 c 128,-1,27
 409 54 409 54 435 15 c 128,-1,28
 461 -24 461 -24 499 -56 c 1,29,30
 422 -58 422 -58 367 -21.5 c 128,-1,31
 312 15 312 15 290.5 69 c 128,-1,32
 269 123 269 123 255 183 c 128,-1,33
 241 243 241 243 245.5 287.5 c 128,-1,34
 250 332 250 332 247 351 c 0,35,36
 247 356 247 356 247 357 c 2,37,-1
 220 392 l 1,38,-1
 400 392 l 1,20,-1
872 688 m 1,39,-1
 818 774 l 1,40,-1
 872 860 l 1,41,-1
 926 774 l 1,42,-1
 872 688 l 1,39,-1
924 519 m 1,43,-1
 870 605 l 1,44,-1
 924 691 l 1,45,-1
 978 605 l 1,46,-1
 924 519 l 1,43,-1
EndSplineSet
EndChar

StartChar: Japan1.864
Encoding: 12375 12375 866
Width: 1000
GlyphClass: 2
Flags: W
LayerCount: 2
Fore
SplineSet
490 755 m 1,0,-1
 490 306 l 2,1,2
 490 245 490 245 498 194.5 c 128,-1,3
 506 144 506 144 526 92 c 128,-1,4
 546 40 546 40 586 -1.5 c 128,-1,5
 626 -43 626 -43 684 -70 c 1,6,7
 605 -69 605 -69 549.5 -51.5 c 128,-1,8
 494 -34 494 -34 449.5 9 c 128,-1,9
 405 52 405 52 383 131 c 128,-1,10
 361 210 361 210 361 327 c 2,11,-1
 361 755 l 1,12,-1
 325 791 l 1,13,-1
 526 791 l 1,14,-1
 490 755 l 1,0,-1
EndSplineSet
EndChar

StartChar: Japan1.865
Encoding: 12376 12376 867
Width: 1000
GlyphClass: 2
Flags: W
LayerCount: 2
Fore
SplineSet
490 755 m 1,0,-1
 490 306 l 2,1,2
 490 245 490 245 498 194.5 c 128,-1,3
 506 144 506 144 526 92 c 128,-1,4
 546 40 546 40 586 -1.5 c 128,-1,5
 626 -43 626 -43 684 -70 c 1,6,7
 605 -69 605 -69 549.5 -51.5 c 128,-1,8
 494 -34 494 -34 449.5 9 c 128,-1,9
 405 52 405 52 383 131 c 128,-1,10
 361 210 361 210 361 327 c 2,11,-1
 361 755 l 1,12,-1
 325 791 l 1,13,-1
 526 791 l 1,14,-1
 490 755 l 1,0,-1
617 515 m 1,15,-1
 563 601 l 1,16,-1
 617 687 l 1,17,-1
 671 601 l 1,18,-1
 617 515 l 1,15,-1
669 346 m 1,19,-1
 615 432 l 1,20,-1
 669 518 l 1,21,-1
 723 432 l 1,22,-1
 669 346 l 1,19,-1
EndSplineSet
EndChar

StartChar: Japan1.866
Encoding: 12377 12377 868
Width: 1000
GlyphClass: 2
Flags: W
LayerCount: 2
Fore
SplineSet
851 552 m 1,0,-1
 815 588 l 1,1,-1
 665 588 l 1,2,-1
 665 375 l 2,3,4
 665 315 665 315 661.5 271 c 128,-1,5
 658 227 658 227 647.5 174.5 c 128,-1,6
 637 122 637 122 618 81.5 c 128,-1,7
 599 41 599 41 565 1 c 128,-1,8
 531 -39 531 -39 483 -70 c 1,9,10
 519 12 519 12 533 133 c 1,11,-1
 397 133 l 1,12,13
 315 204 315 204 304 295.5 c 128,-1,14
 293 387 293 387 351 461 c 128,-1,15
 409 535 409 535 515 561 c 1,16,17
 466 508 466 508 443 453.5 c 128,-1,18
 420 399 420 399 422.5 357.5 c 128,-1,19
 425 316 425 316 433 289.5 c 128,-1,20
 441 263 441 263 452 248 c 1,21,-1
 542 248 l 1,22,-1
 545 588 l 1,23,-1
 200 588 l 1,24,-1
 164 552 l 1,25,-1
 164 731 l 1,26,-1
 200 695 l 1,27,-1
 544 695 l 1,28,-1
 544 793 l 1,29,-1
 508 829 l 1,30,-1
 701 829 l 1,31,-1
 665 793 l 1,32,-1
 665 695 l 1,33,-1
 815 695 l 1,34,-1
 851 731 l 1,35,-1
 851 552 l 1,0,-1
EndSplineSet
EndChar

StartChar: Japan1.867
Encoding: 12378 12378 869
Width: 1000
GlyphClass: 2
Flags: W
LayerCount: 2
Fore
SplineSet
851 548 m 1,0,-1
 815 584 l 1,1,-1
 665 584 l 1,2,-1
 665 375 l 2,3,4
 665 315 665 315 661.5 271 c 128,-1,5
 658 227 658 227 647.5 174.5 c 128,-1,6
 637 122 637 122 618 81.5 c 128,-1,7
 599 41 599 41 565 1 c 128,-1,8
 531 -39 531 -39 483 -70 c 1,9,10
 519 12 519 12 533 133 c 1,11,-1
 397 133 l 1,12,13
 315 204 315 204 304 295 c 128,-1,14
 293 386 293 386 351 459.5 c 128,-1,15
 409 533 409 533 515 557 c 1,16,17
 466 505 466 505 443 451.5 c 128,-1,18
 420 398 420 398 422.5 357 c 128,-1,19
 425 316 425 316 433 289.5 c 128,-1,20
 441 263 441 263 452 248 c 1,21,-1
 542 248 l 1,22,-1
 545 584 l 1,23,-1
 200 584 l 1,24,-1
 164 548 l 1,25,-1
 164 727 l 1,26,-1
 200 691 l 1,27,-1
 544 691 l 1,28,-1
 544 793 l 1,29,-1
 508 829 l 1,30,-1
 701 829 l 1,31,-1
 665 793 l 1,32,-1
 665 691 l 1,33,-1
 815 691 l 1,34,-1
 851 727 l 1,35,-1
 851 548 l 1,0,-1
893 707 m 1,36,-1
 839 793 l 1,37,-1
 893 879 l 1,38,-1
 947 793 l 1,39,-1
 893 707 l 1,36,-1
945 538 m 1,40,-1
 891 624 l 1,41,-1
 945 710 l 1,42,-1
 999 624 l 1,43,-1
 945 538 l 1,40,-1
EndSplineSet
EndChar

StartChar: Japan1.868
Encoding: 12379 12379 870
Width: 1000
GlyphClass: 2
Flags: W
LayerCount: 2
Fore
SplineSet
825 587 m 1,0,-1
 861 623 l 1,1,-1
 861 447 l 1,2,-1
 825 483 l 1,3,-1
 718 483 l 1,4,5
 698 365 698 365 641 294.5 c 128,-1,6
 584 224 584 224 474 198 c 1,7,8
 588 312 588 312 603 483 c 1,9,-1
 434 483 l 1,10,-1
 434 98 l 1,11,-1
 695 98 l 1,12,-1
 731 134 l 1,13,-1
 731 -50 l 1,14,-1
 695 -14 l 1,15,-1
 317 -14 l 1,16,-1
 317 483 l 1,17,-1
 194 483 l 1,18,-1
 158 447 l 1,19,-1
 158 623 l 1,20,-1
 194 587 l 1,21,-1
 317 587 l 1,22,-1
 317 747 l 1,23,-1
 281 783 l 1,24,-1
 470 783 l 1,25,-1
 434 747 l 1,26,-1
 434 587 l 1,27,-1
 611 587 l 1,28,29
 613 617 613 617 613 747 c 1,30,-1
 577 783 l 1,31,-1
 766 783 l 1,32,-1
 730 747 l 1,33,34
 730 613 730 613 729 587 c 1,35,-1
 825 587 l 1,0,-1
EndSplineSet
EndChar

StartChar: Japan1.869
Encoding: 12380 12380 871
Width: 1000
GlyphClass: 2
Flags: W
LayerCount: 2
Fore
SplineSet
825 587 m 1,0,-1
 861 623 l 1,1,-1
 861 447 l 1,2,-1
 825 483 l 1,3,-1
 718 483 l 1,4,5
 698 365 698 365 641 294.5 c 128,-1,6
 584 224 584 224 474 198 c 1,7,8
 588 312 588 312 603 483 c 1,9,-1
 434 483 l 1,10,-1
 434 98 l 1,11,-1
 695 98 l 1,12,-1
 731 134 l 1,13,-1
 731 -50 l 1,14,-1
 695 -14 l 1,15,-1
 317 -14 l 1,16,-1
 317 483 l 1,17,-1
 194 483 l 1,18,-1
 158 447 l 1,19,-1
 158 623 l 1,20,-1
 194 587 l 1,21,-1
 317 587 l 1,22,-1
 317 747 l 1,23,-1
 281 783 l 1,24,-1
 470 783 l 1,25,-1
 434 747 l 1,26,-1
 434 587 l 1,27,-1
 611 587 l 1,28,29
 613 617 613 617 613 747 c 1,30,-1
 577 783 l 1,31,-1
 766 783 l 1,32,-1
 730 747 l 1,33,34
 730 613 730 613 729 587 c 1,35,-1
 825 587 l 1,0,-1
892 620 m 1,36,-1
 838 706 l 1,37,-1
 892 792 l 1,38,-1
 946 706 l 1,39,-1
 892 620 l 1,36,-1
944 451 m 1,40,-1
 890 537 l 1,41,-1
 944 623 l 1,42,-1
 998 537 l 1,43,-1
 944 451 l 1,40,-1
EndSplineSet
EndChar

StartChar: Japan1.870
Encoding: 12381 12381 872
Width: 1000
GlyphClass: 2
Flags: W
LayerCount: 2
Fore
SplineSet
777 814 m 1,0,-1
 741 778 l 1,1,2
 741 702 741 702 716 643 c 0,3,4
 665 520 665 520 475 489 c 1,5,6
 572 567 572 567 605 666 c 0,7,8
 617 710 617 710 617 778 c 1,9,-1
 581 814 l 1,10,-1
 777 814 l 1,0,-1
534 599 m 2,11,-1
 256 599 l 1,12,-1
 220 563 l 1,13,-1
 220 763 l 1,14,-1
 256 727 l 1,15,16
 322 727 322 727 375 714 c 128,-1,17
 428 701 428 701 456.5 683 c 128,-1,18
 485 665 485 665 504 644.5 c 128,-1,19
 523 624 523 624 528.5 612.5 c 128,-1,20
 534 601 534 601 534 599 c 2,11,-1
840 336 m 1,21,-1
 804 371 l 1,22,-1
 510 371 l 1,23,-1
 510 91 l 1,24,-1
 681 91 l 1,25,-1
 717 127 l 1,26,-1
 717 -63 l 1,27,-1
 681 -27 l 1,28,-1
 385 -27 l 1,29,-1
 385 371 l 1,30,-1
 207 371 l 1,31,-1
 171 336 l 1,32,-1
 171 512 l 1,33,-1
 207 476 l 1,34,-1
 804 476 l 1,35,-1
 840 512 l 1,36,-1
 840 336 l 1,21,-1
EndSplineSet
EndChar

StartChar: Japan1.871
Encoding: 12382 12382 873
Width: 1000
GlyphClass: 2
Flags: W
LayerCount: 2
Fore
SplineSet
777 814 m 1,0,-1
 741 778 l 1,1,2
 741 702 741 702 716 643 c 0,3,4
 665 520 665 520 475 489 c 1,5,6
 572 567 572 567 605 666 c 0,7,8
 617 710 617 710 617 778 c 1,9,-1
 581 814 l 1,10,-1
 777 814 l 1,0,-1
534 599 m 2,11,-1
 256 599 l 1,12,-1
 220 563 l 1,13,-1
 220 763 l 1,14,-1
 256 727 l 1,15,16
 322 727 322 727 375 714 c 128,-1,17
 428 701 428 701 456.5 683 c 128,-1,18
 485 665 485 665 504 644.5 c 128,-1,19
 523 624 523 624 528.5 612.5 c 128,-1,20
 534 601 534 601 534 599 c 2,11,-1
840 336 m 1,21,-1
 804 371 l 1,22,-1
 510 371 l 1,23,-1
 510 91 l 1,24,-1
 681 91 l 1,25,-1
 717 127 l 1,26,-1
 717 -63 l 1,27,-1
 681 -27 l 1,28,-1
 385 -27 l 1,29,-1
 385 371 l 1,30,-1
 207 371 l 1,31,-1
 171 336 l 1,32,-1
 171 512 l 1,33,-1
 207 476 l 1,34,-1
 804 476 l 1,35,-1
 840 512 l 1,36,-1
 840 336 l 1,21,-1
852 686 m 1,37,-1
 798 772 l 1,38,-1
 852 858 l 1,39,-1
 906 772 l 1,40,-1
 852 686 l 1,37,-1
800 517 m 1,41,-1
 746 603 l 1,42,-1
 800 689 l 1,43,-1
 854 603 l 1,44,-1
 800 517 l 1,41,-1
EndSplineSet
EndChar

StartChar: Japan1.872
Encoding: 12383 12383 874
Width: 1000
GlyphClass: 2
Flags: W
LayerCount: 2
Fore
SplineSet
647 540 m 1,0,-1
 611 576 l 1,1,-1
 435 576 l 1,2,3
 433 521 433 521 431 483.5 c 128,-1,4
 429 446 429 446 424.5 393.5 c 128,-1,5
 420 341 420 341 412 302.5 c 128,-1,6
 404 264 404 264 391 218 c 128,-1,7
 378 172 378 172 358.5 136 c 128,-1,8
 339 100 339 100 313.5 64 c 128,-1,9
 288 28 288 28 252 -2.5 c 128,-1,10
 216 -33 216 -33 172 -57 c 1,11,12
 214 8 214 8 239 70.5 c 128,-1,13
 264 133 264 133 285.5 262.5 c 128,-1,14
 307 392 307 392 310 576 c 1,15,-1
 189 576 l 1,16,-1
 153 540 l 1,17,-1
 153 718 l 1,18,-1
 189 682 l 1,19,-1
 312 682 l 1,20,-1
 313 789 l 1,21,-1
 277 825 l 1,22,-1
 471 825 l 1,23,-1
 435 789 l 1,24,25
 436 748 436 748 436 682 c 1,26,-1
 611 682 l 1,27,-1
 647 718 l 1,28,-1
 647 540 l 1,0,-1
829 -75 m 1,29,-1
 794 -41 l 1,30,31
 658 -49 658 -49 573.5 7 c 128,-1,32
 489 63 489 63 475 180 c 1,33,34
 504 152 504 152 524 137.5 c 128,-1,35
 544 123 544 123 579.5 108 c 128,-1,36
 615 93 615 93 666.5 87 c 128,-1,37
 718 81 718 81 794 81 c 1,38,-1
 829 116 l 1,39,-1
 829 -75 l 1,29,-1
824 339 m 1,40,-1
 788 375 l 1,41,-1
 543 375 l 1,42,-1
 507 339 l 1,43,-1
 507 523 l 1,44,-1
 543 486 l 1,45,-1
 788 486 l 1,46,-1
 824 522 l 1,47,-1
 824 339 l 1,40,-1
EndSplineSet
EndChar

StartChar: Japan1.873
Encoding: 12384 12384 875
Width: 1000
GlyphClass: 2
Flags: W
LayerCount: 2
Fore
SplineSet
647 540 m 1,0,-1
 611 576 l 1,1,-1
 435 576 l 1,2,3
 433 521 433 521 431 483.5 c 128,-1,4
 429 446 429 446 424.5 393.5 c 128,-1,5
 420 341 420 341 412 302.5 c 128,-1,6
 404 264 404 264 391 218 c 128,-1,7
 378 172 378 172 358.5 136 c 128,-1,8
 339 100 339 100 313.5 64 c 128,-1,9
 288 28 288 28 252 -2.5 c 128,-1,10
 216 -33 216 -33 172 -57 c 1,11,12
 214 8 214 8 239 70.5 c 128,-1,13
 264 133 264 133 285.5 262.5 c 128,-1,14
 307 392 307 392 310 576 c 1,15,-1
 189 576 l 1,16,-1
 153 540 l 1,17,-1
 153 718 l 1,18,-1
 189 682 l 1,19,-1
 312 682 l 1,20,-1
 313 789 l 1,21,-1
 277 825 l 1,22,-1
 471 825 l 1,23,-1
 435 789 l 1,24,25
 436 748 436 748 436 682 c 1,26,-1
 611 682 l 1,27,-1
 647 718 l 1,28,-1
 647 540 l 1,0,-1
829 -75 m 1,29,-1
 794 -41 l 1,30,31
 658 -49 658 -49 573.5 7 c 128,-1,32
 489 63 489 63 475 180 c 1,33,34
 504 152 504 152 524 137.5 c 128,-1,35
 544 123 544 123 579.5 108 c 128,-1,36
 615 93 615 93 666.5 87 c 128,-1,37
 718 81 718 81 794 81 c 1,38,-1
 829 116 l 1,39,-1
 829 -75 l 1,29,-1
712 708 m 1,40,-1
 658 794 l 1,41,-1
 712 880 l 1,42,-1
 766 794 l 1,43,-1
 712 708 l 1,40,-1
764 539 m 1,44,-1
 710 625 l 1,45,-1
 764 711 l 1,46,-1
 818 625 l 1,47,-1
 764 539 l 1,44,-1
824 331 m 1,48,-1
 788 367 l 1,49,-1
 543 367 l 1,50,-1
 507 331 l 1,51,-1
 507 515 l 1,52,-1
 543 478 l 1,53,-1
 788 478 l 1,54,-1
 824 514 l 1,55,-1
 824 331 l 1,48,-1
EndSplineSet
EndChar

StartChar: Japan1.874
Encoding: 12385 12385 876
Width: 1000
GlyphClass: 2
Flags: W
LayerCount: 2
Fore
SplineSet
814 538 m 1,0,-1
 777 574 l 1,1,-1
 452 574 l 1,2,-1
 453 407 l 1,3,4
 562 419 562 419 620 408 c 128,-1,5
 678 397 678 397 712 373 c 0,6,7
 767 336 767 336 784.5 271 c 128,-1,8
 802 206 802 206 783 142 c 0,9,10
 768 81 768 81 724.5 36.5 c 128,-1,11
 681 -8 681 -8 623.5 -28.5 c 128,-1,12
 566 -49 566 -49 498 -56.5 c 128,-1,13
 430 -64 430 -64 366 -50 c 1,14,15
 406 -39 406 -39 434.5 -29.5 c 128,-1,16
 463 -20 463 -20 503 -2 c 128,-1,17
 543 16 543 16 570.5 36 c 128,-1,18
 598 56 598 56 622 86.5 c 128,-1,19
 646 117 646 117 656 153 c 0,20,21
 662 173 662 173 662.5 193 c 128,-1,22
 663 213 663 213 657 232.5 c 128,-1,23
 651 252 651 252 637.5 267.5 c 128,-1,24
 624 283 624 283 598 292 c 128,-1,25
 572 301 572 301 536.5 302 c 128,-1,26
 501 303 501 303 447.5 291.5 c 128,-1,27
 394 280 394 280 328 256 c 1,28,-1
 327 574 l 1,29,-1
 220 574 l 1,30,-1
 184 538 l 1,31,-1
 184 720 l 1,32,-1
 220 684 l 1,33,-1
 327 684 l 1,34,-1
 327 799 l 1,35,-1
 291 835 l 1,36,-1
 487 835 l 1,37,-1
 452 799 l 1,38,-1
 452 684 l 1,39,-1
 777 684 l 1,40,-1
 814 720 l 1,41,-1
 814 538 l 1,0,-1
EndSplineSet
EndChar

StartChar: Japan1.875
Encoding: 12386 12386 877
Width: 1000
GlyphClass: 2
Flags: W
LayerCount: 2
Fore
SplineSet
814 538 m 1,0,-1
 777 574 l 1,1,-1
 452 574 l 1,2,-1
 453 407 l 1,3,4
 562 419 562 419 620 408 c 128,-1,5
 678 397 678 397 712 373 c 0,6,7
 767 336 767 336 784.5 271 c 128,-1,8
 802 206 802 206 783 142 c 0,9,10
 768 81 768 81 724.5 36.5 c 128,-1,11
 681 -8 681 -8 623.5 -28.5 c 128,-1,12
 566 -49 566 -49 498 -56.5 c 128,-1,13
 430 -64 430 -64 366 -50 c 1,14,15
 406 -39 406 -39 434.5 -29.5 c 128,-1,16
 463 -20 463 -20 503 -2 c 128,-1,17
 543 16 543 16 570.5 36 c 128,-1,18
 598 56 598 56 622 86.5 c 128,-1,19
 646 117 646 117 656 153 c 0,20,21
 662 173 662 173 662.5 193 c 128,-1,22
 663 213 663 213 657 232.5 c 128,-1,23
 651 252 651 252 637.5 267.5 c 128,-1,24
 624 283 624 283 598 292 c 128,-1,25
 572 301 572 301 536.5 302 c 128,-1,26
 501 303 501 303 447.5 291.5 c 128,-1,27
 394 280 394 280 328 256 c 1,28,-1
 327 574 l 1,29,-1
 220 574 l 1,30,-1
 184 538 l 1,31,-1
 184 720 l 1,32,-1
 220 684 l 1,33,-1
 327 684 l 1,34,-1
 327 799 l 1,35,-1
 291 835 l 1,36,-1
 487 835 l 1,37,-1
 452 799 l 1,38,-1
 452 684 l 1,39,-1
 777 684 l 1,40,-1
 814 720 l 1,41,-1
 814 538 l 1,0,-1
859 704 m 1,42,-1
 805 790 l 1,43,-1
 859 876 l 1,44,-1
 913 790 l 1,45,-1
 859 704 l 1,42,-1
911 535 m 1,46,-1
 857 621 l 1,47,-1
 911 707 l 1,48,-1
 965 621 l 1,49,-1
 911 535 l 1,46,-1
EndSplineSet
EndChar

StartChar: Japan1.876
Encoding: 12387 12387 878
Width: 1000
GlyphClass: 2
Flags: W
LayerCount: 2
Fore
SplineSet
263 588 m 1,0,-1
 297 554 l 1,1,-1
 449 554 l 2,2,3
 593 554 593 554 664 481.5 c 128,-1,4
 735 409 735 409 730 278 c 0,5,6
 724 127 724 127 619.5 43.5 c 128,-1,7
 515 -40 515 -40 335 -17 c 1,8,9
 465 22 465 22 537.5 92.5 c 128,-1,10
 610 163 610 163 614 280 c 0,11,12
 617 368 617 368 579.5 408.5 c 128,-1,13
 542 449 542 449 449 449 c 2,14,-1
 297 449 l 1,15,-1
 263 415 l 1,16,-1
 263 588 l 1,0,-1
EndSplineSet
EndChar

StartChar: Japan1.877
Encoding: 12388 12388 879
Width: 1000
GlyphClass: 2
Flags: W
LayerCount: 2
Fore
SplineSet
222 744 m 1,0,-1
 260 707 l 1,1,-1
 492 707 l 2,2,3
 843 707 843 707 814 384 c 0,4,5
 805 289 805 289 757 207 c 128,-1,6
 709 125 709 125 637 71 c 128,-1,7
 565 17 565 17 472.5 -7 c 128,-1,8
 380 -31 380 -31 287 -16 c 1,9,10
 443 27 443 27 555 131 c 128,-1,11
 667 235 667 235 680 377 c 0,12,13
 690 490 690 490 641.5 539 c 128,-1,14
 593 588 593 588 482 588 c 2,15,-1
 260 588 l 1,16,-1
 222 552 l 1,17,-1
 222 744 l 1,0,-1
EndSplineSet
EndChar

StartChar: Japan1.878
Encoding: 12389 12389 880
Width: 1000
GlyphClass: 2
Flags: W
LayerCount: 2
Fore
SplineSet
222 744 m 1,0,-1
 260 707 l 1,1,-1
 492 707 l 2,2,3
 843 707 843 707 814 384 c 0,4,5
 805 289 805 289 757 207 c 128,-1,6
 709 125 709 125 637 71 c 128,-1,7
 565 17 565 17 472.5 -7 c 128,-1,8
 380 -31 380 -31 287 -16 c 1,9,10
 443 27 443 27 555 131 c 128,-1,11
 667 235 667 235 680 377 c 0,12,13
 690 490 690 490 641.5 539 c 128,-1,14
 593 588 593 588 482 588 c 2,15,-1
 260 588 l 1,16,-1
 222 552 l 1,17,-1
 222 744 l 1,0,-1
817 644 m 5,18,-1
 763 730 l 5,19,-1
 817 816 l 5,20,-1
 871 730 l 5,21,-1
 817 644 l 5,18,-1
901 491 m 5,22,-1
 847 577 l 5,23,-1
 901 663 l 5,24,-1
 955 577 l 5,25,-1
 901 491 l 5,22,-1
EndSplineSet
EndChar

StartChar: Japan1.879
Encoding: 12390 12390 881
Width: 1000
GlyphClass: 2
Flags: W
LayerCount: 2
Fore
SplineSet
813 581 m 1,0,-1
 777 617 l 1,1,-1
 226 617 l 1,2,-1
 190 581 l 1,3,-1
 190 765 l 1,4,-1
 226 729 l 1,5,-1
 777 729 l 1,6,-1
 813 765 l 1,7,-1
 813 581 l 1,0,-1
710 -69 m 1,8,-1
 673 -33 l 1,9,-1
 456 -33 l 1,10,11
 397 24 397 24 372.5 98.5 c 128,-1,12
 348 173 348 173 360 248 c 128,-1,13
 372 323 372 323 409 393 c 128,-1,14
 446 463 446 463 510.5 519 c 128,-1,15
 575 575 575 575 655 603 c 1,16,17
 607 549 607 549 570 488.5 c 128,-1,18
 533 428 533 428 508 359 c 128,-1,19
 483 290 483 290 485.5 219 c 128,-1,20
 488 148 488 148 523 89 c 1,21,-1
 673 89 l 1,22,-1
 710 125 l 1,23,-1
 710 -69 l 1,8,-1
EndSplineSet
EndChar

StartChar: Japan1.880
Encoding: 12391 12391 882
Width: 1000
GlyphClass: 2
Flags: W
LayerCount: 2
Fore
SplineSet
813 581 m 1,0,-1
 777 617 l 1,1,-1
 226 617 l 1,2,-1
 190 581 l 1,3,-1
 190 765 l 1,4,-1
 226 729 l 1,5,-1
 777 729 l 1,6,-1
 813 765 l 1,7,-1
 813 581 l 1,0,-1
710 -69 m 1,8,-1
 673 -33 l 1,9,-1
 456 -33 l 1,10,11
 397 24 397 24 372.5 98.5 c 128,-1,12
 348 173 348 173 360 248 c 128,-1,13
 372 323 372 323 409 393 c 128,-1,14
 446 463 446 463 510.5 519 c 128,-1,15
 575 575 575 575 655 603 c 1,16,17
 607 549 607 549 570 488.5 c 128,-1,18
 533 428 533 428 508 359 c 128,-1,19
 483 290 483 290 485.5 219 c 128,-1,20
 488 148 488 148 523 89 c 1,21,-1
 673 89 l 1,22,-1
 710 125 l 1,23,-1
 710 -69 l 1,8,-1
708 372 m 1,24,-1
 654 458 l 1,25,-1
 708 544 l 1,26,-1
 762 458 l 1,27,-1
 708 372 l 1,24,-1
760 203 m 1,28,-1
 706 289 l 1,29,-1
 760 375 l 1,30,-1
 814 289 l 1,31,-1
 760 203 l 1,28,-1
EndSplineSet
EndChar

StartChar: Japan1.881
Encoding: 12392 12392 883
Width: 1000
GlyphClass: 2
Flags: W
LayerCount: 2
Fore
SplineSet
783 118 m 1,0,-1
 747 82 l 1,1,-1
 538 82 l 2,2,3
 368 82 368 82 364 201 c 0,4,5
 357 328 357 328 554 435 c 0,6,7
 665 496 665 496 823 533 c 1,8,9
 683 575 683 575 527 523 c 1,10,-1
 527 765 l 1,11,-1
 564 801 l 1,12,-1
 371 801 l 1,13,-1
 407 765 l 1,14,-1
 407 468 l 1,15,16
 229 365 229 365 228 199 c 0,17,18
 227 97 227 97 305 28.5 c 128,-1,19
 383 -40 383 -40 538 -40 c 2,20,-1
 747 -40 l 1,21,-1
 783 -75 l 1,22,-1
 783 118 l 1,0,-1
EndSplineSet
EndChar

StartChar: Japan1.882
Encoding: 12393 12393 884
Width: 1000
GlyphClass: 2
Flags: W
LayerCount: 2
Fore
SplineSet
783 118 m 1,0,-1
 747 82 l 1,1,-1
 538 82 l 2,2,3
 368 82 368 82 364 201 c 0,4,5
 357 328 357 328 554 435 c 0,6,7
 665 496 665 496 823 533 c 1,8,9
 683 575 683 575 527 523 c 1,10,-1
 527 765 l 1,11,-1
 564 801 l 1,12,-1
 371 801 l 1,13,-1
 407 765 l 1,14,-1
 407 468 l 1,15,16
 229 365 229 365 228 199 c 0,17,18
 227 97 227 97 305 28.5 c 128,-1,19
 383 -40 383 -40 538 -40 c 2,20,-1
 747 -40 l 1,21,-1
 783 -75 l 1,22,-1
 783 118 l 1,0,-1
848 598 m 1,23,-1
 794 684 l 1,24,-1
 848 770 l 1,25,-1
 902 684 l 1,26,-1
 848 598 l 1,23,-1
900 429 m 1,27,-1
 846 515 l 1,28,-1
 900 601 l 1,29,-1
 954 515 l 1,30,-1
 900 429 l 1,27,-1
EndSplineSet
EndChar

StartChar: Japan1.883
Encoding: 12394 12394 885
Width: 1000
GlyphClass: 2
Flags: W
LayerCount: 2
Fore
SplineSet
605 540 m 1,0,-1
 568 576 l 1,1,-1
 409 576 l 1,2,3
 405 509 405 509 400.5 460.5 c 128,-1,4
 396 412 396 412 385.5 350.5 c 128,-1,5
 375 289 375 289 357 242.5 c 128,-1,6
 339 196 339 196 312.5 150.5 c 128,-1,7
 286 105 286 105 245.5 70.5 c 128,-1,8
 205 36 205 36 152 14 c 1,9,10
 229 115 229 115 256 251 c 128,-1,11
 283 387 283 387 290 576 c 1,12,-1
 180 576 l 1,13,-1
 144 542 l 1,14,-1
 144 716 l 1,15,-1
 180 682 l 1,16,-1
 292 682 l 1,17,-1
 293 789 l 1,18,-1
 257 825 l 1,19,-1
 448 825 l 1,20,-1
 412 789 l 1,21,-1
 412 682 l 1,22,-1
 568 682 l 1,23,-1
 605 718 l 1,24,-1
 605 540 l 1,0,-1
879 688 m 1,25,-1
 843 652 l 1,26,-1
 843 427 l 1,27,28
 811 441 811 441 787 469.5 c 128,-1,29
 763 498 763 498 752 528 c 128,-1,30
 741 558 741 558 734.5 586.5 c 128,-1,31
 728 615 728 615 727 634 c 2,32,-1
 726 652 l 1,33,-1
 690 688 l 1,34,-1
 879 688 l 1,25,-1
685 481 m 1,35,-1
 685 364 l 1,36,37
 767 349 767 349 817.5 281.5 c 128,-1,38
 868 214 868 214 853 121 c 1,39,40
 801 235 801 235 685 255 c 1,41,-1
 685 -55 l 1,42,-1
 499 -55 l 1,43,44
 435 -10 435 -10 411.5 55.5 c 128,-1,45
 388 121 388 121 403 181.5 c 128,-1,46
 418 242 418 242 463.5 292.5 c 128,-1,47
 509 343 509 343 574 361 c 1,48,-1
 574 481 l 1,49,-1
 538 517 l 1,50,-1
 721 517 l 1,51,-1
 685 481 l 1,35,-1
574 50 m 1,52,-1
 574 238 l 1,53,54
 524 208 524 208 512 147.5 c 128,-1,55
 500 87 500 87 536 51 c 1,56,-1
 574 50 l 1,52,-1
EndSplineSet
EndChar

StartChar: Japan1.884
Encoding: 12395 12395 886
Width: 1000
GlyphClass: 2
Flags: W
LayerCount: 2
Fore
SplineSet
377 -4 m 1,0,-1
 184 -4 l 1,1,-1
 220 32 l 1,2,-1
 220 716 l 1,3,-1
 184 752 l 1,4,-1
 377 752 l 1,5,-1
 341 716 l 1,6,-1
 341 32 l 1,7,-1
 377 -4 l 1,0,-1
801 -45 m 1,8,-1
 765 -9 l 1,9,10
 623 -16 623 -16 534.5 59.5 c 128,-1,11
 446 135 446 135 439 254 c 1,12,13
 520 173 520 173 590.5 147.5 c 128,-1,14
 661 122 661 122 765 122 c 1,15,-1
 801 158 l 1,16,-1
 801 -45 l 1,8,-1
803 530 m 1,17,-1
 767 566 l 1,18,-1
 498 566 l 1,19,-1
 462 530 l 1,20,-1
 462 718 l 1,21,-1
 498 681 l 1,22,-1
 767 681 l 1,23,-1
 803 717 l 1,24,-1
 803 530 l 1,17,-1
EndSplineSet
EndChar

StartChar: Japan1.885
Encoding: 12396 12396 887
Width: 1000
GlyphClass: 2
Flags: W
LayerCount: 2
Fore
SplineSet
578 668 m 1,0,-1
 640 807 l 1,1,2
 658 770 658 770 665 725 c 128,-1,3
 672 680 672 680 670 653 c 2,4,-1
 668 626 l 1,5,6
 722 588 722 588 756 527.5 c 128,-1,7
 790 467 790 467 800 414 c 128,-1,8
 810 361 810 361 807 315 c 1,9,10
 892 261 892 261 894 151 c 1,11,12
 847 211 847 211 794 229 c 1,13,14
 759 60 759 60 655 -25 c 1,15,-1
 495 -25 l 1,16,17
 462 83 462 83 484.5 165 c 128,-1,18
 507 247 507 247 566.5 296 c 128,-1,19
 626 345 626 345 698 346 c 1,20,21
 691 459 691 459 627 520 c 1,22,-1
 362 -24 l 1,23,24
 286 12 286 12 237 65 c 128,-1,25
 188 118 188 118 164 211 c 0,26,27
 135 321 135 321 167 431 c 0,28,29
 213 581 213 581 342 647 c 1,30,-1
 342 759 l 1,31,-1
 306 796 l 1,32,-1
 489 796 l 1,33,-1
 453 759 l 1,34,-1
 453 681 l 1,35,36
 516 686 516 686 578 668 c 1,0,-1
453 406 m 1,37,-1
 532 568 l 1,38,39
 491 576 491 576 453 571 c 1,40,-1
 453 406 l 1,37,-1
413 324 m 1,41,-1
 306 324 l 1,42,-1
 342 360 l 1,43,-1
 342 514 l 1,44,45
 292 470 292 470 271 399 c 0,46,47
 250 337 250 337 262.5 263.5 c 128,-1,48
 275 190 275 190 324 140 c 1,49,-1
 413 324 l 1,41,-1
577 71 m 1,50,-1
 609 71 l 1,51,52
 658 121 658 121 687 243 c 1,53,54
 636 233 636 233 603.5 185 c 128,-1,55
 571 137 571 137 577 71 c 1,50,-1
EndSplineSet
EndChar

StartChar: Japan1.886
Encoding: 12397 12397 888
Width: 1000
GlyphClass: 2
Flags: W
LayerCount: 2
Fore
SplineSet
433 786 m 1,0,-1
 433 554 l 1,1,2
 553 709 553 709 677 671 c 0,3,4
 714 660 714 660 739 636 c 128,-1,5
 764 612 764 612 777.5 577.5 c 128,-1,6
 791 543 791 543 797 509.5 c 128,-1,7
 803 476 803 476 805 433 c 0,8,9
 806 414 806 414 806 345 c 1,10,11
 919 285 919 285 906 139 c 1,12,13
 894 178 894 178 865.5 208 c 128,-1,14
 837 238 837 238 806 252 c 1,15,-1
 806 -35 l 1,16,-1
 611 -35 l 1,17,18
 553 9 553 9 533 73.5 c 128,-1,19
 513 138 513 138 529 197 c 128,-1,20
 545 256 545 256 590 302.5 c 128,-1,21
 635 349 635 349 696 361 c 1,22,-1
 696 429 l 1,23,24
 689 549 689 549 644 563 c 0,25,26
 620 571 620 571 589.5 554 c 128,-1,27
 559 537 559 537 525 497.5 c 128,-1,28
 491 458 491 458 475 436.5 c 128,-1,29
 459 415 459 415 433 377 c 1,30,-1
 433 -17 l 1,31,-1
 469 -53 l 1,32,-1
 287 -53 l 1,33,-1
 323 -17 l 1,34,-1
 323 215 l 2,35,36
 321 213 321 213 317 209 c 128,-1,37
 313 205 313 205 301.5 195 c 128,-1,38
 290 185 290 185 278 176.5 c 128,-1,39
 266 168 266 168 249 159 c 128,-1,40
 232 150 232 150 216.5 145 c 128,-1,41
 201 140 201 140 183.5 140.5 c 128,-1,42
 166 141 166 141 151 149 c 1,43,-1
 323 405 l 1,44,-1
 323 546 l 1,45,-1
 219 546 l 1,46,-1
 183 510 l 1,47,-1
 183 688 l 1,48,-1
 219 652 l 1,49,-1
 323 652 l 1,50,-1
 323 786 l 1,51,-1
 287 822 l 1,52,-1
 473 822 l 1,53,-1
 433 786 l 1,0,-1
696 63 m 1,54,-1
 696 251 l 1,55,56
 649 231 649 231 632.5 167.5 c 128,-1,57
 616 104 616 104 649 63 c 1,58,-1
 696 63 l 1,54,-1
EndSplineSet
EndChar

StartChar: Japan1.887
Encoding: 12398 12398 889
Width: 1000
GlyphClass: 2
Flags: W
LayerCount: 2
Fore
SplineSet
538 6 m 1,0,-1
 338 6 l 1,1,2
 241 76 241 76 195.5 183.5 c 128,-1,3
 150 291 150 291 159 404 c 0,4,5
 171 559 171 559 268.5 663 c 128,-1,6
 366 767 366 767 521 763 c 0,7,8
 622 760 622 760 696.5 705.5 c 128,-1,9
 771 651 771 651 806 569.5 c 128,-1,10
 841 488 841 488 843.5 390.5 c 128,-1,11
 846 293 846 293 816 205.5 c 128,-1,12
 786 118 786 118 717.5 50 c 128,-1,13
 649 -18 649 -18 553 -39 c 1,14,15
 635 35 635 35 677.5 146.5 c 128,-1,16
 720 258 720 258 718 372 c 0,17,18
 716 491 716 491 663.5 566.5 c 128,-1,19
 611 642 611 642 515 644 c 0,20,21
 410 647 410 647 349.5 575 c 128,-1,22
 289 503 289 503 282 394 c 0,23,24
 277 316 277 316 302 240.5 c 128,-1,25
 327 165 327 165 379 121 c 1,26,-1
 421 121 l 1,27,-1
 421 541 l 1,28,-1
 385 577 l 1,29,-1
 572 577 l 1,30,-1
 538 541 l 1,31,-1
 538 6 l 1,0,-1
EndSplineSet
EndChar

StartChar: Japan1.888
Encoding: 12399 12399 890
Width: 1000
GlyphClass: 2
Flags: W
LayerCount: 2
Fore
SplineSet
710 519 m 1,0,-1
 710 384 l 1,1,2
 793 368 793 368 840.5 298.5 c 128,-1,3
 888 229 888 229 869 137 c 1,4,5
 838 202 838 202 801.5 233.5 c 128,-1,6
 765 265 765 265 710 272 c 1,7,-1
 710 -38 l 1,8,-1
 528 -38 l 1,9,10
 400 50 400 50 429 192 c 0,11,12
 442 262 442 262 486.5 310.5 c 128,-1,13
 531 359 531 359 594 377 c 1,14,-1
 594 519 l 1,15,-1
 427 519 l 1,16,-1
 391 483 l 1,17,-1
 391 661 l 1,18,-1
 427 625 l 1,19,-1
 594 625 l 1,20,-1
 594 755 l 1,21,-1
 558 791 l 1,22,-1
 746 791 l 1,23,-1
 710 755 l 1,24,-1
 710 625 l 1,25,-1
 810 625 l 1,26,-1
 846 661 l 1,27,-1
 846 483 l 1,28,-1
 810 519 l 1,29,-1
 710 519 l 1,0,-1
349 -4 m 1,30,-1
 162 -4 l 1,31,-1
 198 32 l 1,32,-1
 198 716 l 1,33,-1
 162 752 l 1,34,-1
 349 752 l 1,35,-1
 313 716 l 1,36,-1
 313 32 l 1,37,-1
 349 -4 l 1,30,-1
594 67 m 1,38,-1
 594 253 l 1,39,40
 549 222 549 222 539 163.5 c 128,-1,41
 529 105 529 105 565 67 c 1,42,-1
 594 67 l 1,38,-1
EndSplineSet
EndChar

StartChar: Japan1.889
Encoding: 12400 12400 891
Width: 1000
GlyphClass: 2
Flags: W
LayerCount: 2
Fore
SplineSet
880 650 m 1,0,-1
 826 736 l 1,1,-1
 880 822 l 1,2,-1
 934 736 l 1,3,-1
 880 650 l 1,0,-1
932 481 m 1,4,-1
 878 567 l 1,5,-1
 932 653 l 1,6,-1
 986 567 l 1,7,-1
 932 481 l 1,4,-1
710 519 m 1,8,-1
 710 384 l 1,9,10
 793 368 793 368 840.5 298.5 c 128,-1,11
 888 229 888 229 869 137 c 1,12,13
 838 202 838 202 801.5 233.5 c 128,-1,14
 765 265 765 265 710 272 c 1,15,-1
 710 -38 l 1,16,-1
 528 -38 l 1,17,18
 400 50 400 50 429 192 c 0,19,20
 442 262 442 262 486.5 310.5 c 128,-1,21
 531 359 531 359 594 377 c 1,22,-1
 594 519 l 1,23,-1
 427 519 l 1,24,-1
 391 483 l 1,25,-1
 391 661 l 1,26,-1
 427 625 l 1,27,-1
 594 625 l 1,28,-1
 594 755 l 1,29,-1
 558 791 l 1,30,-1
 746 791 l 1,31,-1
 710 755 l 1,32,-1
 710 625 l 1,33,-1
 810 625 l 1,34,-1
 846 661 l 1,35,-1
 846 483 l 1,36,-1
 810 519 l 1,37,-1
 710 519 l 1,8,-1
349 -4 m 1,38,-1
 162 -4 l 1,39,-1
 198 32 l 1,40,-1
 198 716 l 1,41,-1
 162 752 l 1,42,-1
 349 752 l 1,43,-1
 313 716 l 1,44,-1
 313 32 l 1,45,-1
 349 -4 l 1,38,-1
594 67 m 1,46,-1
 594 253 l 1,47,48
 549 222 549 222 539 163.5 c 128,-1,49
 529 105 529 105 565 67 c 1,50,-1
 594 67 l 1,46,-1
EndSplineSet
EndChar

StartChar: Japan1.890
Encoding: 12401 12401 892
Width: 1000
GlyphClass: 2
Flags: W
LayerCount: 2
Fore
SplineSet
770 765 m 128,-1,1
 770 806 770 806 799.5 835.5 c 128,-1,2
 829 865 829 865 870 865 c 128,-1,3
 911 865 911 865 940.5 835.5 c 128,-1,4
 970 806 970 806 970 765 c 128,-1,5
 970 724 970 724 940.5 694.5 c 128,-1,6
 911 665 911 665 870 665 c 128,-1,7
 829 665 829 665 799.5 694.5 c 128,-1,0
 770 724 770 724 770 765 c 128,-1,1
816 765 m 128,-1,9
 816 742 816 742 832 726.5 c 128,-1,10
 848 711 848 711 870 711 c 128,-1,11
 892 711 892 711 908 726.5 c 128,-1,12
 924 742 924 742 924 765 c 128,-1,13
 924 788 924 788 908 803.5 c 128,-1,14
 892 819 892 819 870 819 c 128,-1,15
 848 819 848 819 832 803.5 c 128,-1,8
 816 788 816 788 816 765 c 128,-1,9
710 519 m 1,16,-1
 710 384 l 1,17,18
 793 368 793 368 840.5 298.5 c 128,-1,19
 888 229 888 229 869 137 c 1,20,21
 838 202 838 202 801.5 233.5 c 128,-1,22
 765 265 765 265 710 272 c 1,23,-1
 710 -38 l 1,24,-1
 528 -38 l 1,25,26
 400 50 400 50 429 192 c 0,27,28
 442 262 442 262 486.5 310.5 c 128,-1,29
 531 359 531 359 594 377 c 1,30,-1
 594 519 l 1,31,-1
 427 519 l 1,32,-1
 391 483 l 1,33,-1
 391 661 l 1,34,-1
 427 625 l 1,35,-1
 594 625 l 1,36,-1
 594 755 l 1,37,-1
 558 791 l 1,38,-1
 746 791 l 1,39,-1
 710 755 l 1,40,-1
 710 625 l 1,41,-1
 810 625 l 1,42,-1
 846 661 l 1,43,-1
 846 483 l 1,44,-1
 810 519 l 1,45,-1
 710 519 l 1,16,-1
349 -4 m 1,46,-1
 162 -4 l 1,47,-1
 198 32 l 1,48,-1
 198 716 l 1,49,-1
 162 752 l 1,50,-1
 349 752 l 1,51,-1
 313 716 l 1,52,-1
 313 32 l 1,53,-1
 349 -4 l 1,46,-1
594 67 m 1,54,-1
 594 253 l 1,55,56
 549 222 549 222 539 163.5 c 128,-1,57
 529 105 529 105 565 67 c 1,58,-1
 594 67 l 1,54,-1
EndSplineSet
EndChar

StartChar: Japan1.891
Encoding: 12402 12402 893
Width: 1000
GlyphClass: 2
Flags: W
LayerCount: 2
Fore
SplineSet
776 430 m 1,0,-1
 739 394 l 1,1,-1
 740 360 l 2,2,3
 740 306 740 306 739 268 c 128,-1,4
 738 230 738 230 732.5 183 c 128,-1,5
 727 136 727 136 717 104 c 128,-1,6
 707 72 707 72 688 39.5 c 128,-1,7
 669 7 669 7 642 -12.5 c 128,-1,8
 615 -32 615 -32 575.5 -44 c 128,-1,9
 536 -56 536 -56 485 -55 c 0,10,11
 430 -54 430 -54 387 -38.5 c 128,-1,12
 344 -23 344 -23 318 3 c 128,-1,13
 292 29 292 29 273.5 63 c 128,-1,14
 255 97 255 97 248 134.5 c 128,-1,15
 241 172 241 172 236 211 c 128,-1,16
 231 250 231 250 232.5 286.5 c 128,-1,17
 234 323 234 323 233 354 c 2,18,-1
 233 636 l 1,19,-1
 174 636 l 1,20,-1
 138 600 l 1,21,-1
 138 776 l 1,22,-1
 174 740 l 1,23,-1
 410 740 l 1,24,-1
 446 776 l 1,25,-1
 446 600 l 1,26,-1
 410 636 l 1,27,-1
 355 636 l 1,28,-1
 355 352 l 2,29,30
 354 282 354 282 355.5 241 c 128,-1,31
 357 200 357 200 364 160.5 c 128,-1,32
 371 121 371 121 385.5 102 c 128,-1,33
 400 83 400 83 425 71 c 128,-1,34
 450 59 450 59 487 59 c 128,-1,35
 524 59 524 59 548 69 c 128,-1,36
 572 79 572 79 587.5 98.5 c 128,-1,37
 603 118 603 118 610.5 156.5 c 128,-1,38
 618 195 618 195 620.5 240.5 c 128,-1,39
 623 286 623 286 622 358 c 2,40,-1
 622 394 l 1,41,-1
 584 430 l 1,42,-1
 776 430 l 1,0,-1
861 428 m 1,43,-1
 825 464 l 1,44,45
 719 459 719 459 646.5 523 c 128,-1,46
 574 587 574 587 570 704 c 1,47,48
 575 699 575 699 583 691 c 128,-1,49
 591 683 591 683 618 663 c 128,-1,50
 645 643 645 643 673 627.5 c 128,-1,51
 701 612 701 612 743 599.5 c 128,-1,52
 785 587 785 587 825 588 c 1,53,-1
 861 624 l 1,54,-1
 861 428 l 1,43,-1
EndSplineSet
EndChar

StartChar: Japan1.892
Encoding: 12403 12403 894
Width: 1000
GlyphClass: 2
Flags: W
LayerCount: 2
Fore
SplineSet
776 430 m 1,0,-1
 739 394 l 1,1,-1
 740 360 l 2,2,3
 740 306 740 306 739 268 c 128,-1,4
 738 230 738 230 732.5 183 c 128,-1,5
 727 136 727 136 717 104 c 128,-1,6
 707 72 707 72 688 39.5 c 128,-1,7
 669 7 669 7 642 -12.5 c 128,-1,8
 615 -32 615 -32 575.5 -44 c 128,-1,9
 536 -56 536 -56 485 -55 c 0,10,11
 430 -54 430 -54 387 -38.5 c 128,-1,12
 344 -23 344 -23 318 3 c 128,-1,13
 292 29 292 29 273.5 63 c 128,-1,14
 255 97 255 97 248 134.5 c 128,-1,15
 241 172 241 172 236 211 c 128,-1,16
 231 250 231 250 232.5 286.5 c 128,-1,17
 234 323 234 323 233 354 c 2,18,-1
 233 636 l 1,19,-1
 174 636 l 1,20,-1
 138 600 l 1,21,-1
 138 776 l 1,22,-1
 174 740 l 1,23,-1
 410 740 l 1,24,-1
 446 776 l 1,25,-1
 446 600 l 1,26,-1
 410 636 l 1,27,-1
 355 636 l 1,28,-1
 355 352 l 2,29,30
 354 282 354 282 355.5 241 c 128,-1,31
 357 200 357 200 364 160.5 c 128,-1,32
 371 121 371 121 385.5 102 c 128,-1,33
 400 83 400 83 425 71 c 128,-1,34
 450 59 450 59 487 59 c 128,-1,35
 524 59 524 59 548 69 c 128,-1,36
 572 79 572 79 587.5 98.5 c 128,-1,37
 603 118 603 118 610.5 156.5 c 128,-1,38
 618 195 618 195 620.5 240.5 c 128,-1,39
 623 286 623 286 622 358 c 2,40,-1
 622 394 l 1,41,-1
 584 430 l 1,42,-1
 776 430 l 1,0,-1
845 436 m 1,43,-1
 809 472 l 1,44,45
 703 467 703 467 630.5 531 c 128,-1,46
 558 595 558 595 554 712 c 1,47,48
 559 707 559 707 567 699 c 128,-1,49
 575 691 575 691 602 671 c 128,-1,50
 629 651 629 651 657 635.5 c 128,-1,51
 685 620 685 620 727 607.5 c 128,-1,52
 769 595 769 595 809 596 c 1,53,-1
 845 632 l 1,54,-1
 845 436 l 1,43,-1
872 642 m 1,55,-1
 818 728 l 1,56,-1
 872 814 l 1,57,-1
 926 728 l 1,58,-1
 872 642 l 1,55,-1
924 473 m 1,59,-1
 870 559 l 1,60,-1
 924 645 l 1,61,-1
 978 559 l 1,62,-1
 924 473 l 1,59,-1
EndSplineSet
EndChar

StartChar: Japan1.893
Encoding: 12404 12404 895
Width: 1000
GlyphClass: 2
Flags: W
LayerCount: 2
Fore
SplineSet
671 753 m 128,-1,1
 671 796 671 796 701.5 827 c 128,-1,2
 732 858 732 858 776 858 c 128,-1,3
 820 858 820 858 850.5 827 c 128,-1,4
 881 796 881 796 881 753 c 128,-1,5
 881 710 881 710 850.5 679 c 128,-1,6
 820 648 820 648 776 648 c 128,-1,7
 732 648 732 648 701.5 679 c 128,-1,0
 671 710 671 710 671 753 c 128,-1,1
719 753 m 0,8,9
 719 730 719 730 736 713 c 128,-1,10
 753 696 753 696 776 696 c 0,11,12
 800 696 800 696 816.5 713 c 128,-1,13
 833 730 833 730 833 753 c 0,14,15
 833 777 833 777 816.5 793.5 c 128,-1,16
 800 810 800 810 776 810 c 0,17,18
 753 810 753 810 736 793.5 c 128,-1,19
 719 777 719 777 719 753 c 0,8,9
776 430 m 1,20,-1
 739 394 l 1,21,-1
 740 360 l 2,22,23
 740 306 740 306 739 268 c 128,-1,24
 738 230 738 230 732.5 183 c 128,-1,25
 727 136 727 136 717 104 c 128,-1,26
 707 72 707 72 688 39.5 c 128,-1,27
 669 7 669 7 642 -12.5 c 128,-1,28
 615 -32 615 -32 575.5 -44 c 128,-1,29
 536 -56 536 -56 485 -55 c 0,30,31
 430 -54 430 -54 387 -38.5 c 128,-1,32
 344 -23 344 -23 318 3 c 128,-1,33
 292 29 292 29 273.5 63 c 128,-1,34
 255 97 255 97 248 134.5 c 128,-1,35
 241 172 241 172 236 211 c 128,-1,36
 231 250 231 250 232.5 286.5 c 128,-1,37
 234 323 234 323 233 354 c 2,38,-1
 233 636 l 1,39,-1
 174 636 l 1,40,-1
 138 600 l 1,41,-1
 138 776 l 1,42,-1
 174 740 l 1,43,-1
 410 740 l 1,44,-1
 446 776 l 1,45,-1
 446 600 l 1,46,-1
 410 636 l 1,47,-1
 355 636 l 1,48,-1
 355 352 l 2,49,50
 354 282 354 282 355.5 241 c 128,-1,51
 357 200 357 200 364 160.5 c 128,-1,52
 371 121 371 121 385.5 102 c 128,-1,53
 400 83 400 83 425 71 c 128,-1,54
 450 59 450 59 487 59 c 128,-1,55
 524 59 524 59 548 69 c 128,-1,56
 572 79 572 79 587.5 98.5 c 128,-1,57
 603 118 603 118 610.5 156.5 c 128,-1,58
 618 195 618 195 620.5 240.5 c 128,-1,59
 623 286 623 286 622 358 c 2,60,-1
 622 394 l 1,61,-1
 584 430 l 1,62,-1
 776 430 l 1,20,-1
861 428 m 1,63,-1
 825 464 l 1,64,65
 719 459 719 459 646.5 523 c 128,-1,66
 574 587 574 587 570 704 c 1,67,68
 575 699 575 699 583 691 c 128,-1,69
 591 683 591 683 618 663 c 128,-1,70
 645 643 645 643 673 627.5 c 128,-1,71
 701 612 701 612 743 599.5 c 128,-1,72
 785 587 785 587 825 588 c 1,73,-1
 861 624 l 1,74,-1
 861 428 l 1,63,-1
EndSplineSet
EndChar

StartChar: Japan1.894
Encoding: 12405 12405 896
Width: 1000
GlyphClass: 2
Flags: W
LayerCount: 2
Fore
SplineSet
671 626 m 1,0,-1
 635 662 l 1,1,-1
 315 662 l 1,2,-1
 279 626 l 1,3,-1
 279 812 l 1,4,-1
 315 775 l 1,5,-1
 635 775 l 1,6,-1
 671 811 l 1,7,-1
 671 626 l 1,0,-1
588 -39 m 1,8,-1
 387 -39 l 1,9,-1
 351 -75 l 1,10,-1
 351 119 l 1,11,-1
 387 83 l 1,12,-1
 495 83 l 1,13,14
 509 126 509 126 511.5 189.5 c 128,-1,15
 514 253 514 253 505 323.5 c 128,-1,16
 496 394 496 394 470.5 469.5 c 128,-1,17
 445 545 445 545 408 606 c 1,18,19
 566 525 566 525 616.5 355.5 c 128,-1,20
 667 186 667 186 588 -39 c 1,8,-1
123 80 m 1,21,-1
 158 116 l 1,22,23
 152 264 152 264 213 356 c 128,-1,24
 274 448 274 448 362 470 c 1,25,26
 331 434 331 434 312.5 375 c 128,-1,27
 294 316 294 316 290.5 273.5 c 128,-1,28
 287 231 287 231 286 174 c 2,29,-1
 286 116 l 1,30,-1
 322 80 l 1,31,-1
 123 80 l 1,21,-1
909 80 m 1,32,-1
 709 80 l 1,33,-1
 745 116 l 2,34,35
 745 120 745 120 745.5 158.5 c 128,-1,36
 746 197 746 197 743.5 231.5 c 128,-1,37
 741 266 741 266 735 312 c 128,-1,38
 729 358 729 358 712 399.5 c 128,-1,39
 695 441 695 441 669 470 c 1,40,41
 758 448 758 448 818.5 356 c 128,-1,42
 879 264 879 264 873 116 c 1,43,-1
 909 80 l 1,32,-1
EndSplineSet
EndChar

StartChar: Japan1.895
Encoding: 12406 12406 897
Width: 1000
GlyphClass: 2
Flags: W
LayerCount: 2
Fore
SplineSet
671 626 m 1,0,-1
 635 662 l 1,1,-1
 315 662 l 1,2,-1
 279 626 l 1,3,-1
 279 812 l 1,4,-1
 315 775 l 1,5,-1
 635 775 l 1,6,-1
 671 811 l 1,7,-1
 671 626 l 1,0,-1
588 -39 m 1,8,-1
 387 -39 l 1,9,-1
 351 -75 l 1,10,-1
 351 119 l 1,11,-1
 387 83 l 1,12,-1
 495 83 l 1,13,14
 509 126 509 126 511.5 189.5 c 128,-1,15
 514 253 514 253 505 323.5 c 128,-1,16
 496 394 496 394 470.5 469.5 c 128,-1,17
 445 545 445 545 408 606 c 1,18,19
 566 525 566 525 616.5 355.5 c 128,-1,20
 667 186 667 186 588 -39 c 1,8,-1
123 80 m 1,21,-1
 158 116 l 1,22,23
 152 264 152 264 213 356 c 128,-1,24
 274 448 274 448 362 470 c 1,25,26
 331 434 331 434 312.5 375 c 128,-1,27
 294 316 294 316 290.5 273.5 c 128,-1,28
 287 231 287 231 286 174 c 2,29,-1
 286 116 l 1,30,-1
 322 80 l 1,31,-1
 123 80 l 1,21,-1
909 80 m 1,32,-1
 709 80 l 1,33,-1
 745 116 l 2,34,35
 745 120 745 120 745.5 158.5 c 128,-1,36
 746 197 746 197 743.5 231.5 c 128,-1,37
 741 266 741 266 735 312 c 128,-1,38
 729 358 729 358 712 399.5 c 128,-1,39
 695 441 695 441 669 470 c 1,40,41
 758 448 758 448 818.5 356 c 128,-1,42
 879 264 879 264 873 116 c 1,43,-1
 909 80 l 1,32,-1
769 614 m 1,44,-1
 715 700 l 1,45,-1
 769 786 l 1,46,-1
 823 700 l 1,47,-1
 769 614 l 1,44,-1
821 445 m 1,48,-1
 767 531 l 1,49,-1
 821 617 l 1,50,-1
 875 531 l 1,51,-1
 821 445 l 1,48,-1
EndSplineSet
EndChar

StartChar: Japan1.896
Encoding: 12407 12407 898
Width: 1000
GlyphClass: 2
Flags: W
LayerCount: 2
Fore
SplineSet
698 577 m 128,-1,1
 698 620 698 620 729 651 c 128,-1,2
 760 682 760 682 803 682 c 128,-1,3
 846 682 846 682 877 651 c 128,-1,4
 908 620 908 620 908 577 c 128,-1,5
 908 534 908 534 877 503 c 128,-1,6
 846 472 846 472 803 472 c 128,-1,7
 760 472 760 472 729 503 c 128,-1,0
 698 534 698 534 698 577 c 128,-1,1
746 577 m 0,8,9
 746 554 746 554 763 537 c 128,-1,10
 780 520 780 520 803 520 c 0,11,12
 827 520 827 520 843.5 537 c 128,-1,13
 860 554 860 554 860 577 c 0,14,15
 860 601 860 601 843.5 617.5 c 128,-1,16
 827 634 827 634 803 634 c 0,17,18
 780 634 780 634 763 617.5 c 128,-1,19
 746 601 746 601 746 577 c 0,8,9
671 626 m 1,20,-1
 635 662 l 1,21,-1
 315 662 l 1,22,-1
 279 626 l 1,23,-1
 279 812 l 1,24,-1
 315 775 l 1,25,-1
 635 775 l 1,26,-1
 671 811 l 1,27,-1
 671 626 l 1,20,-1
588 -39 m 1,28,-1
 387 -39 l 1,29,-1
 351 -75 l 1,30,-1
 351 119 l 1,31,-1
 387 83 l 1,32,-1
 495 83 l 1,33,34
 509 126 509 126 511.5 189.5 c 128,-1,35
 514 253 514 253 505 323.5 c 128,-1,36
 496 394 496 394 470.5 469.5 c 128,-1,37
 445 545 445 545 408 606 c 1,38,39
 566 525 566 525 616.5 355.5 c 128,-1,40
 667 186 667 186 588 -39 c 1,28,-1
123 80 m 1,41,-1
 158 116 l 1,42,43
 152 264 152 264 213 356 c 128,-1,44
 274 448 274 448 362 470 c 1,45,46
 331 434 331 434 312.5 375 c 128,-1,47
 294 316 294 316 290.5 273.5 c 128,-1,48
 287 231 287 231 286 174 c 2,49,-1
 286 116 l 1,50,-1
 322 80 l 1,51,-1
 123 80 l 1,41,-1
909 80 m 1,52,-1
 709 80 l 1,53,-1
 745 116 l 2,54,55
 745 120 745 120 745.5 158.5 c 128,-1,56
 746 197 746 197 743.5 231.5 c 128,-1,57
 741 266 741 266 735 312 c 128,-1,58
 729 358 729 358 712 399.5 c 128,-1,59
 695 441 695 441 669 470 c 1,60,61
 758 448 758 448 818.5 356 c 128,-1,62
 879 264 879 264 873 116 c 1,63,-1
 909 80 l 1,52,-1
EndSplineSet
EndChar

StartChar: Japan1.897
Encoding: 12408 12408 899
Width: 1000
GlyphClass: 2
Flags: W
LayerCount: 2
Fore
SplineSet
924 160 m 1,0,-1
 758 30 l 1,1,-1
 767 87 l 1,2,-1
 430 518 l 1,3,-1
 239 295 l 1,4,-1
 241 235 l 1,5,-1
 82 378 l 1,6,-1
 142 380 l 1,7,-1
 441 715 l 1,8,-1
 869 166 l 1,9,-1
 924 160 l 1,0,-1
EndSplineSet
EndChar

StartChar: Japan1.898
Encoding: 12409 12409 900
Width: 1000
GlyphClass: 2
Flags: W
LayerCount: 2
Fore
SplineSet
924 160 m 1,0,-1
 758 30 l 1,1,-1
 767 87 l 1,2,-1
 430 518 l 1,3,-1
 239 295 l 1,4,-1
 241 235 l 1,5,-1
 82 378 l 1,6,-1
 142 380 l 1,7,-1
 441 715 l 1,8,-1
 869 166 l 1,9,-1
 924 160 l 1,0,-1
652 552 m 1,10,-1
 598 638 l 1,11,-1
 652 724 l 1,12,-1
 706 638 l 1,13,-1
 652 552 l 1,10,-1
756 414 m 1,14,-1
 702 500 l 1,15,-1
 756 586 l 1,16,-1
 810 500 l 1,17,-1
 756 414 l 1,14,-1
EndSplineSet
EndChar

StartChar: Japan1.899
Encoding: 12410 12410 901
Width: 1000
GlyphClass: 2
Flags: W
LayerCount: 2
Fore
SplineSet
649 571 m 128,-1,1
 649 617 649 617 681 649 c 128,-1,2
 713 681 713 681 759 681 c 128,-1,3
 805 681 805 681 837 649 c 128,-1,4
 869 617 869 617 869 571 c 128,-1,5
 869 525 869 525 837 493 c 128,-1,6
 805 461 805 461 759 461 c 128,-1,7
 713 461 713 461 681 493 c 128,-1,0
 649 525 649 525 649 571 c 128,-1,1
699 571 m 128,-1,9
 699 546 699 546 716.5 528.5 c 128,-1,10
 734 511 734 511 759 511 c 128,-1,11
 784 511 784 511 801.5 528.5 c 128,-1,12
 819 546 819 546 819 571 c 128,-1,13
 819 596 819 596 801.5 613.5 c 128,-1,14
 784 631 784 631 759 631 c 128,-1,15
 734 631 734 631 716.5 613.5 c 128,-1,8
 699 596 699 596 699 571 c 128,-1,9
924 160 m 1,16,-1
 758 30 l 1,17,-1
 767 87 l 1,18,-1
 430 518 l 1,19,-1
 239 295 l 1,20,-1
 241 235 l 1,21,-1
 82 378 l 1,22,-1
 142 380 l 1,23,-1
 441 715 l 1,24,-1
 869 166 l 1,25,-1
 924 160 l 1,16,-1
EndSplineSet
EndChar

StartChar: Japan1.900
Encoding: 12411 12411 902
Width: 1000
GlyphClass: 2
Flags: W
LayerCount: 2
Fore
SplineSet
836 624 m 1,0,-1
 800 660 l 1,1,-1
 411 660 l 1,2,-1
 375 624 l 1,3,-1
 375 802 l 1,4,-1
 411 766 l 1,5,-1
 800 766 l 1,6,-1
 836 802 l 1,7,-1
 836 624 l 1,0,-1
333 -1 m 1,8,-1
 146 -1 l 1,9,-1
 182 35 l 1,10,-1
 182 718 l 1,11,-1
 146 754 l 1,12,-1
 333 754 l 1,13,-1
 297 718 l 1,14,-1
 297 35 l 1,15,-1
 333 -1 l 1,8,-1
694 454 m 1,16,-1
 694 368 l 1,17,18
 772 358 772 358 820 292 c 128,-1,19
 868 226 868 226 850 133 c 1,20,21
 823 192 823 192 786 221 c 128,-1,22
 749 250 749 250 694 257 c 1,23,-1
 694 -40 l 1,24,-1
 512 -40 l 1,25,26
 447 -2 447 -2 422.5 59 c 128,-1,27
 398 120 398 120 412.5 178.5 c 128,-1,28
 427 237 427 237 471 287 c 128,-1,29
 515 337 515 337 577 357 c 1,30,-1
 577 454 l 1,31,-1
 524 454 l 2,32,33
 518 454 518 454 508 455.5 c 128,-1,34
 498 457 498 457 473 463.5 c 128,-1,35
 448 470 448 470 429 480.5 c 128,-1,36
 410 491 410 491 394 512 c 128,-1,37
 378 533 378 533 378 560 c 1,38,-1
 800 560 l 1,39,-1
 836 596 l 1,40,-1
 836 418 l 1,41,-1
 800 454 l 1,42,-1
 694 454 l 1,16,-1
577 64 m 1,43,-1
 577 233 l 1,44,45
 534 203 534 203 524 151.5 c 128,-1,46
 514 100 514 100 549 64 c 1,47,-1
 577 64 l 1,43,-1
EndSplineSet
EndChar

StartChar: Japan1.901
Encoding: 12412 12412 903
Width: 1000
GlyphClass: 2
Flags: W
LayerCount: 2
Fore
SplineSet
804 624 m 1,0,-1
 768 660 l 1,1,-1
 411 660 l 1,2,-1
 375 624 l 1,3,-1
 375 802 l 1,4,-1
 411 766 l 1,5,-1
 768 766 l 1,6,-1
 804 802 l 1,7,-1
 804 624 l 1,0,-1
333 -1 m 1,8,-1
 146 -1 l 1,9,-1
 182 35 l 1,10,-1
 182 718 l 1,11,-1
 146 754 l 1,12,-1
 333 754 l 1,13,-1
 297 718 l 1,14,-1
 297 35 l 1,15,-1
 333 -1 l 1,8,-1
694 454 m 1,16,-1
 694 368 l 1,17,18
 772 358 772 358 820 292 c 128,-1,19
 868 226 868 226 850 133 c 1,20,21
 823 192 823 192 786 221 c 128,-1,22
 749 250 749 250 694 257 c 1,23,-1
 694 -40 l 1,24,-1
 512 -40 l 1,25,26
 447 -2 447 -2 422.5 59 c 128,-1,27
 398 120 398 120 412.5 178.5 c 128,-1,28
 427 237 427 237 471 287 c 128,-1,29
 515 337 515 337 577 357 c 1,30,-1
 577 454 l 1,31,-1
 524 454 l 2,32,33
 518 454 518 454 508 455.5 c 128,-1,34
 498 457 498 457 473 463.5 c 128,-1,35
 448 470 448 470 429 480.5 c 128,-1,36
 410 491 410 491 394 512 c 128,-1,37
 378 533 378 533 378 560 c 1,38,-1
 800 560 l 1,39,-1
 836 596 l 1,40,-1
 836 418 l 1,41,-1
 800 454 l 1,42,-1
 694 454 l 1,16,-1
577 64 m 1,43,-1
 577 233 l 1,44,45
 534 203 534 203 524 151.5 c 128,-1,46
 514 100 514 100 549 64 c 1,47,-1
 577 64 l 1,43,-1
890 638 m 1,48,-1
 836 724 l 1,49,-1
 890 810 l 1,50,-1
 944 724 l 1,51,-1
 890 638 l 1,48,-1
942 469 m 1,52,-1
 888 555 l 1,53,-1
 942 641 l 1,54,-1
 996 555 l 1,55,-1
 942 469 l 1,52,-1
EndSplineSet
EndChar

StartChar: Japan1.902
Encoding: 12413 12413 904
Width: 1000
GlyphClass: 2
Flags: W
LayerCount: 2
Fore
SplineSet
792 734 m 128,-1,1
 792 775 792 775 821.5 804.5 c 128,-1,2
 851 834 851 834 892 834 c 128,-1,3
 933 834 933 834 962.5 804.5 c 128,-1,4
 992 775 992 775 992 734 c 128,-1,5
 992 693 992 693 962.5 663.5 c 128,-1,6
 933 634 933 634 892 634 c 128,-1,7
 851 634 851 634 821.5 663.5 c 128,-1,0
 792 693 792 693 792 734 c 128,-1,1
838 734 m 128,-1,9
 838 712 838 712 854 696 c 128,-1,10
 870 680 870 680 892 680 c 128,-1,11
 914 680 914 680 930 696 c 128,-1,12
 946 712 946 712 946 734 c 128,-1,13
 946 756 946 756 930 772 c 128,-1,14
 914 788 914 788 892 788 c 128,-1,15
 870 788 870 788 854 772 c 128,-1,8
 838 756 838 756 838 734 c 128,-1,9
767 624 m 1,16,-1
 731 660 l 1,17,-1
 411 660 l 1,18,-1
 375 624 l 1,19,-1
 375 802 l 1,20,-1
 411 766 l 1,21,-1
 731 766 l 1,22,-1
 767 802 l 1,23,-1
 767 624 l 1,16,-1
333 -1 m 1,24,-1
 146 -1 l 1,25,-1
 182 35 l 1,26,-1
 182 718 l 1,27,-1
 146 754 l 1,28,-1
 333 754 l 1,29,-1
 297 718 l 1,30,-1
 297 35 l 1,31,-1
 333 -1 l 1,24,-1
694 454 m 1,32,-1
 694 368 l 1,33,34
 772 358 772 358 820 292 c 128,-1,35
 868 226 868 226 850 133 c 1,36,37
 823 192 823 192 786 221 c 128,-1,38
 749 250 749 250 694 257 c 1,39,-1
 694 -40 l 1,40,-1
 512 -40 l 1,41,42
 447 -2 447 -2 422.5 59 c 128,-1,43
 398 120 398 120 412.5 178.5 c 128,-1,44
 427 237 427 237 471 287 c 128,-1,45
 515 337 515 337 577 357 c 1,46,-1
 577 454 l 1,47,-1
 524 454 l 2,48,49
 518 454 518 454 508 455.5 c 128,-1,50
 498 457 498 457 473 463.5 c 128,-1,51
 448 470 448 470 429 480.5 c 128,-1,52
 410 491 410 491 394 512 c 128,-1,53
 378 533 378 533 378 560 c 1,54,-1
 800 560 l 1,55,-1
 836 596 l 1,56,-1
 836 418 l 1,57,-1
 800 454 l 1,58,-1
 694 454 l 1,32,-1
577 64 m 1,59,-1
 577 233 l 1,60,61
 534 203 534 203 524 151.5 c 128,-1,62
 514 100 514 100 549 64 c 1,63,-1
 577 64 l 1,59,-1
EndSplineSet
EndChar

StartChar: Japan1.903
Encoding: 12414 12414 905
Width: 1000
GlyphClass: 2
Flags: W
LayerCount: 2
Fore
SplineSet
809 381 m 1,0,-1
 773 417 l 1,1,-1
 584 417 l 1,2,-1
 584 352 l 1,3,4
 672 338 672 338 723 275.5 c 128,-1,5
 774 213 774 213 762 113 c 1,6,7
 715 238 715 238 584 246 c 1,8,-1
 584 -53 l 1,9,-1
 389 -53 l 1,10,11
 334 -21 334 -21 305 26.5 c 128,-1,12
 276 74 276 74 277 123.5 c 128,-1,13
 278 173 278 173 299.5 219 c 128,-1,14
 321 265 321 265 366 300 c 128,-1,15
 411 335 411 335 470 349 c 1,16,-1
 470 417 l 1,17,-1
 242 417 l 1,18,-1
 206 382 l 1,19,-1
 206 560 l 1,20,-1
 242 524 l 1,21,-1
 470 524 l 1,22,-1
 470 610 l 1,23,-1
 242 610 l 1,24,-1
 206 575 l 1,25,-1
 206 753 l 1,26,-1
 242 717 l 1,27,-1
 470 717 l 1,28,-1
 470 785 l 1,29,-1
 434 821 l 1,30,-1
 619 821 l 1,31,-1
 584 785 l 1,32,-1
 584 717 l 1,33,-1
 773 717 l 1,34,-1
 809 753 l 1,35,-1
 809 575 l 1,36,-1
 773 610 l 1,37,-1
 584 610 l 1,38,-1
 584 524 l 1,39,-1
 773 524 l 1,40,-1
 809 560 l 1,41,-1
 809 381 l 1,0,-1
470 52 m 1,42,-1
 470 231 l 1,43,44
 412 205 412 205 395.5 148 c 128,-1,45
 379 91 379 91 423 53 c 1,46,-1
 470 52 l 1,42,-1
EndSplineSet
EndChar

StartChar: Japan1.904
Encoding: 12415 12415 906
Width: 1000
GlyphClass: 2
Flags: W
LayerCount: 2
Fore
SplineSet
837 325 m 1,0,-1
 801 361 l 1,1,-1
 734 361 l 1,2,3
 734 249 734 249 712.5 165.5 c 128,-1,4
 691 82 691 82 653 33.5 c 128,-1,5
 615 -15 615 -15 571 -39.5 c 128,-1,6
 527 -64 527 -64 474 -70 c 1,7,8
 518 -37 518 -37 547.5 12.5 c 128,-1,9
 577 62 577 62 591.5 122.5 c 128,-1,10
 606 183 606 183 612 238.5 c 128,-1,11
 618 294 618 294 618 361 c 1,12,-1
 477 361 l 1,13,-1
 477 72 l 1,14,-1
 283 72 l 1,15,16
 214 114 214 114 188 175 c 128,-1,17
 162 236 162 236 177.5 292 c 128,-1,18
 193 348 193 348 242 395.5 c 128,-1,19
 291 443 291 443 361 461 c 1,20,-1
 361 644 l 1,21,-1
 232 644 l 1,22,-1
 196 608 l 1,23,-1
 196 796 l 1,24,-1
 232 760 l 1,25,-1
 477 760 l 1,26,-1
 477 472 l 1,27,-1
 618 472 l 1,28,-1
 618 656 l 1,29,-1
 583 692 l 1,30,-1
 770 692 l 1,31,-1
 734 656 l 1,32,-1
 734 472 l 1,33,-1
 801 472 l 1,34,-1
 837 508 l 1,35,-1
 837 325 l 1,0,-1
361 183 m 1,36,-1
 361 344 l 1,37,38
 303 322 303 322 288 270 c 128,-1,39
 273 218 273 218 316 183 c 1,40,-1
 361 183 l 1,36,-1
EndSplineSet
EndChar

StartChar: Japan1.905
Encoding: 12416 12416 907
Width: 1000
GlyphClass: 2
Flags: W
LayerCount: 2
Fore
SplineSet
826 343 m 1,0,-1
 791 307 l 1,1,-1
 791 -13 l 1,2,-1
 338 -13 l 1,3,-1
 338 163 l 1,4,-1
 209 163 l 1,5,6
 153 211 153 211 136.5 277 c 128,-1,7
 120 343 120 343 139 401 c 128,-1,8
 158 459 158 459 205.5 504.5 c 128,-1,9
 253 550 253 550 316 562 c 1,10,11
 311 556 311 556 302.5 545 c 128,-1,12
 294 534 294 534 275 501 c 128,-1,13
 256 468 256 468 245.5 435 c 128,-1,14
 235 402 235 402 236 357.5 c 128,-1,15
 237 313 237 313 257 274 c 1,16,-1
 338 274 l 1,17,-1
 338 595 l 1,18,-1
 190 595 l 1,19,-1
 154 560 l 1,20,-1
 154 738 l 1,21,-1
 190 702 l 1,22,-1
 338 702 l 1,23,-1
 338 790 l 1,24,-1
 303 825 l 1,25,-1
 489 825 l 1,26,-1
 453 790 l 1,27,-1
 453 702 l 1,28,-1
 607 702 l 1,29,-1
 643 738 l 1,30,-1
 643 559 l 1,31,-1
 607 595 l 1,32,-1
 453 595 l 1,33,-1
 453 97 l 1,34,-1
 674 97 l 1,35,-1
 674 307 l 1,36,-1
 638 343 l 1,37,-1
 826 343 l 1,0,-1
873 625 m 1,38,-1
 837 589 l 1,39,-1
 837 380 l 1,40,41
 791 401 791 401 761.5 453 c 128,-1,42
 732 505 732 505 726 547 c 2,43,-1
 719 589 l 1,44,-1
 683 625 l 1,45,-1
 873 625 l 1,38,-1
EndSplineSet
EndChar

StartChar: Japan1.906
Encoding: 12417 12417 908
Width: 1000
GlyphClass: 2
Flags: W
LayerCount: 2
Fore
SplineSet
554 570 m 1,0,-1
 480 415 l 1,1,-1
 480 573 l 1,2,3
 514 579 514 579 554 570 c 1,0,-1
438 330 m 1,4,-1
 348 151 l 1,5,6
 282 219 282 219 285 327.5 c 128,-1,7
 288 436 288 436 366 514 c 1,8,-1
 366 365 l 1,9,-1
 330 330 l 1,10,-1
 438 330 l 1,4,-1
688 639 m 1,11,12
 690 649 690 649 691.5 666.5 c 128,-1,13
 693 684 693 684 687.5 729 c 128,-1,14
 682 774 682 774 665 809 c 1,15,-1
 604 676 l 1,16,17
 548 692 548 692 480 688 c 1,18,-1
 480 770 l 1,19,-1
 515 806 l 1,20,-1
 331 806 l 1,21,-1
 366 770 l 1,22,-1
 366 653 l 1,23,24
 240 591 240 591 192 447 c 0,25,26
 147 314 147 314 196.5 181.5 c 128,-1,27
 246 49 246 49 386 -19 c 1,28,-1
 649 519 l 1,29,30
 721 442 721 442 718 331 c 0,31,32
 716 225 716 225 670.5 132.5 c 128,-1,33
 625 40 625 40 514 -45 c 1,34,35
 599 -33 599 -33 663.5 5.5 c 128,-1,36
 728 44 728 44 764 98 c 128,-1,37
 800 152 800 152 818 210.5 c 128,-1,38
 836 269 836 269 837 330 c 0,39,40
 839 423 839 423 798.5 507 c 128,-1,41
 758 591 758 591 688 639 c 1,11,12
EndSplineSet
EndChar

StartChar: Japan1.907
Encoding: 12418 12418 909
Width: 1000
GlyphClass: 2
Flags: W
LayerCount: 2
Fore
SplineSet
801 313 m 1,0,-1
 765 349 l 1,1,-1
 520 348 l 1,2,3
 520 274 520 274 528.5 217 c 128,-1,4
 537 160 537 160 558 106.5 c 128,-1,5
 579 53 579 53 619 12.5 c 128,-1,6
 659 -28 659 -28 718 -56 c 1,7,8
 639 -55 639 -55 585.5 -39 c 128,-1,9
 532 -23 532 -23 487 19.5 c 128,-1,10
 442 62 442 62 419.5 143.5 c 128,-1,11
 397 225 397 225 395 349 c 1,12,-1
 251 349 l 1,13,-1
 215 314 l 1,14,-1
 215 492 l 1,15,-1
 251 456 l 1,16,-1
 395 456 l 1,17,-1
 395 554 l 1,18,-1
 251 554 l 1,19,-1
 215 519 l 1,20,-1
 215 697 l 1,21,-1
 251 661 l 1,22,-1
 395 661 l 1,23,-1
 395 781 l 1,24,-1
 359 817 l 1,25,-1
 556 817 l 1,26,-1
 520 781 l 1,27,-1
 520 661 l 1,28,-1
 765 661 l 1,29,-1
 801 697 l 1,30,-1
 801 519 l 1,31,-1
 765 554 l 1,32,-1
 520 554 l 1,33,-1
 520 456 l 1,34,-1
 765 456 l 1,35,-1
 801 492 l 1,36,-1
 801 313 l 1,0,-1
EndSplineSet
EndChar

StartChar: Japan1.908
Encoding: 12419 12419 910
Width: 1000
GlyphClass: 2
Flags: W
LayerCount: 2
Fore
SplineSet
434 646 m 1,0,-1
 434 482 l 1,1,-1
 573 482 l 2,2,3
 678 482 678 482 718 470 c 0,4,5
 773 455 773 455 799.5 408 c 128,-1,6
 826 361 826 361 818 310 c 128,-1,7
 810 259 810 259 775 228 c 0,8,9
 731 189 731 189 671.5 180 c 128,-1,10
 612 171 612 171 531 189 c 1,11,12
 600 211 600 211 639 234.5 c 128,-1,13
 678 258 678 258 699 295 c 1,14,15
 712 309 712 309 710.5 335 c 128,-1,16
 709 361 709 361 691 373 c 0,17,18
 675 380 675 380 630.5 382 c 128,-1,19
 586 384 586 384 434 382 c 1,20,-1
 434 -6 l 1,21,-1
 463 -35 l 1,22,-1
 292 -35 l 1,23,-1
 321 -6 l 1,24,-1
 321 379 l 1,25,-1
 228 379 l 1,26,-1
 198 346 l 1,27,-1
 198 513 l 1,28,-1
 228 483 l 1,29,-1
 321 483 l 1,30,-1
 321 646 l 1,31,-1
 292 675 l 1,32,-1
 463 675 l 1,33,-1
 434 646 l 1,0,-1
675 673 m 1,34,-1
 646 643 l 1,35,-1
 646 491 l 1,36,37
 619 504 619 504 598.5 524 c 128,-1,38
 578 544 578 544 569 564 c 128,-1,39
 560 584 560 584 554.5 602 c 128,-1,40
 549 620 549 620 548 632 c 2,41,-1
 548 643 l 1,42,-1
 519 673 l 1,43,-1
 675 673 l 1,34,-1
EndSplineSet
EndChar

StartChar: Japan1.909
Encoding: 12420 12420 911
Width: 1000
GlyphClass: 2
Flags: W
LayerCount: 2
Fore
SplineSet
419 780 m 1,0,-1
 419 580 l 1,1,-1
 538 581 l 2,2,3
 548 580 548 580 591.5 578 c 128,-1,4
 635 576 635 576 667 572.5 c 128,-1,5
 699 569 699 569 738.5 549.5 c 128,-1,6
 778 530 778 530 801 496 c 0,7,8
 827 463 827 463 832 415.5 c 128,-1,9
 837 368 837 368 819.5 322 c 128,-1,10
 802 276 802 276 761.5 238 c 128,-1,11
 721 200 721 200 656 186.5 c 128,-1,12
 591 173 591 173 501 192 c 1,13,14
 563 206 563 206 608 230.5 c 128,-1,15
 653 255 653 255 674.5 282 c 128,-1,16
 696 309 696 309 705.5 337.5 c 128,-1,17
 715 366 715 366 712.5 388.5 c 128,-1,18
 710 411 710 411 699 426 c 0,19,20
 687 444 687 444 660 452.5 c 128,-1,21
 633 461 633 461 610 462 c 128,-1,22
 587 463 587 463 538 463 c 0,23,24
 527 463 527 463 522 463 c 2,25,-1
 419 462 l 1,26,-1
 419 -1 l 1,27,-1
 455 -37 l 1,28,-1
 258 -37 l 1,29,-1
 294 -1 l 1,30,-1
 294 463 l 1,31,-1
 182 462 l 1,32,-1
 146 428 l 1,33,-1
 146 616 l 1,34,-1
 182 581 l 1,35,-1
 294 581 l 1,36,-1
 294 780 l 1,37,-1
 258 816 l 1,38,-1
 455 816 l 1,39,-1
 419 780 l 1,0,-1
684 812 m 1,40,-1
 648 776 l 1,41,-1
 648 596 l 1,42,43
 616 611 616 611 592.5 634.5 c 128,-1,44
 569 658 569 658 559 682 c 128,-1,45
 549 706 549 706 543.5 727.5 c 128,-1,46
 538 749 538 749 538 762 c 2,47,-1
 537 776 l 1,48,-1
 501 812 l 1,49,-1
 684 812 l 1,40,-1
EndSplineSet
EndChar

StartChar: Japan1.910
Encoding: 12421 12421 912
Width: 1000
GlyphClass: 2
Flags: W
LayerCount: 2
Fore
SplineSet
562 577 m 1,0,1
 662 568 662 568 721 498 c 128,-1,2
 780 428 780 428 782 332 c 0,3,4
 784 242 784 242 732.5 166.5 c 128,-1,5
 681 91 681 91 578 61 c 1,6,7
 631 127 631 127 655 189.5 c 128,-1,8
 679 252 679 252 675 328 c 0,9,10
 672 389 672 389 642.5 427 c 128,-1,11
 613 465 613 465 562 476 c 1,12,-1
 562 -1 l 1,13,-1
 594 -35 l 1,14,-1
 422 -35 l 1,15,-1
 454 -1 l 1,16,-1
 454 472 l 1,17,18
 412 454 412 454 380.5 414.5 c 128,-1,19
 349 375 349 375 341 317 c 1,20,-1
 341 125 l 1,21,-1
 372 93 l 1,22,-1
 205 93 l 1,23,-1
 236 125 l 1,24,-1
 236 578 l 1,25,-1
 205 612 l 1,26,-1
 372 612 l 1,27,-1
 341 578 l 1,28,-1
 341 511 l 1,29,30
 352 527 352 527 386 545 c 128,-1,31
 420 563 420 563 454 573 c 1,32,-1
 454 647 l 1,33,-1
 422 681 l 1,34,-1
 594 681 l 1,35,-1
 562 647 l 1,36,-1
 562 577 l 1,0,1
EndSplineSet
EndChar

StartChar: Japan1.911
Encoding: 12422 12422 913
Width: 1000
GlyphClass: 2
Flags: W
LayerCount: 2
Fore
SplineSet
570 698 m 1,0,-1
 570 792 l 1,1,-1
 606 827 l 1,2,-1
 419 827 l 1,3,-1
 455 792 l 1,4,-1
 455 693 l 1,5,-1
 454 693 l 1,6,7
 354 669 354 669 294 595 c 1,8,-1
 294 707 l 1,9,-1
 329 743 l 1,10,-1
 148 743 l 1,11,-1
 182 707 l 1,12,-1
 182 145 l 1,13,-1
 148 111 l 1,14,-1
 329 111 l 1,15,-1
 294 145 l 1,16,-1
 294 383 l 1,17,18
 304 459 304 459 348 512.5 c 128,-1,19
 392 566 392 566 455 586 c 1,20,-1
 455 -12 l 1,21,-1
 419 -47 l 1,22,-1
 606 -47 l 1,23,-1
 570 -12 l 1,24,-1
 570 591 l 1,25,26
 646 578 646 578 686.5 527 c 128,-1,27
 727 476 727 476 731 396 c 0,28,29
 739 216 739 216 610 83 c 1,30,31
 724 115 724 115 785.5 203.5 c 128,-1,32
 847 292 847 292 845 401 c 0,33,34
 843 520 843 520 769.5 603.5 c 128,-1,35
 696 687 696 687 570 698 c 1,0,-1
EndSplineSet
EndChar

StartChar: Japan1.912
Encoding: 12423 12423 914
Width: 1000
GlyphClass: 2
Flags: W
LayerCount: 2
Fore
SplineSet
548 453 m 1,0,-1
 548 327 l 1,1,2
 643 314 643 314 698 237.5 c 128,-1,3
 753 161 753 161 733 60 c 1,4,5
 705 126 705 126 661.5 166 c 128,-1,6
 618 206 618 206 548 220 c 1,7,-1
 548 -37 l 1,8,-1
 365 -37 l 1,9,10
 312 -10 312 -10 284 31 c 128,-1,11
 256 72 256 72 256 113 c 128,-1,12
 256 154 256 154 272 197 c 0,13,14
 293 244 293 244 336 278 c 128,-1,15
 379 312 379 312 438 324 c 1,16,-1
 438 644 l 1,17,-1
 404 678 l 1,18,-1
 581 678 l 1,19,-1
 548 644 l 1,20,-1
 548 561 l 1,21,-1
 694 561 l 1,22,-1
 728 594 l 1,23,-1
 728 420 l 1,24,-1
 694 453 l 1,25,-1
 548 453 l 1,0,-1
438 65 m 1,26,-1
 438 212 l 1,27,28
 384 191 384 191 368.5 143.5 c 128,-1,29
 353 96 353 96 394 65 c 1,30,-1
 438 65 l 1,26,-1
EndSplineSet
EndChar

StartChar: Japan1.913
Encoding: 12424 12424 915
Width: 1000
GlyphClass: 2
Flags: W
LayerCount: 2
Fore
SplineSet
548 557 m 1,0,-1
 548 387 l 1,1,2
 640 374 640 374 702.5 324 c 128,-1,3
 765 274 765 274 786 203.5 c 128,-1,4
 807 133 807 133 786 57 c 1,5,6
 757 141 757 141 696 196 c 128,-1,7
 635 251 635 251 548 267 c 1,8,-1
 548 -56 l 1,9,-1
 328 -56 l 1,10,11
 263 -22 263 -22 229 30.5 c 128,-1,12
 195 83 195 83 197.5 137.5 c 128,-1,13
 200 192 200 192 225.5 243 c 128,-1,14
 251 294 251 294 305 332.5 c 128,-1,15
 359 371 359 371 428 384 c 1,16,-1
 428 793 l 1,17,-1
 392 830 l 1,18,-1
 584 830 l 1,19,-1
 548 793 l 1,20,-1
 548 677 l 1,21,-1
 742 677 l 1,22,-1
 778 713 l 1,23,-1
 778 521 l 1,24,-1
 742 557 l 1,25,-1
 548 557 l 1,0,-1
428 59 m 1,26,-1
 428 260 l 1,27,28
 377 243 377 243 347 206.5 c 128,-1,29
 317 170 317 170 319.5 128.5 c 128,-1,30
 322 87 322 87 361 60 c 1,31,32
 371 60 371 60 394 59.5 c 128,-1,33
 417 59 417 59 428 59 c 1,26,-1
EndSplineSet
EndChar

StartChar: Japan1.914
Encoding: 12425 12425 916
Width: 1000
GlyphClass: 2
Flags: W
LayerCount: 2
Fore
SplineSet
758 641 m 1,0,-1
 722 677 l 1,1,-1
 272 677 l 1,2,-1
 235 642 l 1,3,-1
 235 820 l 1,4,-1
 272 785 l 1,5,-1
 722 785 l 1,6,-1
 758 821 l 1,7,-1
 758 641 l 1,0,-1
417 607 m 1,8,-1
 381 571 l 1,9,-1
 381 405 l 1,10,11
 651 469 651 469 742 343 c 0,12,13
 773 300 773 300 781.5 244.5 c 128,-1,14
 790 189 790 189 770 133 c 128,-1,15
 750 77 750 77 705.5 32 c 128,-1,16
 661 -13 661 -13 576.5 -38 c 128,-1,17
 492 -63 492 -63 382 -54 c 1,18,19
 467 -23 467 -23 527 16.5 c 128,-1,20
 587 56 587 56 614.5 92 c 128,-1,21
 642 128 642 128 652.5 164 c 128,-1,22
 663 200 663 200 658.5 225.5 c 128,-1,23
 654 251 654 251 641 268 c 0,24,25
 599 317 599 317 511 314 c 128,-1,26
 423 311 423 311 255 257 c 1,27,-1
 255 571 l 1,28,-1
 219 607 l 1,29,-1
 417 607 l 1,8,-1
EndSplineSet
EndChar

StartChar: Japan1.915
Encoding: 12426 12426 917
Width: 1000
GlyphClass: 2
Flags: W
LayerCount: 2
Fore
SplineSet
366 759 m 1,0,-1
 366 689 l 1,1,2
 427 795 427 795 535 795 c 0,3,4
 599 795 599 795 646.5 761 c 128,-1,5
 694 727 694 727 719.5 668.5 c 128,-1,6
 745 610 745 610 756 541.5 c 128,-1,7
 767 473 767 473 765 396 c 0,8,9
 760 221 760 221 676.5 98.5 c 128,-1,10
 593 -24 593 -24 431 -69 c 1,11,12
 529 16 529 16 584.5 135 c 128,-1,13
 640 254 640 254 642 397 c 0,14,15
 647 688 647 688 530 688 c 0,16,17
 466 688 466 688 416 595.5 c 128,-1,18
 366 503 366 503 366 380 c 2,19,-1
 366 265 l 1,20,-1
 402 229 l 1,21,-1
 217 229 l 1,22,-1
 253 265 l 1,23,-1
 253 759 l 1,24,-1
 217 795 l 1,25,-1
 402 795 l 1,26,-1
 366 759 l 1,0,-1
EndSplineSet
EndChar

StartChar: Japan1.916
Encoding: 12427 12427 918
Width: 1000
GlyphClass: 2
Flags: W
LayerCount: 2
Fore
SplineSet
782 642 m 1,0,-1
 746 678 l 1,1,-1
 269 678 l 1,2,-1
 233 642 l 1,3,-1
 233 821 l 1,4,-1
 269 785 l 1,5,-1
 746 785 l 1,6,-1
 782 821 l 1,7,-1
 782 642 l 1,0,-1
522 507 m 2,8,9
 642 507 642 507 722 431.5 c 128,-1,10
 802 356 802 356 805 233 c 0,11,12
 805 111 805 111 721 31.5 c 128,-1,13
 637 -48 637 -48 515 -48 c 2,14,-1
 315 -48 l 1,15,-1
 315 253 l 1,16,-1
 489 253 l 1,17,-1
 524 288 l 1,18,-1
 524 117 l 1,19,-1
 489 152 l 1,20,-1
 425 152 l 1,21,-1
 425 62 l 1,22,-1
 515 62 l 2,23,24
 585 62 585 62 634.5 113 c 128,-1,25
 684 164 684 164 684 233 c 0,26,27
 684 306 684 306 638 351.5 c 128,-1,28
 592 397 592 397 522 397 c 2,29,-1
 380 397 l 1,30,-1
 324 326 l 1,31,-1
 327 270 l 1,32,-1
 181 393 l 1,33,-1
 235 395 l 1,34,-1
 397 594 l 2,35,36
 399 596 399 596 402 599 c 128,-1,37
 405 602 405 602 415 611 c 128,-1,38
 425 620 425 620 436 627.5 c 128,-1,39
 447 635 447 635 464.5 643 c 128,-1,40
 482 651 482 651 499.5 655 c 128,-1,41
 517 659 517 659 539.5 658.5 c 128,-1,42
 562 658 562 658 584 651 c 1,43,-1
 467 507 l 1,44,-1
 522 507 l 2,8,9
EndSplineSet
EndChar

StartChar: Japan1.917
Encoding: 12428 12428 919
Width: 1000
GlyphClass: 2
Flags: W
LayerCount: 2
Fore
SplineSet
727 622 m 0,0,1
 738 611 738 611 746 596.5 c 128,-1,2
 754 582 754 582 759.5 569 c 128,-1,3
 765 556 765 556 768.5 534.5 c 128,-1,4
 772 513 772 513 774 499.5 c 128,-1,5
 776 486 776 486 776.5 457 c 128,-1,6
 777 428 777 428 777 414 c 128,-1,7
 777 400 777 400 777 364 c 128,-1,8
 777 328 777 328 777 313 c 2,9,-1
 779 203 l 2,10,11
 779 191 779 191 779 159.5 c 128,-1,12
 779 128 779 128 779 119.5 c 128,-1,13
 779 111 779 111 780 87 c 128,-1,14
 781 63 781 63 783.5 55.5 c 128,-1,15
 786 48 786 48 790 30.5 c 128,-1,16
 794 13 794 13 801 5 c 128,-1,17
 808 -3 808 -3 817.5 -16 c 128,-1,18
 827 -29 827 -29 840 -38.5 c 128,-1,19
 853 -48 853 -48 870 -58 c 1,20,21
 813 -54 813 -54 774 -41 c 128,-1,22
 735 -28 735 -28 712 -9 c 128,-1,23
 689 10 689 10 677 43.5 c 128,-1,24
 665 77 665 77 661.5 112.5 c 128,-1,25
 658 148 658 148 659 203 c 2,26,-1
 658 313 l 2,27,28
 658 329 658 329 658 353.5 c 128,-1,29
 658 378 658 378 658 391 c 128,-1,30
 658 404 658 404 658 423 c 128,-1,31
 658 442 658 442 657.5 452 c 128,-1,32
 657 462 657 462 655.5 476 c 128,-1,33
 654 490 654 490 652 498 c 128,-1,34
 650 506 650 506 647 515.5 c 128,-1,35
 644 525 644 525 640 531.5 c 128,-1,36
 636 538 636 538 631 543 c 0,37,38
 615 559 615 559 595.5 560 c 128,-1,39
 576 561 576 561 554 545 c 128,-1,40
 532 529 532 529 514.5 512.5 c 128,-1,41
 497 496 497 496 473.5 463.5 c 128,-1,42
 450 431 450 431 439 414.5 c 128,-1,43
 428 398 428 398 408 367 c 1,44,-1
 408 -17 l 1,45,-1
 444 -53 l 1,46,-1
 259 -53 l 1,47,-1
 295 -17 l 1,48,-1
 295 211 l 2,49,50
 293 209 293 209 289.5 206 c 128,-1,51
 286 203 286 203 274.5 193 c 128,-1,52
 263 183 263 183 252 175.5 c 128,-1,53
 241 168 241 168 223.5 158.5 c 128,-1,54
 206 149 206 149 190.5 145.5 c 128,-1,55
 175 142 175 142 155.5 140 c 128,-1,56
 136 138 136 138 121 146 c 1,57,-1
 295 410 l 1,58,-1
 295 546 l 1,59,-1
 206 546 l 1,60,-1
 154 510 l 1,61,-1
 154 688 l 1,62,-1
 206 652 l 1,63,-1
 295 652 l 1,64,-1
 295 770 l 1,65,-1
 259 822 l 1,66,-1
 444 822 l 1,67,-1
 408 770 l 1,68,-1
 408 551 l 1,69,70
 454 615 454 615 502 647.5 c 128,-1,71
 550 680 550 680 591.5 680.5 c 128,-1,72
 633 681 633 681 666 666 c 128,-1,73
 699 651 699 651 727 622 c 0,0,1
EndSplineSet
EndChar

StartChar: Japan1.918
Encoding: 12429 12429 920
Width: 1000
GlyphClass: 2
Flags: W
LayerCount: 2
Fore
SplineSet
789 644 m 1,0,-1
 753 680 l 1,1,-1
 260 680 l 1,2,-1
 224 644 l 1,3,-1
 224 823 l 1,4,-1
 260 787 l 1,5,-1
 753 787 l 1,6,-1
 789 823 l 1,7,-1
 789 644 l 1,0,-1
500 516 m 1,8,-1
 601 645 l 1,9,10
 567 654 567 654 538 651 c 128,-1,11
 509 648 509 648 485 636 c 128,-1,12
 461 624 461 624 444 611 c 128,-1,13
 427 598 427 598 418 588 c 2,14,-1
 408 578 l 1,15,-1
 241 367 l 1,16,-1
 186 360 l 1,17,-1
 336 244 l 1,18,-1
 329 299 l 2,19,20
 330 301 330 301 332.5 303.5 c 128,-1,21
 335 306 335 306 339.5 312 c 128,-1,22
 344 318 344 318 347 321.5 c 128,-1,23
 350 325 350 325 349 324 c 1,24,25
 386 371 386 371 443 392 c 128,-1,26
 500 413 500 413 552 404.5 c 128,-1,27
 604 396 604 396 640 352.5 c 128,-1,28
 676 309 676 309 673 238 c 0,29,30
 670 152 670 152 595.5 73 c 128,-1,31
 521 -6 521 -6 362 -57 c 1,32,33
 453 -74 453 -74 523.5 -61 c 128,-1,34
 594 -48 594 -48 644.5 -19 c 128,-1,35
 695 10 695 10 728 54.5 c 128,-1,36
 761 99 761 99 777 143.5 c 128,-1,37
 793 188 793 188 795 233 c 0,38,39
 800 372 800 372 710.5 453.5 c 128,-1,40
 621 535 621 535 500 516 c 1,8,-1
EndSplineSet
EndChar

StartChar: Japan1.919
Encoding: 12430 12430 921
Width: 1000
GlyphClass: 2
Flags: W
LayerCount: 2
Fore
SplineSet
456 625 m 1,0,-1
 456 469 l 1,1,2
 524 550 524 550 597 565 c 0,3,4
 639 573 639 573 678 560 c 128,-1,5
 717 547 717 547 745 515 c 0,6,7
 767 490 767 490 778 456 c 128,-1,8
 789 422 789 422 791 397.5 c 128,-1,9
 793 373 793 373 794 330 c 2,10,-1
 794 237 l 2,11,12
 794 91 794 91 724.5 28 c 128,-1,13
 655 -35 655 -35 544 -30 c 1,14,15
 569 -17 569 -17 589.5 -1.5 c 128,-1,16
 610 14 610 14 624.5 31 c 128,-1,17
 639 48 639 48 649.5 64 c 128,-1,18
 660 80 660 80 666 99 c 128,-1,19
 672 118 672 118 676 131.5 c 128,-1,20
 680 145 680 145 681.5 163.5 c 128,-1,21
 683 182 683 182 683.5 190.5 c 128,-1,22
 684 199 684 199 683.5 214.5 c 128,-1,23
 683 230 683 230 683 231 c 2,24,-1
 683 329 l 2,25,26
 682 366 682 366 681.5 381 c 128,-1,27
 681 396 681 396 676 415 c 128,-1,28
 671 434 671 434 662 445 c 0,29,30
 645 463 645 463 618 458 c 0,31,32
 597 454 597 454 574.5 438 c 128,-1,33
 552 422 552 422 528.5 394.5 c 128,-1,34
 505 367 505 367 491 348.5 c 128,-1,35
 477 330 477 330 456 300 c 1,36,-1
 456 -25 l 1,37,-1
 493 -58 l 1,38,-1
 313 -58 l 1,39,-1
 351 -25 l 1,40,-1
 351 175 l 2,41,42
 349 173 349 173 346 170 c 128,-1,43
 343 167 343 167 333.5 158.5 c 128,-1,44
 324 150 324 150 313.5 142.5 c 128,-1,45
 303 135 303 135 288.5 127 c 128,-1,46
 274 119 274 119 260 114.5 c 128,-1,47
 246 110 246 110 229.5 110 c 128,-1,48
 213 110 213 110 199 116 c 1,49,-1
 351 339 l 1,50,-1
 351 429 l 1,51,-1
 277 429 l 1,52,-1
 243 396 l 1,53,-1
 243 559 l 1,54,-1
 277 525 l 1,55,-1
 351 525 l 1,56,-1
 351 625 l 1,57,-1
 317 658 l 1,58,-1
 489 658 l 1,59,-1
 456 625 l 1,0,-1
EndSplineSet
EndChar

StartChar: Japan1.920
Encoding: 12431 12431 922
Width: 1000
GlyphClass: 2
Flags: W
LayerCount: 2
Fore
SplineSet
417 794 m 1,0,-1
 417 576 l 1,1,2
 463 634 463 634 500 666 c 128,-1,3
 537 698 537 698 585 708 c 0,4,5
 617 717 617 717 648.5 713 c 128,-1,6
 680 709 680 709 707.5 698.5 c 128,-1,7
 735 688 735 688 758 661 c 128,-1,8
 781 634 781 634 797.5 595 c 128,-1,9
 814 556 814 556 821.5 496 c 128,-1,10
 829 436 829 436 827 360 c 0,11,12
 825 291 825 291 811.5 229 c 128,-1,13
 798 167 798 167 770.5 108 c 128,-1,14
 743 49 743 49 694.5 8 c 128,-1,15
 646 -33 646 -33 581 -48 c 1,16,17
 648 16 648 16 676 129 c 128,-1,18
 704 242 704 242 704 362 c 0,19,20
 704 397 704 397 703.5 419.5 c 128,-1,21
 703 442 703 442 700 474 c 128,-1,22
 697 506 697 506 690.5 525.5 c 128,-1,23
 684 545 684 545 674 563 c 128,-1,24
 664 581 664 581 647 587.5 c 128,-1,25
 630 594 630 594 608 590 c 0,26,27
 597 588 597 588 585.5 582.5 c 128,-1,28
 574 577 574 577 562.5 568 c 128,-1,29
 551 559 551 559 541.5 551 c 128,-1,30
 532 543 532 543 519.5 529 c 128,-1,31
 507 515 507 515 499 505.5 c 128,-1,32
 491 496 491 496 478 477.5 c 128,-1,33
 465 459 465 459 458 449.5 c 128,-1,34
 451 440 451 440 437 419 c 128,-1,35
 423 398 423 398 417 390 c 1,36,-1
 417 -17 l 1,37,-1
 455 -53 l 1,38,-1
 264 -53 l 1,39,-1
 302 -17 l 1,40,-1
 302 239 l 2,41,42
 300 237 300 237 296.5 233 c 128,-1,43
 293 229 293 229 280.5 217.5 c 128,-1,44
 268 206 268 206 256 197.5 c 128,-1,45
 244 189 244 189 225 177.5 c 128,-1,46
 206 166 206 166 190 162 c 128,-1,47
 174 158 174 158 153 155.5 c 128,-1,48
 132 153 132 153 115 163 c 1,49,-1
 302 434 l 1,50,-1
 302 554 l 1,51,-1
 199 554 l 1,52,-1
 163 524 l 1,53,-1
 163 690 l 1,54,-1
 199 660 l 1,55,-1
 302 660 l 1,56,-1
 302 794 l 1,57,-1
 264 830 l 1,58,-1
 455 830 l 1,59,-1
 417 794 l 1,0,-1
EndSplineSet
EndChar

StartChar: Japan1.921
Encoding: 12432 12432 923
Width: 1000
GlyphClass: 2
Flags: W
LayerCount: 2
Fore
SplineSet
241 666 m 1,0,-1
 277 702 l 1,1,-1
 737 702 l 1,2,-1
 773 666 l 1,3,-1
 773 843 l 1,4,-1
 737 807 l 1,5,-1
 277 807 l 1,6,-1
 241 843 l 1,7,-1
 241 666 l 1,0,-1
608 25 m 1,8,-1
 576 25 l 1,9,10
 573 90 573 90 605.5 137 c 128,-1,11
 638 184 638 184 686 194 c 1,12,13
 659 78 659 78 608 25 c 1,8,-1
363 472 m 0,14,15
 411 511 411 511 475 514 c 1,16,-1
 325 96 l 1,17,18
 280 140 280 140 268.5 212 c 128,-1,19
 257 284 257 284 282.5 356.5 c 128,-1,20
 308 429 308 429 363 472 c 0,14,15
805 263 m 1,21,22
 810 334 810 334 785.5 405.5 c 128,-1,23
 761 477 761 477 709 531 c 0,24,25
 671 571 671 571 615 595 c 1,26,-1
 649 694 l 1,27,28
 612 696 612 696 578.5 677.5 c 128,-1,29
 545 659 545 659 530 640 c 2,30,-1
 514 621 l 1,31,32
 390 633 390 633 293 557 c 0,33,34
 233 509 233 509 196.5 439.5 c 128,-1,35
 160 370 160 370 155 295 c 128,-1,36
 150 220 150 220 169.5 148.5 c 128,-1,37
 189 77 189 77 243 18.5 c 128,-1,38
 297 -40 297 -40 376 -70 c 1,39,-1
 579 492 l 1,40,41
 629 468 629 468 657 426 c 0,42,43
 692 371 692 371 697 295 c 1,44,45
 647 295 647 295 599 269 c 0,46,47
 556 245 556 245 523 196 c 128,-1,48
 490 147 490 147 480 90 c 0,49,50
 473 48 473 48 482 -5 c 128,-1,51
 491 -58 491 -58 500 -66 c 1,52,-1
 648 -66 l 1,53,54
 704 -20 704 -20 737.5 31 c 128,-1,55
 771 82 771 82 791 174 c 1,56,57
 847 147 847 147 886 100 c 1,58,59
 886 202 886 202 805 263 c 1,21,22
EndSplineSet
EndChar

StartChar: Japan1.922
Encoding: 12433 12433 924
Width: 1000
GlyphClass: 2
Flags: W
LayerCount: 2
Fore
SplineSet
758 703 m 1,0,-1
 722 739 l 1,1,-1
 263 739 l 1,2,-1
 227 703 l 1,3,-1
 227 872 l 1,4,-1
 263 837 l 1,5,-1
 722 837 l 1,6,-1
 758 873 l 1,7,-1
 758 703 l 1,0,-1
227 425 m 1,8,-1
 259 456 l 1,9,10
 257 531 257 531 280 588 c 128,-1,11
 303 645 303 645 342 674.5 c 128,-1,12
 381 704 381 704 424 717 c 128,-1,13
 467 730 467 730 511 727 c 1,14,15
 415 671 415 671 385 593 c 1,16,17
 444 627 444 627 518 625 c 128,-1,18
 592 623 592 623 644 589 c 0,19,20
 718 539 718 539 726.5 452 c 128,-1,21
 735 365 735 365 671 299 c 0,22,23
 609 238 609 238 507 238 c 1,24,25
 461 234 461 234 432 238 c 1,26,-1
 241 -13 l 1,27,-1
 244 -73 l 1,28,-1
 101 49 l 1,29,-1
 161 52 l 1,30,-1
 350 292 l 1,31,32
 342 338 342 338 359 375 c 128,-1,33
 376 412 376 412 411 430 c 0,34,35
 468 458 468 458 516 424.5 c 128,-1,36
 564 391 564 391 559 348 c 1,37,38
 526 381 526 381 481 374.5 c 128,-1,39
 436 368 436 368 429 329 c 1,40,-1
 503 329 l 2,41,42
 557 332 557 332 598 371 c 0,43,44
 630 401 630 401 625 442.5 c 128,-1,45
 620 484 620 484 584 509 c 0,46,47
 558 530 558 530 511 535 c 128,-1,48
 464 540 464 540 420.5 520.5 c 128,-1,49
 377 501 377 501 367 456 c 1,50,-1
 395 425 l 1,51,-1
 227 425 l 1,8,-1
917 62 m 1,52,-1
 759 -62 l 1,53,-1
 769 -5 l 1,54,-1
 619 204 l 1,55,56
 651 214 651 214 687.5 203.5 c 128,-1,57
 724 193 724 193 754 171 c 128,-1,58
 784 149 784 149 809 126 c 128,-1,59
 834 103 834 103 848 86 c 2,60,-1
 862 69 l 1,61,-1
 917 62 l 1,52,-1
648 -57 m 1,62,-1
 453 -57 l 1,63,-1
 489 -21 l 1,64,-1
 489 -3 l 2,65,66
 489 90 489 90 478.5 131 c 128,-1,67
 468 172 468 172 436 213 c 1,68,69
 511 211 511 211 561.5 154.5 c 128,-1,70
 612 98 612 98 612 -3 c 2,71,-1
 612 -21 l 1,72,-1
 648 -57 l 1,62,-1
EndSplineSet
EndChar

StartChar: Japan1.923
Encoding: 12434 12434 925
Width: 1000
GlyphClass: 2
Flags: W
LayerCount: 2
Fore
SplineSet
677 424 m 1,0,-1
 838 513 l 1,1,2
 841 482 841 482 830.5 451 c 128,-1,3
 820 420 820 420 803 398 c 128,-1,4
 786 376 786 376 769 359 c 128,-1,5
 752 342 752 342 740 334 c 2,6,-1
 727 325 l 2,7,8
 701 311 701 311 677 302 c 1,9,-1
 677 187 l 1,10,-1
 713 152 l 1,11,-1
 528 152 l 1,12,-1
 564 187 l 1,13,-1
 564 238 l 1,14,-1
 498 201 l 1,15,-1
 498 92 l 1,16,-1
 743 92 l 1,17,-1
 780 127 l 1,18,-1
 780 -53 l 1,19,-1
 743 -18 l 1,20,-1
 378 -18 l 1,21,-1
 378 264 l 1,22,-1
 564 361 l 1,23,-1
 564 404 l 1,24,-1
 399 404 l 1,25,26
 335 222 335 222 166 156 c 1,27,28
 224 229 224 229 264 328.5 c 128,-1,29
 304 428 304 428 320 594 c 1,30,-1
 196 594 l 1,31,-1
 160 559 l 1,32,-1
 160 735 l 1,33,-1
 196 699 l 1,34,-1
 327 699 l 1,35,36
 328 737 328 737 328.5 759 c 128,-1,37
 329 781 329 781 329 791 c 1,38,-1
 293 827 l 1,39,-1
 487 827 l 1,40,-1
 451 791 l 1,41,42
 453 736 453 736 451 699 c 1,43,-1
 680 699 l 1,44,-1
 716 735 l 1,45,-1
 716 558 l 1,46,-1
 680 594 l 1,47,-1
 442 594 l 1,48,49
 440 570 440 570 430 511 c 1,50,-1
 677 511 l 1,51,-1
 677 424 l 1,0,-1
EndSplineSet
EndChar

StartChar: Japan1.924
Encoding: 12435 12435 926
Width: 1000
GlyphClass: 2
Flags: W
LayerCount: 2
Fore
SplineSet
852 383 m 1,0,-1
 816 347 l 1,1,-1
 816 -18 l 1,2,-1
 475 -18 l 1,3,-1
 475 67 l 2,4,5
 475 102 475 102 476 161 c 128,-1,6
 477 220 477 220 477 243.5 c 128,-1,7
 477 267 477 267 475.5 307.5 c 128,-1,8
 474 348 474 348 471 366 c 128,-1,9
 468 384 468 384 461.5 410 c 128,-1,10
 455 436 455 436 445 453 c 128,-1,11
 435 470 435 470 420 487 c 1,12,13
 458 480 458 480 487 463 c 128,-1,14
 516 446 516 446 534.5 426 c 128,-1,15
 553 406 553 406 566 372.5 c 128,-1,16
 579 339 579 339 585.5 313.5 c 128,-1,17
 592 288 592 288 595.5 243 c 128,-1,18
 599 198 599 198 599 170.5 c 128,-1,19
 599 143 599 143 599 93 c 1,20,-1
 701 93 l 1,21,-1
 701 347 l 1,22,-1
 661 383 l 1,23,-1
 852 383 l 1,0,-1
406 532 m 0,24,25
 402 458 402 458 396 414 c 0,26,27
 369 239 369 239 311 122.5 c 128,-1,28
 253 6 253 6 139 -54 c 1,29,30
 192 38 192 38 224.5 142.5 c 128,-1,31
 257 247 257 247 269.5 369.5 c 128,-1,32
 282 492 282 492 285 568.5 c 128,-1,33
 288 645 288 645 288 777 c 1,34,-1
 252 813 l 1,35,-1
 446 813 l 1,36,-1
 410 777 l 1,37,38
 410 614 410 614 406 532 c 0,24,25
EndSplineSet
EndChar

StartChar: Japan1.925
Encoding: 12449 12449 927
Width: 1000
GlyphClass: 2
Flags: W
LayerCount: 2
Fore
SplineSet
752 227 m 1,0,-1
 576 227 l 1,1,-1
 542 194 l 1,2,-1
 542 367 l 1,3,-1
 576 334 l 1,4,-1
 641 334 l 1,5,-1
 641 492 l 1,6,-1
 275 492 l 1,7,-1
 241 458 l 1,8,-1
 241 630 l 1,9,-1
 275 599 l 1,10,-1
 752 599 l 1,11,-1
 752 227 l 1,0,-1
548 419 m 1,12,-1
 514 385 l 1,13,-1
 514 325 l 2,14,15
 514 247 514 247 505.5 190 c 128,-1,16
 497 133 497 133 475 80.5 c 128,-1,17
 453 28 453 28 409 -5 c 128,-1,18
 365 -38 365 -38 299 -50 c 1,19,20
 371 22 371 22 389.5 101.5 c 128,-1,21
 408 181 408 181 408 325 c 2,22,-1
 408 385 l 1,23,-1
 375 419 l 1,24,-1
 548 419 l 1,12,-1
EndSplineSet
EndChar

StartChar: Japan1.926
Encoding: 12450 12450 928
Width: 1000
GlyphClass: 2
Flags: W
LayerCount: 2
Fore
SplineSet
370 518 m 1,0,-1
 406 482 l 1,1,-1
 406 404 l 2,2,3
 406 339 406 339 404 296.5 c 128,-1,4
 402 254 402 254 394.5 199.5 c 128,-1,5
 387 145 387 145 372.5 105 c 128,-1,6
 358 65 358 65 331 21.5 c 128,-1,7
 304 -22 304 -22 265 -58 c 1,8,9
 318 -47 318 -47 359.5 -25 c 128,-1,10
 401 -3 401 -3 428.5 23 c 128,-1,11
 456 49 456 49 475.5 87.5 c 128,-1,12
 495 126 495 126 505 159 c 128,-1,13
 515 192 515 192 521 239.5 c 128,-1,14
 527 287 527 287 528 320.5 c 128,-1,15
 529 354 529 354 529 404 c 2,16,-1
 529 482 l 1,17,-1
 565 518 l 1,18,-1
 370 518 l 1,0,-1
814 302 m 1,19,-1
 814 735 l 1,20,-1
 242 735 l 1,21,-1
 206 771 l 1,22,-1
 206 579 l 1,23,-1
 242 615 l 1,24,-1
 691 615 l 1,25,-1
 691 420 l 1,26,-1
 606 420 l 1,27,-1
 569 456 l 1,28,-1
 569 266 l 1,29,-1
 606 302 l 1,30,-1
 814 302 l 1,19,-1
EndSplineSet
EndChar

StartChar: Japan1.927
Encoding: 12451 12451 929
Width: 1000
GlyphClass: 2
Flags: W
LayerCount: 2
Fore
SplineSet
792 525 m 1,0,-1
 734 531 l 1,1,-1
 614 432 l 1,2,-1
 614 -4 l 1,3,-1
 647 -35 l 1,4,-1
 469 -35 l 1,5,-1
 503 -4 l 1,6,-1
 503 340 l 1,7,-1
 454 299 l 2,8,9
 408 263 408 263 341 248.5 c 128,-1,10
 274 234 274 234 217 245 c 1,11,-1
 667 613 l 1,12,-1
 675 667 l 1,13,-1
 792 525 l 1,0,-1
EndSplineSet
EndChar

StartChar: Japan1.928
Encoding: 12452 12452 930
Width: 1000
GlyphClass: 2
Flags: W
LayerCount: 2
Fore
SplineSet
845 651 m 1,0,-1
 785 658 l 1,1,-1
 617 520 l 1,2,-1
 617 -1 l 1,3,-1
 653 -37 l 1,4,-1
 457 -37 l 1,5,-1
 492 -1 l 1,6,-1
 492 416 l 1,7,-1
 401 343 l 2,8,9
 358 308 358 308 306 292 c 128,-1,10
 254 276 254 276 213.5 277 c 128,-1,11
 173 278 173 278 140 289 c 1,12,-1
 708 752 l 1,13,-1
 715 808 l 1,14,-1
 845 651 l 1,0,-1
EndSplineSet
EndChar

StartChar: Japan1.929
Encoding: 12453 12453 931
Width: 1000
GlyphClass: 2
Flags: W
LayerCount: 2
Fore
SplineSet
570 506 m 1,0,-1
 764 506 l 1,1,-1
 764 353 l 2,2,3
 763 292 763 292 757 242.5 c 128,-1,4
 751 193 751 193 734 139 c 128,-1,5
 717 85 717 85 689.5 46.5 c 128,-1,6
 662 8 662 8 615 -21.5 c 128,-1,7
 568 -51 568 -51 505 -61 c 1,8,9
 534 -32 534 -32 547 -17.5 c 128,-1,10
 560 -3 560 -3 585 36 c 128,-1,11
 610 75 610 75 622 112.5 c 128,-1,12
 634 150 634 150 644 213.5 c 128,-1,13
 654 277 654 277 652 353 c 2,14,-1
 652 404 l 1,15,-1
 351 404 l 1,16,-1
 351 238 l 1,17,-1
 385 205 l 1,18,-1
 213 205 l 1,19,-1
 247 238 l 1,20,-1
 247 532 l 1,21,-1
 213 566 l 1,22,-1
 385 566 l 1,23,-1
 351 532 l 1,24,-1
 351 506 l 1,25,-1
 461 506 l 1,26,-1
 461 595 l 1,27,-1
 428 629 l 1,28,-1
 603 629 l 1,29,-1
 570 595 l 1,30,-1
 570 506 l 1,0,-1
EndSplineSet
EndChar

StartChar: Japan1.930
Encoding: 12454 12454 932
Width: 1000
GlyphClass: 2
Flags: W
LayerCount: 2
Fore
SplineSet
581 635 m 1,0,-1
 808 635 l 1,1,-1
 810 495 l 2,2,3
 812 348 812 348 779 219 c 0,4,5
 754 118 754 118 673.5 40.5 c 128,-1,6
 593 -37 593 -37 477 -56 c 1,7,8
 550 6 550 6 595 74.5 c 128,-1,9
 640 143 640 143 664 249 c 0,10,11
 683 334 683 334 683 525 c 1,12,-1
 334 525 l 1,13,-1
 334 312 l 1,14,-1
 370 276 l 1,15,-1
 178 276 l 1,16,-1
 214 312 l 1,17,-1
 214 653 l 1,18,-1
 178 689 l 1,19,-1
 370 689 l 1,20,-1
 334 653 l 1,21,-1
 334 635 l 1,22,-1
 465 635 l 1,23,-1
 465 774 l 1,24,-1
 429 811 l 1,25,-1
 617 811 l 1,26,-1
 581 774 l 1,27,-1
 581 635 l 1,0,-1
EndSplineSet
EndChar

StartChar: Japan1.931
Encoding: 12455 12455 933
Width: 1000
GlyphClass: 2
Flags: W
LayerCount: 2
Fore
SplineSet
760 -28 m 1,0,-1
 727 5 l 1,1,-1
 267 5 l 1,2,-1
 233 -28 l 1,3,-1
 233 139 l 1,4,-1
 267 105 l 1,5,-1
 433 106 l 1,6,-1
 433 462 l 1,7,-1
 302 463 l 1,8,-1
 268 429 l 1,9,-1
 268 596 l 1,10,-1
 302 563 l 1,11,-1
 689 563 l 1,12,-1
 722 595 l 1,13,-1
 722 430 l 1,14,-1
 689 463 l 1,15,-1
 550 462 l 1,16,-1
 550 106 l 1,17,-1
 727 105 l 1,18,-1
 760 139 l 1,19,-1
 760 -28 l 1,0,-1
EndSplineSet
EndChar

StartChar: Japan1.932
Encoding: 12456 12456 934
Width: 1000
GlyphClass: 2
Flags: W
LayerCount: 2
Fore
SplineSet
836 -22 m 1,0,-1
 800 14 l 1,1,-1
 223 14 l 1,2,-1
 187 -22 l 1,3,-1
 187 156 l 1,4,-1
 223 120 l 1,5,-1
 441 120 l 1,6,-1
 441 631 l 1,7,-1
 266 631 l 1,8,-1
 230 595 l 1,9,-1
 230 774 l 1,10,-1
 266 738 l 1,11,-1
 753 738 l 1,12,-1
 790 774 l 1,13,-1
 790 597 l 1,14,-1
 753 631 l 1,15,-1
 569 631 l 1,16,-1
 569 120 l 1,17,-1
 800 120 l 1,18,-1
 836 156 l 1,19,-1
 836 -22 l 1,0,-1
EndSplineSet
EndChar

StartChar: Japan1.933
Encoding: 12457 12457 935
Width: 1000
GlyphClass: 2
Flags: W
LayerCount: 2
Fore
SplineSet
772 393 m 1,0,-1
 739 426 l 1,1,-1
 650 426 l 1,2,-1
 650 2 l 1,3,-1
 683 -31 l 1,4,-1
 508 -31 l 1,5,-1
 541 2 l 1,6,-1
 541 426 l 1,7,-1
 279 426 l 1,8,-1
 245 393 l 1,9,-1
 245 557 l 1,10,-1
 279 522 l 1,11,-1
 541 522 l 1,12,-1
 541 617 l 1,13,-1
 508 650 l 1,14,-1
 683 650 l 1,15,-1
 650 617 l 1,16,-1
 650 522 l 1,17,-1
 739 522 l 1,18,-1
 772 556 l 1,19,-1
 772 393 l 1,0,-1
521 357 m 1,20,-1
 482 335 l 1,21,-1
 400 105 l 2,22,23
 381 51 381 51 332.5 8.5 c 128,-1,24
 284 -34 284 -34 233 -46 c 1,25,-1
 383 370 l 1,26,-1
 368 414 l 1,27,-1
 521 357 l 1,20,-1
EndSplineSet
EndChar

StartChar: Japan1.934
Encoding: 12458 12458 936
Width: 1000
GlyphClass: 2
Flags: W
LayerCount: 2
Fore
SplineSet
840 495 m 1,0,-1
 804 530 l 1,1,-1
 687 530 l 1,2,-1
 687 -5 l 1,3,-1
 723 -41 l 1,4,-1
 531 -41 l 1,5,-1
 566 -5 l 1,6,-1
 566 530 l 1,7,-1
 227 530 l 1,8,-1
 191 494 l 1,9,-1
 191 673 l 1,10,-1
 227 637 l 1,11,-1
 566 637 l 1,12,-1
 566 764 l 1,13,-1
 531 801 l 1,14,-1
 723 801 l 1,15,-1
 687 764 l 1,16,-1
 687 637 l 1,17,-1
 804 637 l 1,18,-1
 840 673 l 1,19,-1
 840 495 l 1,0,-1
537 443 m 1,20,-1
 489 418 l 1,21,-1
 394 149 l 2,22,23
 367 73 367 73 312.5 22.5 c 128,-1,24
 258 -28 258 -28 196 -44 c 1,25,-1
 376 460 l 1,26,-1
 354 508 l 1,27,-1
 537 443 l 1,20,-1
EndSplineSet
EndChar

StartChar: Japan1.935
Encoding: 12459 12459 937
Width: 1000
GlyphClass: 2
Flags: W
LayerCount: 2
Fore
SplineSet
798 -19 m 1,0,-1
 556 -19 l 1,1,-1
 520 -54 l 1,2,-1
 520 138 l 1,3,-1
 556 102 l 1,4,-1
 679 102 l 1,5,-1
 679 486 l 1,6,-1
 519 486 l 1,7,8
 511 387 511 387 492.5 310.5 c 128,-1,9
 474 234 474 234 438.5 165.5 c 128,-1,10
 403 97 403 97 343.5 48 c 128,-1,11
 284 -1 284 -1 200 -29 c 1,12,13
 293 72 293 72 337 197.5 c 128,-1,14
 381 323 381 323 395 486 c 1,15,-1
 239 486 l 1,16,-1
 203 450 l 1,17,-1
 203 640 l 1,18,-1
 239 604 l 1,19,-1
 402 604 l 1,20,-1
 405 771 l 1,21,-1
 369 808 l 1,22,-1
 563 808 l 1,23,-1
 527 771 l 1,24,25
 527 657 527 657 526 604 c 1,26,-1
 798 604 l 1,27,-1
 798 -19 l 1,0,-1
EndSplineSet
EndChar

StartChar: Japan1.936
Encoding: 12460 12460 938
Width: 1000
GlyphClass: 2
Flags: W
LayerCount: 2
Fore
SplineSet
798 -19 m 1,0,-1
 556 -19 l 1,1,-1
 520 -54 l 1,2,-1
 520 138 l 1,3,-1
 556 102 l 1,4,-1
 679 102 l 1,5,-1
 679 486 l 1,6,-1
 519 486 l 1,7,8
 511 387 511 387 492.5 310.5 c 128,-1,9
 474 234 474 234 438.5 165.5 c 128,-1,10
 403 97 403 97 343.5 48 c 128,-1,11
 284 -1 284 -1 200 -29 c 1,12,13
 293 72 293 72 337 197.5 c 128,-1,14
 381 323 381 323 395 486 c 1,15,-1
 239 486 l 1,16,-1
 203 450 l 1,17,-1
 203 640 l 1,18,-1
 239 604 l 1,19,-1
 402 604 l 1,20,-1
 405 771 l 1,21,-1
 369 808 l 1,22,-1
 563 808 l 1,23,-1
 527 771 l 1,24,25
 527 657 527 657 526 604 c 1,26,-1
 798 604 l 1,27,-1
 798 -19 l 1,0,-1
842 630 m 1,28,-1
 788 716 l 1,29,-1
 842 802 l 1,30,-1
 896 716 l 1,31,-1
 842 630 l 1,28,-1
894 461 m 1,32,-1
 840 547 l 1,33,-1
 894 633 l 1,34,-1
 948 547 l 1,35,-1
 894 461 l 1,32,-1
EndSplineSet
EndChar

StartChar: Japan1.937
Encoding: 12461 12461 939
Width: 1000
GlyphClass: 2
Flags: W
LayerCount: 2
Fore
SplineSet
826 218 m 1,0,-1
 789 254 l 1,1,-1
 669 254 l 1,2,3
 687 205 687 205 692 174 c 0,4,5
 693 169 693 169 694 159 c 128,-1,6
 695 149 695 149 695.5 119.5 c 128,-1,7
 696 90 696 90 693 62 c 128,-1,8
 690 34 690 34 680 -3.5 c 128,-1,9
 670 -41 670 -41 653 -72 c 1,10,-1
 537 254 l 1,11,-1
 234 254 l 1,12,-1
 198 218 l 1,13,-1
 198 396 l 1,14,-1
 234 361 l 1,15,-1
 496 361 l 1,16,-1
 434 520 l 1,17,-1
 232 520 l 1,18,-1
 196 484 l 1,19,-1
 196 663 l 1,20,-1
 232 627 l 1,21,-1
 394 627 l 1,22,-1
 353 734 l 1,23,-1
 303 752 l 1,24,-1
 485 820 l 1,25,-1
 470 777 l 1,26,-1
 527 627 l 1,27,-1
 787 627 l 1,28,-1
 823 663 l 1,29,-1
 823 484 l 1,30,-1
 787 520 l 1,31,-1
 567 520 l 1,32,-1
 630 361 l 1,33,-1
 789 361 l 1,34,-1
 826 396 l 1,35,-1
 826 218 l 1,0,-1
EndSplineSet
EndChar

StartChar: Japan1.938
Encoding: 12462 12462 940
Width: 1000
GlyphClass: 2
Flags: W
LayerCount: 2
Fore
SplineSet
826 218 m 1,0,-1
 789 254 l 1,1,-1
 669 254 l 1,2,3
 687 205 687 205 692 174 c 0,4,5
 693 169 693 169 694 159 c 128,-1,6
 695 149 695 149 695.5 119.5 c 128,-1,7
 696 90 696 90 693 62 c 128,-1,8
 690 34 690 34 680 -3.5 c 128,-1,9
 670 -41 670 -41 653 -72 c 1,10,-1
 537 254 l 1,11,-1
 234 254 l 1,12,-1
 198 218 l 1,13,-1
 198 396 l 1,14,-1
 234 361 l 1,15,-1
 496 361 l 1,16,-1
 434 520 l 1,17,-1
 232 520 l 1,18,-1
 196 484 l 1,19,-1
 196 663 l 1,20,-1
 232 627 l 1,21,-1
 394 627 l 1,22,-1
 353 734 l 1,23,-1
 303 752 l 1,24,-1
 485 820 l 1,25,-1
 470 777 l 1,26,-1
 527 627 l 1,27,-1
 787 627 l 1,28,-1
 823 663 l 1,29,-1
 823 484 l 1,30,-1
 787 520 l 1,31,-1
 567 520 l 1,32,-1
 630 361 l 1,33,-1
 789 361 l 1,34,-1
 826 396 l 1,35,-1
 826 218 l 1,0,-1
868 662 m 1,36,-1
 814 748 l 1,37,-1
 868 834 l 1,38,-1
 922 748 l 1,39,-1
 868 662 l 1,36,-1
920 493 m 1,40,-1
 866 579 l 1,41,-1
 920 665 l 1,42,-1
 974 579 l 1,43,-1
 920 493 l 1,40,-1
EndSplineSet
EndChar

StartChar: Japan1.939
Encoding: 12463 12463 941
Width: 1000
GlyphClass: 2
Flags: W
LayerCount: 2
Fore
SplineSet
366 701 m 1,0,-1
 785 701 l 1,1,-1
 785 481 l 2,2,3
 785 419 785 419 782 369.5 c 128,-1,4
 779 320 779 320 770.5 266 c 128,-1,5
 762 212 762 212 748 170 c 128,-1,6
 734 128 734 128 710 88 c 128,-1,7
 686 48 686 48 653.5 19.5 c 128,-1,8
 621 -9 621 -9 574.5 -29.5 c 128,-1,9
 528 -50 528 -50 470 -58 c 1,10,11
 501 -32 501 -32 522 -11.5 c 128,-1,12
 543 9 543 9 571 50 c 128,-1,13
 599 91 599 91 616.5 137 c 128,-1,14
 634 183 634 183 646.5 255 c 128,-1,15
 659 327 659 327 659 413 c 2,16,-1
 659 589 l 1,17,-1
 366 589 l 1,18,-1
 366 454 l 2,19,20
 366 448 366 448 365.5 438.5 c 128,-1,21
 365 429 365 429 358 401.5 c 128,-1,22
 351 374 351 374 340 349 c 128,-1,23
 329 324 329 324 304 293.5 c 128,-1,24
 279 263 279 263 245 241 c 1,25,-1
 245 755 l 1,26,-1
 210 791 l 1,27,-1
 402 791 l 1,28,-1
 366 755 l 1,29,-1
 366 701 l 1,0,-1
EndSplineSet
EndChar

StartChar: Japan1.940
Encoding: 12464 12464 942
Width: 1000
GlyphClass: 2
Flags: W
LayerCount: 2
Fore
SplineSet
366 701 m 1,0,-1
 785 701 l 1,1,-1
 785 481 l 2,2,3
 785 419 785 419 782 369.5 c 128,-1,4
 779 320 779 320 770.5 266 c 128,-1,5
 762 212 762 212 748 170 c 128,-1,6
 734 128 734 128 710 88 c 128,-1,7
 686 48 686 48 653.5 19.5 c 128,-1,8
 621 -9 621 -9 574.5 -29.5 c 128,-1,9
 528 -50 528 -50 470 -58 c 1,10,11
 501 -32 501 -32 522 -11.5 c 128,-1,12
 543 9 543 9 571 50 c 128,-1,13
 599 91 599 91 616.5 137 c 128,-1,14
 634 183 634 183 646.5 255 c 128,-1,15
 659 327 659 327 659 413 c 2,16,-1
 659 589 l 1,17,-1
 366 589 l 1,18,-1
 366 454 l 2,19,20
 366 448 366 448 365.5 438.5 c 128,-1,21
 365 429 365 429 358 401.5 c 128,-1,22
 351 374 351 374 340 349 c 128,-1,23
 329 324 329 324 304 293.5 c 128,-1,24
 279 263 279 263 245 241 c 1,25,-1
 245 755 l 1,26,-1
 210 791 l 1,27,-1
 402 791 l 1,28,-1
 366 755 l 1,29,-1
 366 701 l 1,0,-1
852 690 m 1,30,-1
 798 776 l 1,31,-1
 852 862 l 1,32,-1
 906 776 l 1,33,-1
 852 690 l 1,30,-1
904 521 m 1,34,-1
 850 607 l 1,35,-1
 904 693 l 1,36,-1
 958 607 l 1,37,-1
 904 521 l 1,34,-1
EndSplineSet
EndChar

StartChar: Japan1.941
Encoding: 12465 12465 943
Width: 1000
GlyphClass: 2
Flags: W
LayerCount: 2
Fore
SplineSet
840 484 m 1,0,-1
 804 520 l 1,1,-1
 647 520 l 1,2,-1
 647 483 l 2,3,4
 647 394 647 394 641 327.5 c 128,-1,5
 635 261 635 261 615.5 191 c 128,-1,6
 596 121 596 121 562.5 73.5 c 128,-1,7
 529 26 529 26 471 -9 c 128,-1,8
 413 -44 413 -44 333 -56 c 1,9,10
 364 -30 364 -30 384.5 -9.5 c 128,-1,11
 405 11 405 11 433 52 c 128,-1,12
 461 93 461 93 478.5 139 c 128,-1,13
 496 185 496 185 508.5 257 c 128,-1,14
 521 329 521 329 522 415 c 2,15,-1
 522 520 l 1,16,-1
 333 520 l 1,17,-1
 333 455 l 2,18,19
 333 449 333 449 332.5 439.5 c 128,-1,20
 332 430 332 430 325.5 402.5 c 128,-1,21
 319 375 319 375 308 350 c 128,-1,22
 297 325 297 325 273 294.5 c 128,-1,23
 249 264 249 264 216 243 c 1,24,-1
 216 757 l 1,25,-1
 180 793 l 1,26,-1
 369 793 l 1,27,-1
 333 757 l 1,28,-1
 333 635 l 1,29,-1
 804 635 l 1,30,-1
 840 671 l 1,31,-1
 840 484 l 1,0,-1
EndSplineSet
EndChar

StartChar: Japan1.942
Encoding: 12466 12466 944
Width: 1000
GlyphClass: 2
Flags: W
LayerCount: 2
Fore
SplineSet
840 484 m 1,0,-1
 804 520 l 1,1,-1
 647 520 l 1,2,-1
 647 483 l 2,3,4
 647 394 647 394 641 327.5 c 128,-1,5
 635 261 635 261 615.5 191 c 128,-1,6
 596 121 596 121 562.5 73.5 c 128,-1,7
 529 26 529 26 471 -9 c 128,-1,8
 413 -44 413 -44 333 -56 c 1,9,10
 364 -30 364 -30 384.5 -9.5 c 128,-1,11
 405 11 405 11 433 52 c 128,-1,12
 461 93 461 93 478.5 139 c 128,-1,13
 496 185 496 185 508.5 257 c 128,-1,14
 521 329 521 329 522 415 c 2,15,-1
 522 520 l 1,16,-1
 333 520 l 1,17,-1
 333 455 l 2,18,19
 333 449 333 449 332.5 439.5 c 128,-1,20
 332 430 332 430 325.5 402.5 c 128,-1,21
 319 375 319 375 308 350 c 128,-1,22
 297 325 297 325 273 294.5 c 128,-1,23
 249 264 249 264 216 243 c 1,24,-1
 216 757 l 1,25,-1
 180 793 l 1,26,-1
 369 793 l 1,27,-1
 333 757 l 1,28,-1
 333 635 l 1,29,-1
 804 635 l 1,30,-1
 840 671 l 1,31,-1
 840 484 l 1,0,-1
884 662 m 1,32,-1
 830 748 l 1,33,-1
 884 834 l 1,34,-1
 938 748 l 1,35,-1
 884 662 l 1,32,-1
936 493 m 1,36,-1
 882 579 l 1,37,-1
 936 665 l 1,38,-1
 990 579 l 1,39,-1
 936 493 l 1,36,-1
EndSplineSet
EndChar

StartChar: Japan1.943
Encoding: 12467 12467 945
Width: 1000
GlyphClass: 2
Flags: W
LayerCount: 2
Fore
SplineSet
772 0 m 1,0,-1
 266 0 l 1,1,-1
 230 -36 l 1,2,-1
 230 154 l 1,3,-1
 266 118 l 1,4,-1
 648 118 l 1,5,-1
 648 634 l 1,6,-1
 266 634 l 1,7,-1
 230 598 l 1,8,-1
 230 789 l 1,9,-1
 266 753 l 1,10,-1
 772 753 l 1,11,-1
 772 0 l 1,0,-1
EndSplineSet
EndChar

StartChar: Japan1.944
Encoding: 12468 12468 946
Width: 1000
GlyphClass: 2
Flags: W
LayerCount: 2
Fore
SplineSet
768 0 m 1,0,-1
 262 0 l 1,1,-1
 226 -36 l 1,2,-1
 226 154 l 1,3,-1
 262 118 l 1,4,-1
 644 118 l 1,5,-1
 644 634 l 1,6,-1
 262 634 l 1,7,-1
 226 598 l 1,8,-1
 226 789 l 1,9,-1
 262 753 l 1,10,-1
 768 753 l 1,11,-1
 768 0 l 1,0,-1
856 686 m 1,12,-1
 802 772 l 1,13,-1
 856 858 l 1,14,-1
 910 772 l 1,15,-1
 856 686 l 1,12,-1
908 517 m 1,16,-1
 854 603 l 1,17,-1
 908 689 l 1,18,-1
 962 603 l 1,19,-1
 908 517 l 1,16,-1
EndSplineSet
EndChar

StartChar: Japan1.945
Encoding: 12469 12469 947
Width: 1000
GlyphClass: 2
Flags: W
LayerCount: 2
Fore
SplineSet
859 452 m 1,0,-1
 822 488 l 1,1,-1
 719 488 l 1,2,3
 718 412 718 412 714 357 c 128,-1,4
 710 302 710 302 700 240.5 c 128,-1,5
 690 179 690 179 670 135 c 128,-1,6
 650 91 650 91 619.5 51 c 128,-1,7
 589 11 589 11 542 -16 c 128,-1,8
 495 -43 495 -43 433 -57 c 1,9,10
 467 -24 467 -24 486.5 -1 c 128,-1,11
 506 22 506 22 529.5 66 c 128,-1,12
 553 110 553 110 565.5 161.5 c 128,-1,13
 578 213 578 213 587 296 c 128,-1,14
 596 379 596 379 596 488 c 1,15,-1
 406 488 l 1,16,-1
 406 312 l 1,17,-1
 442 276 l 1,18,-1
 252 276 l 1,19,-1
 288 312 l 1,20,-1
 288 488 l 1,21,-1
 180 488 l 1,22,-1
 144 452 l 1,23,-1
 144 631 l 1,24,-1
 180 595 l 1,25,-1
 288 595 l 1,26,-1
 288 760 l 1,27,-1
 252 796 l 1,28,-1
 442 796 l 1,29,-1
 406 760 l 1,30,-1
 406 595 l 1,31,-1
 596 595 l 1,32,-1
 596 757 l 1,33,-1
 560 793 l 1,34,-1
 756 793 l 1,35,-1
 720 757 l 1,36,-1
 720 595 l 1,37,-1
 822 595 l 1,38,-1
 859 631 l 1,39,-1
 859 452 l 1,0,-1
EndSplineSet
EndChar

StartChar: Japan1.946
Encoding: 12470 12470 948
Width: 1000
GlyphClass: 2
Flags: W
LayerCount: 2
Fore
SplineSet
859 452 m 1,0,-1
 822 488 l 1,1,-1
 719 488 l 1,2,3
 718 412 718 412 714 357 c 128,-1,4
 710 302 710 302 700 240.5 c 128,-1,5
 690 179 690 179 670 135 c 128,-1,6
 650 91 650 91 619.5 51 c 128,-1,7
 589 11 589 11 542 -16 c 128,-1,8
 495 -43 495 -43 433 -57 c 1,9,10
 467 -24 467 -24 486.5 -1 c 128,-1,11
 506 22 506 22 529.5 66 c 128,-1,12
 553 110 553 110 565.5 161.5 c 128,-1,13
 578 213 578 213 587 296 c 128,-1,14
 596 379 596 379 596 488 c 1,15,-1
 406 488 l 1,16,-1
 406 312 l 1,17,-1
 442 276 l 1,18,-1
 252 276 l 1,19,-1
 288 312 l 1,20,-1
 288 488 l 1,21,-1
 180 488 l 1,22,-1
 144 452 l 1,23,-1
 144 631 l 1,24,-1
 180 595 l 1,25,-1
 288 595 l 1,26,-1
 288 760 l 1,27,-1
 252 796 l 1,28,-1
 442 796 l 1,29,-1
 406 760 l 1,30,-1
 406 595 l 1,31,-1
 596 595 l 1,32,-1
 596 757 l 1,33,-1
 560 793 l 1,34,-1
 756 793 l 1,35,-1
 720 757 l 1,36,-1
 720 595 l 1,37,-1
 822 595 l 1,38,-1
 859 631 l 1,39,-1
 859 452 l 1,0,-1
892 630 m 1,40,-1
 838 716 l 1,41,-1
 892 802 l 1,42,-1
 946 716 l 1,43,-1
 892 630 l 1,40,-1
944 461 m 1,44,-1
 890 547 l 1,45,-1
 944 633 l 1,46,-1
 998 547 l 1,47,-1
 944 461 l 1,44,-1
EndSplineSet
EndChar

StartChar: Japan1.947
Encoding: 12471 12471 949
Width: 1000
GlyphClass: 2
Flags: W
LayerCount: 2
Fore
SplineSet
546 589 m 1,0,-1
 510 625 l 1,1,-1
 243 625 l 1,2,-1
 207 589 l 1,3,-1
 207 777 l 1,4,-1
 243 741 l 1,5,-1
 510 741 l 1,6,-1
 546 777 l 1,7,-1
 546 589 l 1,0,-1
370 75 m 1,8,-1
 816 609 l 1,9,10
 852 447 852 447 746 320 c 2,11,-1
 469 -4 l 1,12,-1
 473 -66 l 1,13,-1
 308 69 l 1,14,-1
 370 75 l 1,8,-1
546 355 m 1,15,-1
 510 391 l 1,16,-1
 243 391 l 1,17,-1
 207 355 l 1,18,-1
 207 543 l 1,19,-1
 243 507 l 1,20,-1
 510 507 l 1,21,-1
 546 543 l 1,22,-1
 546 355 l 1,15,-1
EndSplineSet
EndChar

StartChar: Japan1.948
Encoding: 12472 12472 950
Width: 1000
GlyphClass: 2
Flags: W
LayerCount: 2
Fore
SplineSet
546 589 m 1,0,-1
 510 625 l 1,1,-1
 243 625 l 1,2,-1
 207 589 l 1,3,-1
 207 777 l 1,4,-1
 243 741 l 1,5,-1
 510 741 l 1,6,-1
 546 777 l 1,7,-1
 546 589 l 1,0,-1
370 75 m 1,8,-1
 816 609 l 1,9,10
 852 447 852 447 746 320 c 2,11,-1
 469 -4 l 1,12,-1
 473 -66 l 1,13,-1
 308 69 l 1,14,-1
 370 75 l 1,8,-1
546 355 m 1,15,-1
 510 391 l 1,16,-1
 243 391 l 1,17,-1
 207 355 l 1,18,-1
 207 543 l 1,19,-1
 243 507 l 1,20,-1
 510 507 l 1,21,-1
 546 543 l 1,22,-1
 546 355 l 1,15,-1
859 640 m 1,23,-1
 805 726 l 1,24,-1
 859 812 l 1,25,-1
 913 726 l 1,26,-1
 859 640 l 1,23,-1
911 471 m 1,27,-1
 857 557 l 1,28,-1
 911 643 l 1,29,-1
 965 557 l 1,30,-1
 911 471 l 1,27,-1
EndSplineSet
EndChar

StartChar: Japan1.949
Encoding: 12473 12473 951
Width: 1000
GlyphClass: 2
Flags: W
LayerCount: 2
Fore
SplineSet
249 753 m 1,0,-1
 711 753 l 1,1,2
 624 66 624 66 156 -57 c 1,3,4
 297 55 297 55 404.5 227 c 128,-1,5
 512 399 512 399 560 631 c 1,6,-1
 249 631 l 1,7,-1
 213 595 l 1,8,-1
 213 789 l 1,9,-1
 249 753 l 1,0,-1
892 61 m 1,10,-1
 730 -70 l 1,11,-1
 741 -12 l 1,12,13
 681 56 681 56 672 69 c 0,14,15
 628 126 628 126 614 193.5 c 128,-1,16
 600 261 600 261 622 323 c 1,17,-1
 836 65 l 1,18,-1
 892 61 l 1,10,-1
EndSplineSet
EndChar

StartChar: Japan1.950
Encoding: 12474 12474 952
Width: 1000
GlyphClass: 2
Flags: W
LayerCount: 2
Fore
SplineSet
245 753 m 1,0,-1
 707 753 l 1,1,2
 620 66 620 66 152 -57 c 1,3,4
 293 55 293 55 400.5 227 c 128,-1,5
 508 399 508 399 556 631 c 1,6,-1
 245 631 l 1,7,-1
 209 595 l 1,8,-1
 209 789 l 1,9,-1
 245 753 l 1,0,-1
888 61 m 1,10,-1
 726 -70 l 1,11,-1
 737 -12 l 1,12,13
 677 56 677 56 668 69 c 0,14,15
 624 126 624 126 610 193.5 c 128,-1,16
 596 261 596 261 618 323 c 1,17,-1
 832 65 l 1,18,-1
 888 61 l 1,10,-1
810 690 m 1,19,-1
 756 776 l 1,20,-1
 810 862 l 1,21,-1
 864 776 l 1,22,-1
 810 690 l 1,19,-1
774 505 m 1,23,-1
 720 591 l 1,24,-1
 774 677 l 1,25,-1
 828 591 l 1,26,-1
 774 505 l 1,23,-1
EndSplineSet
EndChar

StartChar: Japan1.951
Encoding: 12475 12475 953
Width: 1000
GlyphClass: 2
Flags: W
LayerCount: 2
Fore
SplineSet
439 600 m 1,0,-1
 799 600 l 1,1,2
 799 441 799 441 733.5 354.5 c 128,-1,3
 668 268 668 268 561 255 c 1,4,5
 609 310 609 310 636 363 c 128,-1,6
 663 416 663 416 671 490 c 1,7,-1
 439 490 l 1,8,-1
 439 106 l 1,9,-1
 727 106 l 1,10,-1
 763 142 l 1,11,-1
 763 -52 l 1,12,-1
 727 -17 l 1,13,-1
 316 -17 l 1,14,-1
 316 490 l 1,15,-1
 207 490 l 1,16,-1
 171 454 l 1,17,-1
 171 636 l 1,18,-1
 207 600 l 1,19,-1
 316 600 l 1,20,-1
 316 743 l 1,21,-1
 280 779 l 1,22,-1
 474 779 l 1,23,-1
 439 743 l 1,24,-1
 439 600 l 1,0,-1
EndSplineSet
EndChar

StartChar: Japan1.952
Encoding: 12476 12476 954
Width: 1000
GlyphClass: 2
Flags: W
LayerCount: 2
Fore
SplineSet
435 600 m 1,0,-1
 795 600 l 1,1,2
 795 441 795 441 729.5 354.5 c 128,-1,3
 664 268 664 268 557 255 c 1,4,5
 605 310 605 310 632 363 c 128,-1,6
 659 416 659 416 667 490 c 1,7,-1
 435 490 l 1,8,-1
 435 106 l 1,9,-1
 723 106 l 1,10,-1
 759 142 l 1,11,-1
 759 -52 l 1,12,-1
 723 -17 l 1,13,-1
 312 -17 l 1,14,-1
 312 490 l 1,15,-1
 203 490 l 1,16,-1
 167 454 l 1,17,-1
 167 636 l 1,18,-1
 203 600 l 1,19,-1
 312 600 l 1,20,-1
 312 743 l 1,21,-1
 276 779 l 1,22,-1
 470 779 l 1,23,-1
 435 743 l 1,24,-1
 435 600 l 1,0,-1
824 640 m 1,25,-1
 770 726 l 1,26,-1
 824 812 l 1,27,-1
 878 726 l 1,28,-1
 824 640 l 1,25,-1
876 471 m 1,29,-1
 822 557 l 1,30,-1
 876 643 l 1,31,-1
 930 557 l 1,32,-1
 876 471 l 1,29,-1
EndSplineSet
EndChar

StartChar: Japan1.953
Encoding: 12477 12477 955
Width: 1000
GlyphClass: 2
Flags: W
LayerCount: 2
Fore
SplineSet
499 456 m 1,0,-1
 320 346 l 1,1,-1
 334 400 l 1,2,-1
 195 625 l 1,3,-1
 139 638 l 1,4,-1
 312 742 l 1,5,-1
 305 691 l 1,6,-1
 444 466 l 1,7,-1
 499 456 l 1,0,-1
881 682 m 1,8,-1
 830 662 l 1,9,-1
 611 132 l 2,10,11
 578 50 578 50 520 1 c 128,-1,12
 462 -48 462 -48 393 -67 c 1,13,-1
 716 711 l 1,14,-1
 698 761 l 1,15,-1
 881 682 l 1,8,-1
EndSplineSet
EndChar

StartChar: Japan1.954
Encoding: 12478 12478 956
Width: 1000
GlyphClass: 2
Flags: W
LayerCount: 2
Fore
SplineSet
499 456 m 1,0,-1
 320 346 l 1,1,-1
 334 400 l 1,2,-1
 195 625 l 1,3,-1
 139 638 l 1,4,-1
 312 742 l 1,5,-1
 305 691 l 1,6,-1
 444 466 l 1,7,-1
 499 456 l 1,0,-1
874 661 m 1,8,-1
 823 641 l 1,9,-1
 611 132 l 2,10,11
 578 50 578 50 520 1 c 128,-1,12
 462 -48 462 -48 393 -67 c 1,13,-1
 709 690 l 1,14,-1
 691 740 l 1,15,-1
 874 661 l 1,8,-1
886 703 m 1,16,-1
 832 789 l 1,17,-1
 886 875 l 1,18,-1
 940 789 l 1,19,-1
 886 703 l 1,16,-1
938 534 m 1,20,-1
 884 620 l 1,21,-1
 938 706 l 1,22,-1
 992 620 l 1,23,-1
 938 534 l 1,20,-1
EndSplineSet
EndChar

StartChar: Japan1.955
Encoding: 12479 12479 957
Width: 1000
GlyphClass: 2
Flags: W
LayerCount: 2
Fore
SplineSet
355 700 m 1,0,-1
 778 700 l 1,1,-1
 778 481 l 2,2,3
 778 392 778 392 772 325.5 c 128,-1,4
 766 259 766 259 746.5 188.5 c 128,-1,5
 727 118 727 118 693.5 71 c 128,-1,6
 660 24 660 24 602 -11.5 c 128,-1,7
 544 -47 544 -47 464 -58 c 1,8,9
 499 -28 499 -28 520 -6.5 c 128,-1,10
 541 15 541 15 571.5 59.5 c 128,-1,11
 602 104 602 104 621 169 c 128,-1,12
 640 234 640 234 648 319 c 1,13,-1
 461 319 l 1,14,-1
 425 283 l 1,15,-1
 425 468 l 1,16,-1
 461 432 l 1,17,-1
 652 432 l 1,18,-1
 653 588 l 1,19,-1
 355 588 l 1,20,-1
 355 457 l 2,21,22
 355 451 355 451 354.5 441.5 c 128,-1,23
 354 432 354 432 347.5 404.5 c 128,-1,24
 341 377 341 377 329.5 352 c 128,-1,25
 318 327 318 327 293.5 296.5 c 128,-1,26
 269 266 269 266 235 245 c 1,27,-1
 235 758 l 1,28,-1
 199 795 l 1,29,-1
 391 795 l 1,30,-1
 355 758 l 1,31,-1
 355 700 l 1,0,-1
EndSplineSet
EndChar

StartChar: Japan1.956
Encoding: 12480 12480 958
Width: 1000
GlyphClass: 2
Flags: W
LayerCount: 2
Fore
SplineSet
355 700 m 1,0,-1
 778 700 l 1,1,-1
 778 481 l 2,2,3
 778 392 778 392 772 325.5 c 128,-1,4
 766 259 766 259 746.5 188.5 c 128,-1,5
 727 118 727 118 693.5 71 c 128,-1,6
 660 24 660 24 602 -11.5 c 128,-1,7
 544 -47 544 -47 464 -58 c 1,8,9
 499 -28 499 -28 520 -6.5 c 128,-1,10
 541 15 541 15 571.5 59.5 c 128,-1,11
 602 104 602 104 621 169 c 128,-1,12
 640 234 640 234 648 319 c 1,13,-1
 461 319 l 1,14,-1
 425 283 l 1,15,-1
 425 468 l 1,16,-1
 461 432 l 1,17,-1
 652 432 l 1,18,-1
 653 588 l 1,19,-1
 355 588 l 1,20,-1
 355 457 l 2,21,22
 355 451 355 451 354.5 441.5 c 128,-1,23
 354 432 354 432 347.5 404.5 c 128,-1,24
 341 377 341 377 329.5 352 c 128,-1,25
 318 327 318 327 293.5 296.5 c 128,-1,26
 269 266 269 266 235 245 c 1,27,-1
 235 758 l 1,28,-1
 199 795 l 1,29,-1
 391 795 l 1,30,-1
 355 758 l 1,31,-1
 355 700 l 1,0,-1
839 690 m 1,32,-1
 785 776 l 1,33,-1
 839 862 l 1,34,-1
 893 776 l 1,35,-1
 839 690 l 1,32,-1
891 521 m 1,36,-1
 837 607 l 1,37,-1
 891 693 l 1,38,-1
 945 607 l 1,39,-1
 891 521 l 1,36,-1
EndSplineSet
EndChar

StartChar: Japan1.957
Encoding: 12481 12481 959
Width: 1000
GlyphClass: 2
Flags: W
LayerCount: 2
Fore
SplineSet
842 326 m 1,0,-1
 806 362 l 1,1,-1
 585 362 l 1,2,3
 583 273 583 273 569 204.5 c 128,-1,4
 555 136 555 136 523.5 79 c 128,-1,5
 492 22 492 22 436.5 -12.5 c 128,-1,6
 381 -47 381 -47 302 -56 c 1,7,8
 339 -27 339 -27 362 -1 c 128,-1,9
 385 25 385 25 409 71.5 c 128,-1,10
 433 118 433 118 445.5 190 c 128,-1,11
 458 262 458 262 461 362 c 1,12,-1
 203 362 l 1,13,-1
 166 326 l 1,14,-1
 166 509 l 1,15,-1
 203 473 l 1,16,-1
 464 473 l 1,17,-1
 464 605 l 1,18,-1
 437 602 l 2,19,20
 432 601 432 601 422 600 c 128,-1,21
 412 599 412 599 384 600.5 c 128,-1,22
 356 602 356 602 329.5 608 c 128,-1,23
 303 614 303 614 269 632 c 128,-1,24
 235 650 235 650 208 678 c 1,25,-1
 713 767 l 1,26,-1
 749 811 l 1,27,-1
 781 630 l 1,28,-1
 733 654 l 1,29,-1
 586 627 l 1,30,-1
 586 473 l 1,31,-1
 806 473 l 1,32,-1
 842 509 l 1,33,-1
 842 326 l 1,0,-1
EndSplineSet
EndChar

StartChar: Japan1.958
Encoding: 12482 12482 960
Width: 1000
GlyphClass: 2
Flags: W
LayerCount: 2
Fore
SplineSet
842 326 m 1,0,-1
 806 362 l 1,1,-1
 585 362 l 1,2,3
 583 273 583 273 569 204.5 c 128,-1,4
 555 136 555 136 523.5 79 c 128,-1,5
 492 22 492 22 436.5 -12.5 c 128,-1,6
 381 -47 381 -47 302 -56 c 1,7,8
 339 -27 339 -27 362 -1 c 128,-1,9
 385 25 385 25 409 71.5 c 128,-1,10
 433 118 433 118 445.5 190 c 128,-1,11
 458 262 458 262 461 362 c 1,12,-1
 203 362 l 1,13,-1
 166 326 l 1,14,-1
 166 509 l 1,15,-1
 203 473 l 1,16,-1
 464 473 l 1,17,-1
 464 605 l 1,18,-1
 437 602 l 2,19,20
 432 601 432 601 422 600 c 128,-1,21
 412 599 412 599 384 600.5 c 128,-1,22
 356 602 356 602 329.5 608 c 128,-1,23
 303 614 303 614 269 632 c 128,-1,24
 235 650 235 650 208 678 c 1,25,-1
 713 767 l 1,26,-1
 749 811 l 1,27,-1
 781 630 l 1,28,-1
 733 654 l 1,29,-1
 586 627 l 1,30,-1
 586 473 l 1,31,-1
 806 473 l 1,32,-1
 842 509 l 1,33,-1
 842 326 l 1,0,-1
851 640 m 1,34,-1
 797 726 l 1,35,-1
 851 812 l 1,36,-1
 905 726 l 1,37,-1
 851 640 l 1,34,-1
903 471 m 1,38,-1
 849 557 l 1,39,-1
 903 643 l 1,40,-1
 957 557 l 1,41,-1
 903 471 l 1,38,-1
EndSplineSet
EndChar

StartChar: Japan1.959
Encoding: 12483 12483 961
Width: 1000
GlyphClass: 2
Flags: W
LayerCount: 2
Fore
SplineSet
834 545 m 1,0,-1
 785 520 l 1,1,-1
 611 104 l 2,2,3
 586 44 586 44 533 2.5 c 128,-1,4
 480 -39 480 -39 423 -46 c 1,5,-1
 683 563 l 1,6,-1
 666 616 l 1,7,-1
 834 545 l 1,0,-1
366 301 m 1,8,-1
 192 301 l 1,9,-1
 227 340 l 1,10,-1
 227 556 l 1,11,-1
 192 594 l 1,12,-1
 366 594 l 1,13,-1
 332 556 l 1,14,-1
 332 340 l 1,15,-1
 366 301 l 1,8,-1
554 594 m 1,16,-1
 521 556 l 1,17,-1
 521 340 l 1,18,-1
 554 301 l 1,19,-1
 382 301 l 1,20,-1
 416 340 l 1,21,-1
 416 556 l 1,22,-1
 382 594 l 1,23,-1
 554 594 l 1,16,-1
EndSplineSet
EndChar

StartChar: Japan1.960
Encoding: 12484 12484 962
Width: 1000
GlyphClass: 2
Flags: W
LayerCount: 2
Fore
SplineSet
894 673 m 1,0,-1
 846 648 l 1,1,-1
 638 142 l 2,2,3
 606 61 606 61 546.5 11 c 128,-1,4
 487 -39 487 -39 418 -58 c 1,5,-1
 729 696 l 1,6,-1
 710 749 l 1,7,-1
 894 673 l 1,0,-1
359 396 m 1,8,-1
 170 396 l 1,9,-1
 206 432 l 1,10,-1
 206 703 l 1,11,-1
 170 739 l 1,12,-1
 359 739 l 1,13,-1
 323 703 l 1,14,-1
 323 432 l 1,15,-1
 359 396 l 1,8,-1
564 396 m 1,16,-1
 375 396 l 1,17,-1
 411 432 l 1,18,-1
 411 703 l 1,19,-1
 375 739 l 1,20,-1
 564 739 l 1,21,-1
 528 703 l 1,22,-1
 528 432 l 1,23,-1
 564 396 l 1,16,-1
EndSplineSet
EndChar

StartChar: Japan1.961
Encoding: 12485 12485 963
Width: 1000
GlyphClass: 2
Flags: W
LayerCount: 2
Fore
SplineSet
883 654 m 1,0,-1
 835 629 l 1,1,-1
 634 142 l 2,2,3
 602 61 602 61 542.5 11 c 128,-1,4
 483 -39 483 -39 414 -58 c 1,5,-1
 718 677 l 1,6,-1
 699 730 l 1,7,-1
 883 654 l 1,0,-1
355 396 m 1,8,-1
 166 396 l 1,9,-1
 202 432 l 1,10,-1
 202 703 l 1,11,-1
 166 739 l 1,12,-1
 355 739 l 1,13,-1
 319 703 l 1,14,-1
 319 432 l 1,15,-1
 355 396 l 1,8,-1
560 396 m 1,16,-1
 371 396 l 1,17,-1
 407 432 l 1,18,-1
 407 703 l 1,19,-1
 371 739 l 1,20,-1
 560 739 l 1,21,-1
 524 703 l 1,22,-1
 524 432 l 1,23,-1
 560 396 l 1,16,-1
889 693 m 1,24,-1
 835 779 l 1,25,-1
 889 865 l 1,26,-1
 943 779 l 1,27,-1
 889 693 l 1,24,-1
941 524 m 1,28,-1
 887 610 l 1,29,-1
 941 696 l 1,30,-1
 995 610 l 1,31,-1
 941 524 l 1,28,-1
EndSplineSet
EndChar

StartChar: Japan1.962
Encoding: 12486 12486 964
Width: 1000
GlyphClass: 2
Flags: W
LayerCount: 2
Fore
SplineSet
784 608 m 1,0,-1
 749 644 l 1,1,-1
 262 644 l 1,2,-1
 226 608 l 1,3,-1
 226 794 l 1,4,-1
 262 758 l 1,5,-1
 749 758 l 1,6,-1
 784 794 l 1,7,-1
 784 608 l 1,0,-1
842 378 m 1,8,-1
 806 414 l 1,9,-1
 574 414 l 1,10,11
 574 350 574 350 569 297 c 128,-1,12
 564 244 564 244 547 184.5 c 128,-1,13
 530 125 530 125 502.5 80.5 c 128,-1,14
 475 36 475 36 426.5 -1.5 c 128,-1,15
 378 -39 378 -39 312 -58 c 1,16,17
 381 29 381 29 413.5 131.5 c 128,-1,18
 446 234 446 234 445 414 c 1,19,-1
 204 414 l 1,20,-1
 168 378 l 1,21,-1
 168 563 l 1,22,-1
 204 527 l 1,23,-1
 806 527 l 1,24,-1
 842 563 l 1,25,-1
 842 378 l 1,8,-1
EndSplineSet
EndChar

StartChar: Japan1.963
Encoding: 12487 12487 965
Width: 1000
GlyphClass: 2
Flags: W
LayerCount: 2
Fore
SplineSet
784 608 m 1,0,-1
 749 644 l 1,1,-1
 262 644 l 1,2,-1
 226 608 l 1,3,-1
 226 794 l 1,4,-1
 262 758 l 1,5,-1
 749 758 l 1,6,-1
 784 794 l 1,7,-1
 784 608 l 1,0,-1
842 378 m 1,8,-1
 806 414 l 1,9,-1
 574 414 l 1,10,11
 574 350 574 350 569 297 c 128,-1,12
 564 244 564 244 547 184.5 c 128,-1,13
 530 125 530 125 502.5 80.5 c 128,-1,14
 475 36 475 36 426.5 -1.5 c 128,-1,15
 378 -39 378 -39 312 -58 c 1,16,17
 381 29 381 29 413.5 131.5 c 128,-1,18
 446 234 446 234 445 414 c 1,19,-1
 204 414 l 1,20,-1
 168 378 l 1,21,-1
 168 563 l 1,22,-1
 204 527 l 1,23,-1
 806 527 l 1,24,-1
 842 563 l 1,25,-1
 842 378 l 1,8,-1
872 674 m 1,26,-1
 818 760 l 1,27,-1
 872 846 l 1,28,-1
 926 760 l 1,29,-1
 872 674 l 1,26,-1
924 505 m 1,30,-1
 870 591 l 1,31,-1
 924 677 l 1,32,-1
 978 591 l 1,33,-1
 924 505 l 1,30,-1
EndSplineSet
EndChar

StartChar: Japan1.964
Encoding: 12488 12488 966
Width: 1000
GlyphClass: 2
Flags: W
LayerCount: 2
Fore
SplineSet
439 737 m 1,0,-1
 439 -1 l 1,1,-1
 475 -37 l 1,2,-1
 282 -37 l 1,3,-1
 318 -1 l 1,4,-1
 318 737 l 1,5,-1
 282 774 l 1,6,-1
 475 774 l 1,7,-1
 439 737 l 1,0,-1
492 508 m 1,8,-1
 528 472 l 1,9,10
 606 472 606 472 666 453 c 0,11,12
 743 430 743 430 784 377 c 128,-1,13
 825 324 825 324 834 227 c 1,14,15
 773 302 773 302 645 332 c 0,16,17
 592 344 592 344 528 344 c 1,18,-1
 492 308 l 1,19,-1
 492 508 l 1,8,-1
EndSplineSet
EndChar

StartChar: Japan1.965
Encoding: 12489 12489 967
Width: 1000
GlyphClass: 2
Flags: W
LayerCount: 2
Fore
SplineSet
439 737 m 1,0,-1
 439 -1 l 1,1,-1
 475 -37 l 1,2,-1
 282 -37 l 1,3,-1
 318 -1 l 1,4,-1
 318 737 l 1,5,-1
 282 774 l 1,6,-1
 475 774 l 1,7,-1
 439 737 l 1,0,-1
492 508 m 1,8,-1
 528 472 l 1,9,10
 606 472 606 472 666 453 c 0,11,12
 743 430 743 430 784 377 c 128,-1,13
 825 324 825 324 834 227 c 1,14,15
 773 302 773 302 645 332 c 0,16,17
 592 344 592 344 528 344 c 1,18,-1
 492 308 l 1,19,-1
 492 508 l 1,8,-1
621 538 m 1,20,-1
 567 624 l 1,21,-1
 621 710 l 1,22,-1
 675 624 l 1,23,-1
 621 538 l 1,20,-1
741 475 m 1,24,-1
 687 561 l 1,25,-1
 741 647 l 1,26,-1
 795 561 l 1,27,-1
 741 475 l 1,24,-1
EndSplineSet
EndChar

StartChar: Japan1.966
Encoding: 12490 12490 968
Width: 1000
GlyphClass: 2
Flags: W
LayerCount: 2
Fore
SplineSet
844 425 m 1,0,-1
 808 461 l 1,1,-1
 591 461 l 1,2,3
 589 394 589 394 585 344.5 c 128,-1,4
 581 295 581 295 570.5 236 c 128,-1,5
 560 177 560 177 540 133 c 128,-1,6
 520 89 520 89 489.5 47.5 c 128,-1,7
 459 6 459 6 412.5 -23 c 128,-1,8
 366 -52 366 -52 305 -69 c 1,9,10
 388 16 388 16 424 128 c 128,-1,11
 460 240 460 240 462 461 c 1,12,-1
 200 461 l 1,13,-1
 164 425 l 1,14,-1
 164 603 l 1,15,-1
 200 567 l 1,16,-1
 463 567 l 1,17,-1
 463 767 l 1,18,-1
 427 803 l 1,19,-1
 627 803 l 1,20,-1
 592 767 l 1,21,-1
 592 567 l 1,22,-1
 808 567 l 1,23,-1
 844 603 l 1,24,-1
 844 425 l 1,0,-1
EndSplineSet
EndChar

StartChar: Japan1.967
Encoding: 12491 12491 969
Width: 1000
GlyphClass: 2
Flags: W
LayerCount: 2
Fore
SplineSet
752 515 m 1,0,-1
 716 551 l 1,1,-1
 295 551 l 1,2,-1
 259 515 l 1,3,-1
 259 718 l 1,4,-1
 295 682 l 1,5,-1
 716 682 l 1,6,-1
 752 718 l 1,7,-1
 752 515 l 1,0,-1
834 11 m 1,8,-1
 798 47 l 1,9,-1
 213 47 l 1,10,-1
 177 11 l 1,11,-1
 177 214 l 1,12,-1
 213 178 l 1,13,-1
 798 178 l 1,14,-1
 834 214 l 1,15,-1
 834 11 l 1,8,-1
EndSplineSet
EndChar

StartChar: Japan1.968
Encoding: 12492 12492 970
Width: 1000
GlyphClass: 2
Flags: W
LayerCount: 2
Fore
SplineSet
294 770 m 1,0,-1
 768 770 l 1,1,2
 757 605 757 605 731 500 c 0,3,4
 701 383 701 383 649 286 c 1,5,-1
 666 272 l 2,6,7
 671 269 671 269 678 262.5 c 128,-1,8
 685 256 685 256 703.5 234.5 c 128,-1,9
 722 213 722 213 736 189.5 c 128,-1,10
 750 166 750 166 759.5 128 c 128,-1,11
 769 90 769 90 766 50 c 1,12,-1
 588 185 l 1,13,14
 451 -3 451 -3 223 -54 c 1,15,16
 390 74 390 74 496 254 c 1,17,-1
 329 380 l 1,18,-1
 275 371 l 1,19,-1
 392 528 l 1,20,-1
 402 477 l 1,21,-1
 549 360 l 1,22,23
 606 492 606 492 622 651 c 1,24,-1
 294 651 l 1,25,-1
 258 615 l 1,26,-1
 258 806 l 1,27,-1
 294 770 l 1,0,-1
EndSplineSet
EndChar

StartChar: Japan1.969
Encoding: 12493 12493 971
Width: 1000
GlyphClass: 2
Flags: W
LayerCount: 2
Fore
SplineSet
554 683 m 1,0,-1
 778 683 l 1,1,2
 715 473 715 473 558 330 c 1,3,-1
 558 -19 l 1,4,-1
 593 -55 l 1,5,-1
 411 -55 l 1,6,-1
 447 -19 l 1,7,-1
 447 248 l 1,8,9
 330 165 330 165 164 153 c 1,10,11
 305 238 305 238 414.5 343.5 c 128,-1,12
 524 449 524 449 588 563 c 1,13,-1
 260 563 l 1,14,-1
 224 527 l 1,15,-1
 224 719 l 1,16,-1
 260 683 l 1,17,-1
 443 683 l 1,18,-1
 443 778 l 1,19,-1
 407 814 l 1,20,-1
 590 814 l 1,21,-1
 554 778 l 1,22,-1
 554 683 l 1,0,-1
806 149 m 1,23,-1
 770 185 l 1,24,25
 763 185 763 185 752 186.5 c 128,-1,26
 741 188 741 188 711 195.5 c 128,-1,27
 681 203 681 203 656 214.5 c 128,-1,28
 631 226 631 226 605.5 249 c 128,-1,29
 580 272 580 272 570 302 c 1,30,-1
 770 302 l 1,31,-1
 806 338 l 1,32,-1
 806 149 l 1,23,-1
EndSplineSet
EndChar

StartChar: Japan1.970
Encoding: 12494 12494 972
Width: 1000
GlyphClass: 2
Flags: W
LayerCount: 2
Fore
SplineSet
821 694 m 1,0,-1
 766 675 l 1,1,-1
 450 121 l 2,2,3
 406 42 406 42 339 -2 c 128,-1,4
 272 -46 272 -46 198 -58 c 1,5,-1
 652 740 l 1,6,-1
 640 796 l 1,7,-1
 821 694 l 1,0,-1
EndSplineSet
EndChar

StartChar: Japan1.971
Encoding: 12495 12495 973
Width: 1000
GlyphClass: 2
Flags: W
LayerCount: 2
Fore
SplineSet
888 8 m 1,0,-1
 689 -35 l 1,1,-1
 719 20 l 1,2,-1
 566 726 l 1,3,4
 631 695 631 695 680 637 c 128,-1,5
 729 579 729 579 747 494 c 2,6,-1
 842 47 l 1,7,-1
 888 8 l 1,0,-1
460 739 m 1,8,-1
 422 702 l 1,9,-1
 423 428 l 2,10,11
 422 350 422 350 414 288.5 c 128,-1,12
 406 227 406 227 386.5 167 c 128,-1,13
 367 107 367 107 335 64 c 128,-1,14
 303 21 303 21 251.5 -12.5 c 128,-1,15
 200 -46 200 -46 131 -63 c 1,16,17
 171 -25 171 -25 194 5 c 128,-1,18
 217 35 217 35 242.5 89.5 c 128,-1,19
 268 144 268 144 280 226 c 128,-1,20
 292 308 292 308 292 422 c 2,21,-1
 294 702 l 1,22,-1
 257 739 l 1,23,-1
 460 739 l 1,8,-1
EndSplineSet
EndChar

StartChar: Japan1.972
Encoding: 12496 12496 974
Width: 1000
GlyphClass: 2
Flags: W
LayerCount: 2
Fore
SplineSet
888 8 m 1,0,-1
 689 -35 l 1,1,-1
 719 20 l 1,2,-1
 566 726 l 1,3,4
 631 695 631 695 680 637 c 128,-1,5
 729 579 729 579 747 494 c 2,6,-1
 842 47 l 1,7,-1
 888 8 l 1,0,-1
460 739 m 1,8,-1
 422 702 l 1,9,-1
 423 428 l 2,10,11
 422 350 422 350 414 288.5 c 128,-1,12
 406 227 406 227 386.5 167 c 128,-1,13
 367 107 367 107 335 64 c 128,-1,14
 303 21 303 21 251.5 -12.5 c 128,-1,15
 200 -46 200 -46 131 -63 c 1,16,17
 171 -25 171 -25 194 5 c 128,-1,18
 217 35 217 35 242.5 89.5 c 128,-1,19
 268 144 268 144 280 226 c 128,-1,20
 292 308 292 308 292 422 c 2,21,-1
 294 702 l 1,22,-1
 257 739 l 1,23,-1
 460 739 l 1,8,-1
766 664 m 1,24,-1
 712 750 l 1,25,-1
 766 836 l 1,26,-1
 820 750 l 1,27,-1
 766 664 l 1,24,-1
818 495 m 1,28,-1
 764 581 l 1,29,-1
 818 667 l 1,30,-1
 872 581 l 1,31,-1
 818 495 l 1,28,-1
EndSplineSet
EndChar

StartChar: Japan1.973
Encoding: 12497 12497 975
Width: 1000
GlyphClass: 2
Flags: W
LayerCount: 2
Fore
SplineSet
694 719 m 128,-1,1
 694 765 694 765 726 797 c 128,-1,2
 758 829 758 829 804 829 c 128,-1,3
 850 829 850 829 882 797 c 128,-1,4
 914 765 914 765 914 719 c 128,-1,5
 914 673 914 673 882 641 c 128,-1,6
 850 609 850 609 804 609 c 128,-1,7
 758 609 758 609 726 641 c 128,-1,0
 694 673 694 673 694 719 c 128,-1,1
744 719 m 128,-1,9
 744 694 744 694 761.5 676.5 c 128,-1,10
 779 659 779 659 804 659 c 128,-1,11
 829 659 829 659 846.5 676.5 c 128,-1,12
 864 694 864 694 864 719 c 128,-1,13
 864 744 864 744 847 761.5 c 128,-1,14
 830 779 830 779 804 779 c 0,15,16
 779 779 779 779 761.5 761.5 c 128,-1,8
 744 744 744 744 744 719 c 128,-1,9
888 8 m 1,17,-1
 689 -35 l 1,18,-1
 719 20 l 1,19,-1
 566 726 l 1,20,21
 631 695 631 695 680 637 c 128,-1,22
 729 579 729 579 747 494 c 2,23,-1
 842 47 l 1,24,-1
 888 8 l 1,17,-1
460 739 m 1,25,-1
 422 702 l 1,26,-1
 423 428 l 2,27,28
 422 350 422 350 414 288.5 c 128,-1,29
 406 227 406 227 386.5 167 c 128,-1,30
 367 107 367 107 335 64 c 128,-1,31
 303 21 303 21 251.5 -12.5 c 128,-1,32
 200 -46 200 -46 131 -63 c 1,33,34
 171 -25 171 -25 194 5 c 128,-1,35
 217 35 217 35 242.5 89.5 c 128,-1,36
 268 144 268 144 280 226 c 128,-1,37
 292 308 292 308 292 422 c 2,38,-1
 294 702 l 1,39,-1
 257 739 l 1,40,-1
 460 739 l 1,25,-1
EndSplineSet
EndChar

StartChar: Japan1.974
Encoding: 12498 12498 976
Width: 1000
GlyphClass: 2
Flags: W
LayerCount: 2
Fore
SplineSet
776 -33 m 1,0,-1
 740 -2 l 1,1,-1
 246 -2 l 1,2,-1
 246 727 l 1,3,-1
 209 764 l 1,4,-1
 406 764 l 1,5,-1
 372 727 l 1,6,-1
 372 116 l 1,7,-1
 740 116 l 1,8,-1
 776 150 l 1,9,-1
 776 -33 l 1,0,-1
802 491 m 1,10,-1
 747 505 l 1,11,-1
 635 447 l 2,12,13
 630 445 630 445 621 441 c 128,-1,14
 612 437 612 437 585 431 c 128,-1,15
 558 425 558 425 530.5 423.5 c 128,-1,16
 503 422 503 422 465.5 431 c 128,-1,17
 428 440 428 440 394 460 c 1,18,-1
 694 613 l 1,19,-1
 718 665 l 1,20,-1
 802 491 l 1,10,-1
EndSplineSet
EndChar

StartChar: Japan1.975
Encoding: 12499 12499 977
Width: 1000
GlyphClass: 2
Flags: W
LayerCount: 2
Fore
SplineSet
776 -33 m 1,0,-1
 740 -2 l 1,1,-1
 246 -2 l 1,2,-1
 246 727 l 1,3,-1
 209 764 l 1,4,-1
 406 764 l 1,5,-1
 372 727 l 1,6,-1
 372 116 l 1,7,-1
 740 116 l 1,8,-1
 776 150 l 1,9,-1
 776 -33 l 1,0,-1
800 487 m 1,10,-1
 744 498 l 1,11,-1
 636 433 l 2,12,13
 631 430 631 430 622.5 426 c 128,-1,14
 614 422 614 422 587 414 c 128,-1,15
 560 406 560 406 533 403.5 c 128,-1,16
 506 401 506 401 467.5 407.5 c 128,-1,17
 429 414 429 414 394 432 c 1,18,-1
 685 603 l 1,19,-1
 705 656 l 1,20,-1
 800 487 l 1,10,-1
808 622 m 1,21,-1
 754 708 l 1,22,-1
 808 794 l 1,23,-1
 862 708 l 1,24,-1
 808 622 l 1,21,-1
860 453 m 1,25,-1
 806 539 l 1,26,-1
 860 625 l 1,27,-1
 914 539 l 1,28,-1
 860 453 l 1,25,-1
EndSplineSet
EndChar

StartChar: Japan1.976
Encoding: 12500 12500 978
Width: 1000
GlyphClass: 2
Flags: W
LayerCount: 2
Fore
SplineSet
768 674 m 128,-1,1
 768 718 768 718 799 748.5 c 128,-1,2
 830 779 830 779 873 779 c 128,-1,3
 916 779 916 779 947 748.5 c 128,-1,4
 978 718 978 718 978 674 c 128,-1,5
 978 630 978 630 947 599.5 c 128,-1,6
 916 569 916 569 873 569 c 128,-1,7
 830 569 830 569 799 599.5 c 128,-1,0
 768 630 768 630 768 674 c 128,-1,1
816 674 m 0,8,9
 816 651 816 651 833 634 c 128,-1,10
 850 617 850 617 873 617 c 0,11,12
 897 617 897 617 913.5 634 c 128,-1,13
 930 651 930 651 930 674 c 0,14,15
 930 698 930 698 913.5 714.5 c 128,-1,16
 897 731 897 731 873 731 c 0,17,18
 850 731 850 731 833 714.5 c 128,-1,19
 816 698 816 698 816 674 c 0,8,9
776 -33 m 1,20,-1
 740 -2 l 1,21,-1
 246 -2 l 1,22,-1
 246 727 l 1,23,-1
 209 764 l 1,24,-1
 406 764 l 1,25,-1
 372 727 l 1,26,-1
 372 116 l 1,27,-1
 740 116 l 1,28,-1
 776 150 l 1,29,-1
 776 -33 l 1,20,-1
802 491 m 1,30,-1
 747 505 l 1,31,-1
 635 447 l 2,32,33
 630 445 630 445 621 441 c 128,-1,34
 612 437 612 437 585 431 c 128,-1,35
 558 425 558 425 530.5 423.5 c 128,-1,36
 503 422 503 422 465.5 431 c 128,-1,37
 428 440 428 440 394 460 c 1,38,-1
 694 613 l 1,39,-1
 718 665 l 1,40,-1
 802 491 l 1,30,-1
EndSplineSet
EndChar

StartChar: Japan1.977
Encoding: 12501 12501 979
Width: 1000
GlyphClass: 2
Flags: W
LayerCount: 2
Fore
SplineSet
256 721 m 1,0,-1
 797 721 l 1,1,2
 791 595 791 595 774.5 494.5 c 128,-1,3
 758 394 758 394 723 298.5 c 128,-1,4
 688 203 688 203 634.5 134 c 128,-1,5
 581 65 581 65 499 14.5 c 128,-1,6
 417 -36 417 -36 309 -59 c 1,7,8
 377 -8 377 -8 430 47.5 c 128,-1,9
 483 103 483 103 532 181 c 128,-1,10
 581 259 581 259 612 364 c 128,-1,11
 643 469 643 469 653 597 c 1,12,-1
 256 597 l 1,13,-1
 219 561 l 1,14,-1
 219 757 l 1,15,-1
 256 721 l 1,0,-1
EndSplineSet
EndChar

StartChar: Japan1.978
Encoding: 12502 12502 980
Width: 1000
GlyphClass: 2
Flags: W
LayerCount: 2
Fore
SplineSet
256 721 m 1,0,-1
 797 721 l 1,1,2
 791 595 791 595 774.5 494.5 c 128,-1,3
 758 394 758 394 723 298.5 c 128,-1,4
 688 203 688 203 634.5 134 c 128,-1,5
 581 65 581 65 499 14.5 c 128,-1,6
 417 -36 417 -36 309 -59 c 1,7,8
 377 -8 377 -8 430 47.5 c 128,-1,9
 483 103 483 103 532 181 c 128,-1,10
 581 259 581 259 612 364 c 128,-1,11
 643 469 643 469 653 597 c 1,12,-1
 256 597 l 1,13,-1
 219 561 l 1,14,-1
 219 757 l 1,15,-1
 256 721 l 1,0,-1
868 686 m 1,16,-1
 814 772 l 1,17,-1
 868 858 l 1,18,-1
 922 772 l 1,19,-1
 868 686 l 1,16,-1
920 517 m 1,20,-1
 866 603 l 1,21,-1
 920 689 l 1,22,-1
 974 603 l 1,23,-1
 920 517 l 1,20,-1
EndSplineSet
EndChar

StartChar: Japan1.979
Encoding: 12503 12503 981
Width: 1000
GlyphClass: 2
Flags: W
LayerCount: 2
Fore
SplineSet
668 726 m 2,0,1
 668 772 668 772 700 804 c 128,-1,2
 732 836 732 836 778 836 c 128,-1,3
 824 836 824 836 856 804 c 128,-1,4
 888 772 888 772 888 726 c 0,5,6
 888 681 888 681 857 649.5 c 128,-1,7
 826 618 826 618 782 616 c 1,8,9
 772 508 772 508 751.5 420 c 128,-1,10
 731 332 731 332 694.5 250.5 c 128,-1,11
 658 169 658 169 605.5 109.5 c 128,-1,12
 553 50 553 50 476 6 c 128,-1,13
 399 -38 399 -38 301 -59 c 1,14,15
 369 -8 369 -8 422.5 47.5 c 128,-1,16
 476 103 476 103 525.5 181 c 128,-1,17
 575 259 575 259 606.5 364.5 c 128,-1,18
 638 470 638 470 648 598 c 1,19,-1
 248 597 l 1,20,-1
 211 561 l 1,21,-1
 211 757 l 1,22,-1
 248 721 l 1,23,-1
 668 722 l 1,24,-1
 668 726 l 2,0,1
718 726 m 128,-1,26
 718 701 718 701 735.5 683.5 c 128,-1,27
 753 666 753 666 778 666 c 128,-1,28
 803 666 803 666 820.5 683.5 c 128,-1,29
 838 701 838 701 838 726 c 0,30,31
 838 752 838 752 821 769 c 128,-1,32
 804 786 804 786 778 786 c 0,33,34
 753 786 753 786 735.5 768.5 c 128,-1,25
 718 751 718 751 718 726 c 128,-1,26
EndSplineSet
EndChar

StartChar: Japan1.980
Encoding: 12504 12504 982
Width: 1000
GlyphClass: 2
Flags: W
LayerCount: 2
Fore
SplineSet
446 718 m 1,0,-1
 946 103 l 1,1,2
 803 68 803 68 681 221 c 2,3,-1
 437 523 l 1,4,-1
 242 310 l 1,5,-1
 243 245 l 1,6,-1
 88 392 l 1,7,-1
 148 397 l 1,8,-1
 446 718 l 1,0,-1
EndSplineSet
EndChar

StartChar: Japan1.981
Encoding: 12505 12505 983
Width: 1000
GlyphClass: 2
Flags: W
LayerCount: 2
Fore
SplineSet
446 718 m 1,0,-1
 946 103 l 1,1,2
 803 68 803 68 681 221 c 2,3,-1
 437 523 l 1,4,-1
 242 310 l 1,5,-1
 243 245 l 1,6,-1
 88 392 l 1,7,-1
 148 397 l 1,8,-1
 446 718 l 1,0,-1
679 537 m 1,9,-1
 625 623 l 1,10,-1
 679 709 l 1,11,-1
 733 623 l 1,12,-1
 679 537 l 1,9,-1
776 419 m 1,13,-1
 722 505 l 1,14,-1
 776 591 l 1,15,-1
 830 505 l 1,16,-1
 776 419 l 1,13,-1
EndSplineSet
EndChar

StartChar: Japan1.982
Encoding: 12506 12506 984
Width: 1000
GlyphClass: 2
Flags: W
LayerCount: 2
Fore
SplineSet
657 564 m 128,-1,1
 657 612 657 612 690.5 646 c 128,-1,2
 724 680 724 680 772 680 c 128,-1,3
 820 680 820 680 854 646 c 128,-1,4
 888 612 888 612 888 564 c 128,-1,5
 888 516 888 516 854 482.5 c 128,-1,6
 820 449 820 449 772 449 c 128,-1,7
 724 449 724 449 690.5 482.5 c 128,-1,0
 657 516 657 516 657 564 c 128,-1,1
709 564 m 0,8,9
 709 538 709 538 727.5 519.5 c 128,-1,10
 746 501 746 501 772 501 c 0,11,12
 799 501 799 501 817 519.5 c 128,-1,13
 835 538 835 538 835 564 c 0,14,15
 835 591 835 591 817 609 c 128,-1,16
 799 627 799 627 772 627 c 0,17,18
 746 627 746 627 727.5 609 c 128,-1,19
 709 591 709 591 709 564 c 0,8,9
446 718 m 1,20,-1
 946 103 l 1,21,22
 803 68 803 68 681 221 c 2,23,-1
 437 523 l 1,24,-1
 242 310 l 1,25,-1
 243 245 l 1,26,-1
 88 392 l 1,27,-1
 148 397 l 1,28,-1
 446 718 l 1,20,-1
EndSplineSet
EndChar

StartChar: Japan1.983
Encoding: 12507 12507 985
Width: 1000
GlyphClass: 2
Flags: W
LayerCount: 2
Fore
SplineSet
806 501 m 1,0,-1
 770 536 l 1,1,-1
 561 536 l 1,2,-1
 561 8 l 1,3,-1
 597 -28 l 1,4,-1
 412 -28 l 1,5,-1
 448 8 l 1,6,-1
 448 536 l 1,7,-1
 240 536 l 1,8,-1
 204 501 l 1,9,-1
 204 680 l 1,10,-1
 240 644 l 1,11,-1
 448 644 l 1,12,-1
 448 744 l 1,13,-1
 412 780 l 1,14,-1
 597 780 l 1,15,-1
 561 744 l 1,16,-1
 561 644 l 1,17,-1
 770 644 l 1,18,-1
 806 680 l 1,19,-1
 806 501 l 1,0,-1
154 44 m 1,20,-1
 189 79 l 1,21,22
 189 127 189 127 191 162 c 128,-1,23
 193 197 193 197 199.5 237.5 c 128,-1,24
 206 278 206 278 218.5 307 c 128,-1,25
 231 336 231 336 251 362.5 c 128,-1,26
 271 389 271 389 302 405.5 c 128,-1,27
 333 422 333 422 374 428 c 1,28,29
 332 380 332 380 323 318 c 128,-1,30
 314 256 314 256 314 110 c 0,31,32
 314 90 314 90 314 79 c 1,33,-1
 349 44 l 1,34,-1
 154 44 l 1,20,-1
856 44 m 1,35,-1
 661 44 l 1,36,-1
 696 79 l 1,37,38
 696 90 696 90 696 110 c 0,39,40
 696 256 696 256 687 318 c 128,-1,41
 678 380 678 380 636 428 c 1,42,43
 677 422 677 422 708 405.5 c 128,-1,44
 739 389 739 389 759 362.5 c 128,-1,45
 779 336 779 336 791.5 307 c 128,-1,46
 804 278 804 278 810.5 237.5 c 128,-1,47
 817 197 817 197 819 162 c 128,-1,48
 821 127 821 127 821 79 c 1,49,-1
 856 44 l 1,35,-1
EndSplineSet
EndChar

StartChar: Japan1.984
Encoding: 12508 12508 986
Width: 1000
GlyphClass: 2
Flags: W
LayerCount: 2
Fore
SplineSet
806 501 m 1,0,-1
 770 536 l 1,1,-1
 561 536 l 1,2,-1
 561 8 l 1,3,-1
 597 -28 l 1,4,-1
 412 -28 l 1,5,-1
 448 8 l 1,6,-1
 448 536 l 1,7,-1
 240 536 l 1,8,-1
 204 501 l 1,9,-1
 204 680 l 1,10,-1
 240 644 l 1,11,-1
 448 644 l 1,12,-1
 448 744 l 1,13,-1
 412 780 l 1,14,-1
 597 780 l 1,15,-1
 561 744 l 1,16,-1
 561 644 l 1,17,-1
 770 644 l 1,18,-1
 806 680 l 1,19,-1
 806 501 l 1,0,-1
154 44 m 1,20,-1
 189 79 l 1,21,22
 189 127 189 127 191 162 c 128,-1,23
 193 197 193 197 199.5 237.5 c 128,-1,24
 206 278 206 278 218.5 307 c 128,-1,25
 231 336 231 336 251 362.5 c 128,-1,26
 271 389 271 389 302 405.5 c 128,-1,27
 333 422 333 422 374 428 c 1,28,29
 332 380 332 380 323 318 c 128,-1,30
 314 256 314 256 314 110 c 0,31,32
 314 90 314 90 314 79 c 1,33,-1
 349 44 l 1,34,-1
 154 44 l 1,20,-1
856 44 m 1,35,-1
 661 44 l 1,36,-1
 696 79 l 1,37,38
 696 90 696 90 696 110 c 0,39,40
 696 256 696 256 687 318 c 128,-1,41
 678 380 678 380 636 428 c 1,42,43
 677 422 677 422 708 405.5 c 128,-1,44
 739 389 739 389 759 362.5 c 128,-1,45
 779 336 779 336 791.5 307 c 128,-1,46
 804 278 804 278 810.5 237.5 c 128,-1,47
 817 197 817 197 819 162 c 128,-1,48
 821 127 821 127 821 79 c 1,49,-1
 856 44 l 1,35,-1
838 672 m 1,50,-1
 784 758 l 1,51,-1
 838 844 l 1,52,-1
 892 758 l 1,53,-1
 838 672 l 1,50,-1
890 503 m 1,54,-1
 836 589 l 1,55,-1
 890 675 l 1,56,-1
 944 589 l 1,57,-1
 890 503 l 1,54,-1
EndSplineSet
EndChar

StartChar: Japan1.985
Encoding: 12509 12509 987
Width: 1000
GlyphClass: 2
Flags: W
LayerCount: 2
Fore
SplineSet
770 765 m 128,-1,1
 770 806 770 806 799.5 835.5 c 128,-1,2
 829 865 829 865 870 865 c 128,-1,3
 911 865 911 865 940.5 835.5 c 128,-1,4
 970 806 970 806 970 765 c 128,-1,5
 970 724 970 724 940.5 694.5 c 128,-1,6
 911 665 911 665 870 665 c 128,-1,7
 829 665 829 665 799.5 694.5 c 128,-1,0
 770 724 770 724 770 765 c 128,-1,1
816 765 m 128,-1,9
 816 742 816 742 832 726.5 c 128,-1,10
 848 711 848 711 870 711 c 128,-1,11
 892 711 892 711 908 726.5 c 128,-1,12
 924 742 924 742 924 765 c 128,-1,13
 924 788 924 788 908 803.5 c 128,-1,14
 892 819 892 819 870 819 c 128,-1,15
 848 819 848 819 832 803.5 c 128,-1,8
 816 788 816 788 816 765 c 128,-1,9
806 501 m 1,16,-1
 770 536 l 1,17,-1
 561 536 l 1,18,-1
 561 8 l 1,19,-1
 597 -28 l 1,20,-1
 412 -28 l 1,21,-1
 448 8 l 1,22,-1
 448 536 l 1,23,-1
 240 536 l 1,24,-1
 204 501 l 1,25,-1
 204 680 l 1,26,-1
 240 644 l 1,27,-1
 448 644 l 1,28,-1
 448 744 l 1,29,-1
 412 780 l 1,30,-1
 597 780 l 1,31,-1
 561 744 l 1,32,-1
 561 644 l 1,33,-1
 770 644 l 1,34,-1
 806 680 l 1,35,-1
 806 501 l 1,16,-1
154 44 m 1,36,-1
 189 79 l 1,37,38
 189 127 189 127 191 162 c 128,-1,39
 193 197 193 197 199.5 237.5 c 128,-1,40
 206 278 206 278 218.5 307 c 128,-1,41
 231 336 231 336 251 362.5 c 128,-1,42
 271 389 271 389 302 405.5 c 128,-1,43
 333 422 333 422 374 428 c 1,44,45
 332 380 332 380 323 318 c 128,-1,46
 314 256 314 256 314 110 c 0,47,48
 314 90 314 90 314 79 c 1,49,-1
 349 44 l 1,50,-1
 154 44 l 1,36,-1
856 44 m 1,51,-1
 661 44 l 1,52,-1
 696 79 l 1,53,54
 696 90 696 90 696 110 c 0,55,56
 696 256 696 256 687 318 c 128,-1,57
 678 380 678 380 636 428 c 1,58,59
 677 422 677 422 708 405.5 c 128,-1,60
 739 389 739 389 759 362.5 c 128,-1,61
 779 336 779 336 791.5 307 c 128,-1,62
 804 278 804 278 810.5 237.5 c 128,-1,63
 817 197 817 197 819 162 c 128,-1,64
 821 127 821 127 821 79 c 1,65,-1
 856 44 l 1,51,-1
EndSplineSet
EndChar

StartChar: Japan1.986
Encoding: 12510 12510 988
Width: 1000
GlyphClass: 2
Flags: W
LayerCount: 2
Fore
SplineSet
240 728 m 1,0,-1
 799 730 l 1,1,2
 796 674 796 674 792 635.5 c 128,-1,3
 788 597 788 597 780 549 c 128,-1,4
 772 501 772 501 759.5 468 c 128,-1,5
 747 435 747 435 726.5 399 c 128,-1,6
 706 363 706 363 678.5 339 c 128,-1,7
 651 315 651 315 611 295 c 128,-1,8
 571 275 571 275 521 265 c 1,9,10
 567 305 567 305 609.5 392.5 c 128,-1,11
 652 480 652 480 659 608 c 1,12,-1
 240 608 l 1,13,-1
 204 572 l 1,14,-1
 204 764 l 1,15,-1
 240 728 l 1,0,-1
706 70 m 1,16,-1
 549 -61 l 1,17,-1
 558 -1 l 1,18,-1
 297 326 l 1,19,-1
 242 333 l 1,20,-1
 394 456 l 1,21,-1
 390 401 l 1,22,-1
 651 74 l 1,23,-1
 706 70 l 1,16,-1
EndSplineSet
EndChar

StartChar: Japan1.987
Encoding: 12511 12511 989
Width: 1000
GlyphClass: 2
Flags: W
LayerCount: 2
Fore
SplineSet
817 667 m 1,0,-1
 755 470 l 1,1,-1
 726 521 l 1,2,-1
 310 645 l 1,3,-1
 256 618 l 1,4,-1
 317 819 l 1,5,-1
 349 768 l 1,6,-1
 765 644 l 1,7,-1
 817 667 l 1,0,-1
745 434 m 1,8,-1
 682 234 l 1,9,-1
 650 290 l 1,10,-1
 309 393 l 1,11,-1
 255 367 l 1,12,-1
 314 558 l 1,13,-1
 347 513 l 1,14,-1
 688 409 l 1,15,-1
 745 434 l 1,8,-1
799 127 m 1,16,-1
 739 -73 l 1,17,-1
 707 -19 l 1,18,-1
 224 128 l 1,19,-1
 173 103 l 1,20,-1
 236 306 l 1,21,-1
 263 252 l 1,22,-1
 746 106 l 1,23,-1
 799 127 l 1,16,-1
EndSplineSet
EndChar

StartChar: Japan1.988
Encoding: 12512 12512 990
Width: 1000
GlyphClass: 2
Flags: W
LayerCount: 2
Fore
SplineSet
495 770 m 1,0,-1
 459 734 l 1,1,-1
 459 529 l 2,2,3
 459 436 459 436 437 360.5 c 128,-1,4
 415 285 415 285 361.5 226 c 128,-1,5
 308 167 308 167 226 144 c 1,6,7
 336 279 336 279 336 529 c 2,8,-1
 336 734 l 1,9,-1
 300 770 l 1,10,-1
 495 770 l 1,0,-1
900 3 m 1,11,-1
 722 -60 l 1,12,-1
 742 -2 l 1,13,-1
 724 51 l 1,14,-1
 214 -16 l 1,15,-1
 177 -67 l 1,16,-1
 153 137 l 1,17,-1
 198 102 l 1,18,-1
 685 168 l 1,19,-1
 592 454 l 1,20,21
 718 442 718 442 762 305 c 2,22,-1
 849 36 l 1,23,-1
 900 3 l 1,11,-1
EndSplineSet
EndChar

StartChar: Japan1.989
Encoding: 12513 12513 991
Width: 1000
GlyphClass: 2
Flags: W
LayerCount: 2
Fore
SplineSet
827 341 m 1,0,-1
 740 155 l 1,1,-1
 721 215 l 1,2,-1
 605 266 l 1,3,4
 493 -41 493 -41 191 -60 c 1,5,6
 311 19 311 19 383 105.5 c 128,-1,7
 455 192 455 192 493 316 c 1,8,-1
 300 404 l 1,9,-1
 248 383 l 1,10,-1
 330 568 l 1,11,-1
 349 514 l 1,12,-1
 522 435 l 1,13,14
 532 512 532 512 532 608 c 2,15,-1
 532 750 l 1,16,-1
 496 786 l 1,17,-1
 696 786 l 1,18,-1
 660 750 l 1,19,-1
 660 608 l 2,20,21
 660 490 660 490 640 382 c 1,22,-1
 771 324 l 1,23,-1
 827 341 l 1,0,-1
EndSplineSet
EndChar

StartChar: Japan1.990
Encoding: 12514 12514 992
Width: 1000
GlyphClass: 2
Flags: W
LayerCount: 2
Fore
SplineSet
819 319 m 1,0,-1
 783 355 l 1,1,-1
 509 355 l 1,2,-1
 509 110 l 1,3,-1
 756 110 l 1,4,-1
 792 146 l 1,5,-1
 792 -46 l 1,6,-1
 756 -10 l 1,7,-1
 385 -10 l 1,8,-1
 385 355 l 1,9,-1
 218 355 l 1,10,-1
 181 319 l 1,11,-1
 181 497 l 1,12,-1
 218 462 l 1,13,-1
 385 462 l 1,14,-1
 385 642 l 1,15,-1
 252 642 l 1,16,-1
 216 606 l 1,17,-1
 216 786 l 1,18,-1
 252 750 l 1,19,-1
 735 750 l 1,20,-1
 772 786 l 1,21,-1
 772 606 l 1,22,-1
 735 642 l 1,23,-1
 509 642 l 1,24,-1
 509 462 l 1,25,-1
 783 462 l 1,26,-1
 819 497 l 1,27,-1
 819 319 l 1,0,-1
EndSplineSet
EndChar

StartChar: Japan1.991
Encoding: 12515 12515 993
Width: 1000
GlyphClass: 2
Flags: W
LayerCount: 2
Fore
SplineSet
462 502 m 1,0,-1
 799 502 l 1,1,2
 783 358 783 358 706.5 276.5 c 128,-1,3
 630 195 630 195 492 195 c 1,4,5
 493 196 493 196 508 206.5 c 128,-1,6
 523 217 523 217 529 221 c 128,-1,7
 535 225 535 225 550.5 238 c 128,-1,8
 566 251 566 251 574.5 260.5 c 128,-1,9
 583 270 583 270 597 286 c 128,-1,10
 611 302 611 302 619.5 317 c 128,-1,11
 628 332 628 332 637.5 352.5 c 128,-1,12
 647 373 647 373 653 395 c 1,13,-1
 462 395 l 1,14,-1
 462 -2 l 1,15,-1
 496 -36 l 1,16,-1
 322 -36 l 1,17,-1
 357 -2 l 1,18,-1
 357 395 l 1,19,-1
 260 395 l 1,20,-1
 227 362 l 1,21,-1
 227 536 l 1,22,-1
 260 502 l 1,23,-1
 357 502 l 1,24,-1
 357 626 l 1,25,-1
 323 660 l 1,26,-1
 496 660 l 1,27,-1
 462 626 l 1,28,-1
 462 502 l 1,0,-1
EndSplineSet
EndChar

StartChar: Japan1.992
Encoding: 12516 12516 994
Width: 1000
GlyphClass: 2
Flags: W
LayerCount: 2
Fore
SplineSet
439 608 m 1,0,-1
 853 608 l 1,1,2
 821 451 821 451 766 369 c 0,3,4
 670 224 670 224 476 224 c 1,5,6
 634 315 634 315 687 488 c 1,7,-1
 439 488 l 1,8,-1
 439 1 l 1,9,-1
 475 -36 l 1,10,-1
 279 -36 l 1,11,-1
 314 1 l 1,12,-1
 314 488 l 1,13,-1
 189 488 l 1,14,-1
 153 453 l 1,15,-1
 153 644 l 1,16,-1
 189 608 l 1,17,-1
 314 608 l 1,18,-1
 314 770 l 1,19,-1
 279 806 l 1,20,-1
 475 806 l 1,21,-1
 439 770 l 1,22,-1
 439 608 l 1,0,-1
EndSplineSet
EndChar

StartChar: Japan1.993
Encoding: 12517 12517 995
Width: 1000
GlyphClass: 2
Flags: W
LayerCount: 2
Fore
SplineSet
776 -27 m 1,0,-1
 743 7 l 1,1,-1
 275 7 l 1,2,-1
 241 -27 l 1,3,-1
 241 144 l 1,4,-1
 275 110 l 1,5,-1
 547 110 l 1,6,-1
 547 460 l 1,7,-1
 360 460 l 1,8,-1
 326 427 l 1,9,-1
 326 603 l 1,10,-1
 360 569 l 1,11,-1
 665 569 l 1,12,-1
 665 110 l 1,13,-1
 743 110 l 1,14,-1
 776 144 l 1,15,-1
 776 -27 l 1,0,-1
EndSplineSet
EndChar

StartChar: Japan1.994
Encoding: 12518 12518 996
Width: 1000
GlyphClass: 2
Flags: W
LayerCount: 2
Fore
SplineSet
834 -22 m 1,0,-1
 798 14 l 1,1,-1
 199 14 l 1,2,-1
 163 -22 l 1,3,-1
 163 161 l 1,4,-1
 199 125 l 1,5,-1
 555 125 l 1,6,-1
 555 584 l 1,7,-1
 304 584 l 1,8,-1
 268 548 l 1,9,-1
 268 741 l 1,10,-1
 304 705 l 1,11,-1
 681 705 l 1,12,-1
 681 125 l 1,13,-1
 798 125 l 1,14,-1
 834 161 l 1,15,-1
 834 -22 l 1,0,-1
EndSplineSet
EndChar

StartChar: Japan1.995
Encoding: 12519 12519 997
Width: 1000
GlyphClass: 2
Flags: W
LayerCount: 2
Fore
SplineSet
709 -1 m 1,0,-1
 319 -1 l 1,1,-1
 285 -35 l 1,2,-1
 285 139 l 1,3,-1
 319 106 l 1,4,-1
 596 106 l 1,5,-1
 596 526 l 1,6,-1
 319 526 l 1,7,-1
 285 493 l 1,8,-1
 285 667 l 1,9,-1
 319 633 l 1,10,-1
 709 633 l 1,11,-1
 709 -1 l 1,0,-1
368 364 m 1,12,-1
 558 364 l 1,13,14
 545 325 545 325 497.5 301.5 c 128,-1,15
 450 278 450 278 409 274 c 2,16,-1
 368 269 l 1,17,-1
 334 236 l 1,18,-1
 334 398 l 1,19,-1
 368 364 l 1,12,-1
EndSplineSet
EndChar

StartChar: Japan1.996
Encoding: 12520 12520 998
Width: 1000
GlyphClass: 2
Flags: W
LayerCount: 2
Fore
SplineSet
739 -4 m 1,0,-1
 260 -4 l 1,1,-1
 224 -39 l 1,2,-1
 224 153 l 1,3,-1
 260 117 l 1,4,-1
 616 117 l 1,5,-1
 616 634 l 1,6,-1
 260 634 l 1,7,-1
 224 598 l 1,8,-1
 224 790 l 1,9,-1
 260 754 l 1,10,-1
 739 754 l 1,11,-1
 739 -4 l 1,0,-1
323 426 m 1,12,-1
 576 426 l 1,13,14
 563 390 563 390 532.5 365 c 128,-1,15
 502 340 502 340 467 330.5 c 128,-1,16
 432 321 432 321 399 316.5 c 128,-1,17
 366 312 366 312 344 313 c 2,18,-1
 323 314 l 1,19,-1
 286 278 l 1,20,-1
 286 462 l 1,21,-1
 323 426 l 1,12,-1
EndSplineSet
EndChar

StartChar: Japan1.997
Encoding: 12521 12521 999
Width: 1000
GlyphClass: 2
Flags: W
LayerCount: 2
Fore
SplineSet
725 632 m 1,0,-1
 689 668 l 1,1,-1
 307 668 l 1,2,-1
 271 632 l 1,3,-1
 271 810 l 1,4,-1
 307 774 l 1,5,-1
 689 774 l 1,6,-1
 725 810 l 1,7,-1
 725 632 l 1,0,-1
250 540 m 1,8,-1
 787 540 l 1,9,10
 771 319 771 319 714 210 c 0,11,12
 590 -33 590 -33 311 -51 c 1,13,14
 451 24 451 24 538 141.5 c 128,-1,15
 625 259 625 259 639 418 c 1,16,-1
 250 419 l 1,17,-1
 214 384 l 1,18,-1
 214 576 l 1,19,-1
 250 540 l 1,8,-1
EndSplineSet
EndChar

StartChar: Japan1.998
Encoding: 12522 12522 1000
Width: 1000
GlyphClass: 2
Flags: W
LayerCount: 2
Fore
SplineSet
790 776 m 1,0,-1
 754 740 l 1,1,-1
 754 438 l 2,2,3
 754 364 754 364 748.5 307 c 128,-1,4
 743 250 743 250 725.5 186 c 128,-1,5
 708 122 708 122 678 76 c 128,-1,6
 648 30 648 30 596 -8.5 c 128,-1,7
 544 -47 544 -47 472 -67 c 1,8,9
 553 18 553 18 590 128.5 c 128,-1,10
 627 239 627 239 626 438 c 2,11,-1
 626 740 l 1,12,-1
 590 776 l 1,13,-1
 790 776 l 1,0,-1
413 259 m 1,14,-1
 218 259 l 1,15,-1
 253 295 l 1,16,-1
 253 716 l 1,17,-1
 218 752 l 1,18,-1
 413 752 l 1,19,-1
 377 716 l 1,20,-1
 377 295 l 1,21,-1
 413 259 l 1,14,-1
EndSplineSet
EndChar

StartChar: Japan1.999
Encoding: 12523 12523 1001
Width: 1000
GlyphClass: 2
Flags: W
LayerCount: 2
Fore
SplineSet
454 725 m 1,0,-1
 418 689 l 1,1,-1
 418 507 l 2,2,3
 418 439 418 439 414 385 c 128,-1,4
 410 331 410 331 400 271.5 c 128,-1,5
 390 212 390 212 370 166.5 c 128,-1,6
 350 121 350 121 319.5 79.5 c 128,-1,7
 289 38 289 38 241.5 9 c 128,-1,8
 194 -20 194 -20 133 -35 c 1,9,10
 229 79 229 79 259 186.5 c 128,-1,11
 289 294 289 294 289 507 c 2,12,-1
 289 689 l 1,13,-1
 253 725 l 1,14,-1
 454 725 l 1,0,-1
668 727 m 1,15,-1
 669 132 l 1,16,17
 705 136 705 136 720 140 c 0,18,19
 848 170 848 170 909 245 c 1,20,21
 900 148 900 148 859 95 c 128,-1,22
 818 42 818 42 741 19 c 0,23,24
 681 0 681 0 543 0 c 1,25,-1
 543 727 l 1,26,-1
 507 763 l 1,27,-1
 704 763 l 1,28,-1
 668 727 l 1,15,-1
EndSplineSet
EndChar

StartChar: Japan1.1000
Encoding: 12524 12524 1002
Width: 1000
GlyphClass: 2
Flags: W
LayerCount: 2
Fore
SplineSet
387 733 m 1,0,-1
 387 102 l 1,1,2
 530 129 530 129 641 227.5 c 128,-1,3
 752 326 752 326 817 468 c 1,4,5
 817 212 817 212 603 68 c 0,6,7
 473 -20 473 -20 262 -40 c 1,8,-1
 262 733 l 1,9,-1
 226 770 l 1,10,-1
 422 770 l 1,11,-1
 387 733 l 1,0,-1
EndSplineSet
EndChar

StartChar: Japan1.1001
Encoding: 12525 12525 1003
Width: 1000
GlyphClass: 2
Flags: W
LayerCount: 2
Fore
SplineSet
805 -6 m 1,0,-1
 206 -6 l 1,1,-1
 206 736 l 1,2,-1
 805 736 l 1,3,-1
 805 -6 l 1,0,-1
683 108 m 1,4,-1
 683 622 l 1,5,-1
 328 622 l 1,6,-1
 328 108 l 1,7,-1
 683 108 l 1,4,-1
EndSplineSet
EndChar

StartChar: Japan1.1002
Encoding: 12526 12526 1004
Width: 1000
GlyphClass: 2
Flags: W
LayerCount: 2
Fore
SplineSet
350 596 m 1,0,-1
 765 596 l 1,1,-1
 765 390 l 2,2,3
 764 315 764 315 748 250 c 128,-1,4
 732 185 732 185 698 124 c 128,-1,5
 664 63 664 63 600.5 24 c 128,-1,6
 537 -15 537 -15 450 -24 c 1,7,8
 487 3 487 3 507 19.5 c 128,-1,9
 527 36 527 36 559.5 73.5 c 128,-1,10
 592 111 592 111 609 150 c 128,-1,11
 626 189 626 189 639 252 c 128,-1,12
 652 315 652 315 650 390 c 2,13,-1
 650 494 l 1,14,-1
 350 494 l 1,15,-1
 350 361 l 1,16,-1
 383 328 l 1,17,-1
 212 328 l 1,18,-1
 246 361 l 1,19,-1
 246 623 l 1,20,-1
 211 656 l 1,21,-1
 383 656 l 1,22,-1
 350 623 l 1,23,-1
 350 596 l 1,0,-1
EndSplineSet
EndChar

StartChar: Japan1.1003
Encoding: 12527 12527 1005
Width: 1000
GlyphClass: 2
Flags: W
LayerCount: 2
Fore
SplineSet
338 702 m 1,0,-1
 815 702 l 1,1,2
 815 692 815 692 812.5 621.5 c 128,-1,3
 810 551 810 551 808.5 525.5 c 128,-1,4
 807 500 807 500 802.5 446.5 c 128,-1,5
 798 393 798 393 790.5 356 c 128,-1,6
 783 319 783 319 772 287 c 0,7,8
 747 214 747 214 718 160.5 c 128,-1,9
 689 107 689 107 643.5 57.5 c 128,-1,10
 598 8 598 8 531 -21.5 c 128,-1,11
 464 -51 464 -51 376 -60 c 1,12,13
 531 18 531 18 605 189 c 128,-1,14
 679 360 679 360 672 583 c 1,15,-1
 338 583 l 1,16,-1
 338 366 l 1,17,-1
 373 330 l 1,18,-1
 179 330 l 1,19,-1
 215 366 l 1,20,-1
 215 729 l 1,21,-1
 179 765 l 1,22,-1
 373 765 l 1,23,-1
 338 729 l 1,24,-1
 338 702 l 1,0,-1
EndSplineSet
EndChar

StartChar: Japan1.1004
Encoding: 12528 12528 1006
Width: 1000
GlyphClass: 2
Flags: W
LayerCount: 2
Fore
SplineSet
830 142 m 1,0,-1
 794 178 l 1,1,-1
 667 178 l 1,2,-1
 667 7 l 1,3,-1
 703 -30 l 1,4,-1
 520 -30 l 1,5,-1
 556 7 l 1,6,-1
 556 178 l 1,7,-1
 203 178 l 1,8,-1
 167 142 l 1,9,-1
 167 320 l 1,10,-1
 203 284 l 1,11,-1
 271 284 l 1,12,-1
 271 560 l 1,13,-1
 240 560 l 1,14,-1
 204 524 l 1,15,-1
 204 702 l 1,16,-1
 240 666 l 1,17,-1
 556 666 l 1,18,-1
 556 764 l 1,19,-1
 520 801 l 1,20,-1
 703 801 l 1,21,-1
 667 764 l 1,22,-1
 667 666 l 1,23,-1
 747 666 l 1,24,-1
 784 702 l 1,25,-1
 784 524 l 1,26,-1
 747 560 l 1,27,-1
 667 560 l 1,28,-1
 667 284 l 1,29,-1
 794 284 l 1,30,-1
 830 320 l 1,31,-1
 830 142 l 1,0,-1
556 284 m 1,32,-1
 556 560 l 1,33,-1
 392 560 l 1,34,-1
 392 284 l 1,35,-1
 556 284 l 1,32,-1
EndSplineSet
EndChar

StartChar: Japan1.1005
Encoding: 12529 12529 1007
Width: 1000
GlyphClass: 2
Flags: W
LayerCount: 2
Fore
SplineSet
741 724 m 1,0,-1
 741 568 l 2,1,2
 741 562 741 562 740.5 551.5 c 128,-1,3
 740 541 740 541 734 512.5 c 128,-1,4
 728 484 728 484 717.5 458.5 c 128,-1,5
 707 433 707 433 683.5 405 c 128,-1,6
 660 377 660 377 629 361 c 1,7,-1
 629 617 l 1,8,-1
 236 617 l 1,9,-1
 200 581 l 1,10,-1
 200 759 l 1,11,-1
 236 724 l 1,12,-1
 741 724 l 1,0,-1
828 -32 m 1,13,-1
 792 4 l 1,14,-1
 215 4 l 1,15,-1
 179 -32 l 1,16,-1
 179 146 l 1,17,-1
 215 110 l 1,18,-1
 423 110 l 1,19,-1
 423 487 l 1,20,-1
 387 523 l 1,21,-1
 571 523 l 1,22,-1
 535 487 l 1,23,-1
 535 110 l 1,24,-1
 792 110 l 1,25,-1
 828 146 l 1,26,-1
 828 -32 l 1,13,-1
EndSplineSet
EndChar

StartChar: Japan1.1006
Encoding: 12530 12530 1008
Width: 1000
GlyphClass: 2
Flags: W
LayerCount: 2
Fore
SplineSet
248 746 m 1,0,-1
 809 746 l 1,1,2
 799 468 799 468 714 267 c 0,3,4
 656 138 656 138 553 51.5 c 128,-1,5
 450 -35 450 -35 304 -53 c 1,6,7
 512 86 512 86 603 314 c 0,8,9
 649 436 649 436 662 624 c 1,10,-1
 248 624 l 1,11,-1
 212 588 l 1,12,-1
 212 782 l 1,13,-1
 248 746 l 1,0,-1
320 470 m 1,14,-1
 569 470 l 1,15,16
 568 465 568 465 564.5 457.5 c 128,-1,17
 561 450 561 450 543.5 431 c 128,-1,18
 526 412 526 412 501.5 397 c 128,-1,19
 477 382 477 382 429 370 c 128,-1,20
 381 358 381 358 320 358 c 1,21,-1
 284 322 l 1,22,-1
 284 506 l 1,23,-1
 320 470 l 1,14,-1
EndSplineSet
EndChar

StartChar: Japan1.1007
Encoding: 12531 12531 1009
Width: 1000
GlyphClass: 2
Flags: W
LayerCount: 2
Fore
SplineSet
598 572 m 1,0,-1
 562 608 l 1,1,-1
 258 608 l 1,2,-1
 222 572 l 1,3,-1
 222 766 l 1,4,-1
 258 731 l 1,5,-1
 562 731 l 1,6,-1
 598 766 l 1,7,-1
 598 572 l 1,0,-1
324 88 m 1,8,-1
 804 621 l 1,9,10
 834 458 834 458 720 333 c 2,11,-1
 419 2 l 1,12,-1
 421 -54 l 1,13,-1
 267 84 l 1,14,-1
 324 88 l 1,8,-1
EndSplineSet
EndChar

StartChar: Japan1.1008
Encoding: 12532 12532 1010
Width: 1000
GlyphClass: 2
Flags: W
LayerCount: 2
Fore
SplineSet
581 639 m 1,0,-1
 810 639 l 1,1,-1
 812 519 l 2,2,3
 814 365 814 365 783 243 c 0,4,5
 758 142 758 142 681.5 64.5 c 128,-1,6
 605 -13 605 -13 497 -32 c 1,7,8
 562 31 562 31 603 99.5 c 128,-1,9
 644 168 644 168 668 273 c 0,10,11
 687 358 687 358 687 522 c 1,12,-1
 326 522 l 1,13,-1
 326 354 l 1,14,-1
 362 318 l 1,15,-1
 170 318 l 1,16,-1
 206 354 l 1,17,-1
 206 653 l 1,18,-1
 170 689 l 1,19,-1
 362 689 l 1,20,-1
 326 653 l 1,21,-1
 326 639 l 1,22,-1
 465 639 l 1,23,-1
 465 774 l 1,24,-1
 429 811 l 1,25,-1
 617 811 l 1,26,-1
 581 774 l 1,27,-1
 581 639 l 1,0,-1
852 676 m 1,28,-1
 798 762 l 1,29,-1
 852 848 l 1,30,-1
 906 762 l 1,31,-1
 852 676 l 1,28,-1
904 507 m 1,32,-1
 850 593 l 1,33,-1
 904 679 l 1,34,-1
 958 593 l 1,35,-1
 904 507 l 1,32,-1
EndSplineSet
EndChar

StartChar: Japan1.1009
Encoding: 12533 12533 1011
Width: 1000
GlyphClass: 2
Flags: W
LayerCount: 2
Fore
SplineSet
742 2 m 1,0,-1
 543 2 l 1,1,-1
 509 -32 l 1,2,-1
 509 142 l 1,3,-1
 543 109 l 1,4,-1
 632 109 l 1,5,-1
 632 413 l 1,6,-1
 523 413 l 1,7,8
 480 76 480 76 255 8 c 1,9,10
 324 93 324 93 361.5 202 c 128,-1,11
 399 311 399 311 406 413 c 1,12,-1
 285 413 l 1,13,-1
 252 380 l 1,14,-1
 252 550 l 1,15,-1
 285 520 l 1,16,-1
 415 520 l 1,17,18
 417 588 417 588 418 646 c 1,19,-1
 385 680 l 1,20,-1
 565 680 l 1,21,-1
 532 646 l 1,22,23
 534 616 534 616 530 520 c 1,24,-1
 742 520 l 1,25,-1
 742 2 l 1,0,-1
EndSplineSet
EndChar

StartChar: Japan1.1010
Encoding: 12534 12534 1012
Width: 1000
GlyphClass: 2
Flags: W
LayerCount: 2
Fore
SplineSet
759 533 m 1,0,-1
 759 363 l 1,1,-1
 726 396 l 1,2,-1
 614 396 l 1,3,-1
 614 325 l 2,4,5
 614 175 614 175 549 74.5 c 128,-1,6
 484 -26 484 -26 350 -37 c 1,7,8
 373 -17 373 -17 386 -4.5 c 128,-1,9
 399 8 399 8 423.5 41.5 c 128,-1,10
 448 75 448 75 462 110 c 128,-1,11
 476 145 476 145 487.5 202.5 c 128,-1,12
 499 260 499 260 499 328 c 2,13,-1
 499 396 l 1,14,-1
 360 396 l 1,15,-1
 360 383 l 2,16,17
 359 323 359 323 326.5 267.5 c 128,-1,18
 294 212 294 212 252 186 c 1,19,-1
 252 603 l 1,20,-1
 218 637 l 1,21,-1
 394 637 l 1,22,-1
 360 603 l 1,23,-1
 360 499 l 1,24,-1
 726 499 l 1,25,-1
 759 533 l 1,0,-1
EndSplineSet
EndChar

StartChar: Japan1.7890
Encoding: 65075 65075 7892
Width: 1000
GlyphClass: 2
Flags: W
LayerCount: 2
Fore
SplineSet
612 727 m 1,0,-1
 576 687 l 1,1,-1
 576 78 l 1,2,-1
 612 38 l 1,3,-1
 405 38 l 1,4,-1
 441 78 l 1,5,-1
 441 687 l 1,6,-1
 405 727 l 1,7,-1
 612 727 l 1,0,-1
EndSplineSet
EndChar

StartChar: Japan1.7891
Encoding: 66124 -1 7893
Width: 1000
GlyphClass: 2
Flags: W
LayerCount: 2
Fore
SplineSet
612 727 m 1,0,-1
 576 687 l 1,1,-1
 576 78 l 1,2,-1
 612 38 l 1,3,-1
 405 38 l 1,4,-1
 441 78 l 1,5,-1
 441 687 l 1,6,-1
 405 727 l 1,7,-1
 612 727 l 1,0,-1
EndSplineSet
EndChar

StartChar: Japan1.7897
Encoding: 8942 8942 7899
Width: 1000
GlyphClass: 2
Flags: W
LayerCount: 2
Fore
SplineSet
499 142 m 128,-1,1
 538 142 538 142 566 114 c 128,-1,2
 594 86 594 86 594 47 c 0,3,4
 594 7 594 7 566 -21 c 128,-1,5
 538 -49 538 -49 499 -49 c 128,-1,6
 460 -49 460 -49 432 -21 c 128,-1,7
 404 7 404 7 404 47 c 0,8,9
 404 86 404 86 432 114 c 128,-1,0
 460 142 460 142 499 142 c 128,-1,1
499 458 m 128,-1,11
 538 458 538 458 566 430 c 128,-1,12
 594 402 594 402 594 363 c 0,13,14
 594 323 594 323 566 295 c 128,-1,15
 538 267 538 267 499 267 c 128,-1,16
 460 267 460 267 432 295 c 128,-1,17
 404 323 404 323 404 363 c 0,18,19
 404 402 404 402 432 430 c 128,-1,10
 460 458 460 458 499 458 c 128,-1,11
499 778 m 128,-1,21
 538 778 538 778 566 750 c 128,-1,22
 594 722 594 722 594 683 c 0,23,24
 594 643 594 643 566 615 c 128,-1,25
 538 587 538 587 499 587 c 128,-1,26
 460 587 460 587 432 615 c 128,-1,27
 404 643 404 643 404 683 c 0,28,29
 404 722 404 722 432 750 c 128,-1,20
 460 778 460 778 499 778 c 128,-1,21
EndSplineSet
EndChar

StartChar: Japan1.7898
Encoding: 65072 65072 7900
Width: 1000
GlyphClass: 2
Flags: W
LayerCount: 2
Fore
SplineSet
491 618 m 0,0,1
 530 618 530 618 558 590 c 128,-1,2
 586 562 586 562 586 523 c 0,3,4
 586 483 586 483 558 455 c 128,-1,5
 530 427 530 427 491 427 c 0,6,7
 451 427 451 427 423 455 c 128,-1,8
 395 483 395 483 395 523 c 0,9,10
 395 562 395 562 423 590 c 128,-1,11
 451 618 451 618 491 618 c 0,0,1
490 301 m 0,12,13
 530 301 530 301 558 273 c 128,-1,14
 586 245 586 245 586 206 c 0,15,16
 586 166 586 166 558 138 c 128,-1,17
 530 110 530 110 490 110 c 0,18,19
 451 110 451 110 423 138 c 128,-1,20
 395 166 395 166 395 206 c 0,21,22
 395 245 395 245 423 273 c 128,-1,23
 451 301 451 301 490 301 c 0,12,13
EndSplineSet
EndChar

StartChar: Japan1.7911
Encoding: 65089 65089 7913
Width: 1000
GlyphClass: 2
Flags: W
LayerCount: 2
Fore
SplineSet
975 -94 m 1,0,-1
 917 -94 l 1,1,-1
 917 250 l 1,2,-1
 87 250 l 1,3,-1
 87 308 l 1,4,-1
 975 308 l 1,5,-1
 975 -94 l 1,0,-1
EndSplineSet
EndChar

StartChar: Japan1.7912
Encoding: 65090 65090 7914
Width: 1000
GlyphClass: 2
Flags: W
LayerCount: 2
Fore
SplineSet
27 857 m 1,0,-1
 85 857 l 1,1,-1
 85 513 l 1,2,-1
 902 513 l 1,3,-1
 902 455 l 1,4,-1
 27 455 l 1,5,-1
 27 857 l 1,0,-1
EndSplineSet
EndChar

StartChar: Japan1.7913
Encoding: 65091 65091 7915
Width: 1000
GlyphClass: 2
Flags: W
LayerCount: 2
Fore
SplineSet
860 -98 m 1,0,-1
 860 77 l 1,1,-1
 104 77 l 1,2,-1
 104 193 l 1,3,-1
 973 193 l 1,4,-1
 973 -98 l 1,5,-1
 860 -98 l 1,0,-1
943 -68 m 1,6,-1
 943 163 l 1,7,-1
 134 163 l 1,8,-1
 134 107 l 1,9,-1
 890 107 l 1,10,-1
 890 -68 l 1,11,-1
 943 -68 l 1,6,-1
EndSplineSet
EndChar

StartChar: Japan1.7914
Encoding: 65092 65092 7916
Width: 1000
GlyphClass: 2
Flags: W
LayerCount: 2
Fore
SplineSet
134 855 m 1,0,-1
 134 680 l 1,1,-1
 885 680 l 1,2,-1
 885 564 l 1,3,-1
 21 564 l 1,4,-1
 21 855 l 1,5,-1
 134 855 l 1,0,-1
51 825 m 1,6,-1
 51 594 l 1,7,-1
 855 594 l 1,8,-1
 855 650 l 1,9,-1
 104 650 l 1,10,-1
 104 825 l 1,11,-1
 51 825 l 1,6,-1
EndSplineSet
EndChar

StartChar: Japan1.7918
Encoding: 66131 -1 7920
Width: 1000
GlyphClass: 2
Flags: W
LayerCount: 2
Fore
SplineSet
606 574 m 1,0,-1
 606 538 l 1,1,2
 678 534 678 534 733.5 501.5 c 128,-1,3
 789 469 789 469 817 419 c 128,-1,4
 845 369 845 369 851 306 c 128,-1,5
 857 243 857 243 829 179 c 0,6,7
 800 107 800 107 725 68 c 128,-1,8
 650 29 650 29 552 43 c 1,9,10
 618 70 618 70 664.5 108 c 128,-1,11
 711 146 711 146 735 216 c 0,12,13
 765 301 765 301 729 367 c 128,-1,14
 693 433 693 433 600 441 c 1,15,16
 591 383 591 383 561 341.5 c 128,-1,17
 531 300 531 300 504 284 c 1,18,-1
 504 422 l 1,19,20
 436 387 436 387 417.5 314.5 c 128,-1,21
 399 242 399 242 444 188 c 1,22,-1
 617 366 l 1,23,-1
 617 415 l 1,24,-1
 735 300 l 1,25,-1
 686 299 l 1,26,-1
 441 50 l 1,27,28
 355 101 355 101 326 202.5 c 128,-1,29
 297 304 297 304 339 384 c 0,30,31
 392 491 392 491 501 526 c 1,32,-1
 501 574 l 1,33,-1
 360 574 l 1,34,-1
 331 545 l 1,35,-1
 331 700 l 1,36,-1
 360 670 l 1,37,-1
 501 670 l 1,38,-1
 501 737 l 1,39,-1
 472 766 l 1,40,-1
 636 766 l 1,41,-1
 606 737 l 1,42,-1
 606 670 l 1,43,-1
 782 670 l 1,44,-1
 812 699 l 1,45,-1
 812 545 l 1,46,-1
 782 574 l 1,47,-1
 606 574 l 1,0,-1
EndSplineSet
EndChar

StartChar: Japan1.7919
Encoding: 66132 -1 7921
Width: 1000
GlyphClass: 2
Flags: W
LayerCount: 2
Fore
SplineSet
458 686 m 1,0,-1
 424 653 l 1,1,-1
 424 465 l 2,2,3
 424 351 424 351 431 294 c 0,4,5
 445 155 445 155 530 90 c 1,6,7
 458 88 458 88 399.5 134.5 c 128,-1,8
 341 181 341 181 322 278 c 0,9,10
 312 327 312 327 312 465 c 2,11,-1
 312 653 l 1,12,-1
 278 686 l 1,13,-1
 458 686 l 1,0,-1
899 220 m 1,14,-1
 719 220 l 1,15,-1
 753 254 l 1,16,-1
 753 377 l 2,17,18
 753 405 753 405 749 459 c 0,19,20
 741 539 741 539 723 580.5 c 128,-1,21
 705 622 705 622 664 658 c 1,22,23
 741 653 741 653 791.5 606.5 c 128,-1,24
 842 560 842 560 858 476 c 0,25,26
 866 437 866 437 866 377 c 2,27,-1
 866 254 l 1,28,-1
 899 220 l 1,14,-1
EndSplineSet
EndChar

StartChar: Japan1.7920
Encoding: 66133 -1 7922
Width: 1000
GlyphClass: 2
Flags: W
LayerCount: 2
Fore
SplineSet
610 768 m 1,0,-1
 741 663 l 1,1,2
 690 641 690 641 646.5 646.5 c 128,-1,3
 603 652 603 652 574 670 c 2,4,-1
 545 687 l 1,5,-1
 490 685 l 1,6,-1
 596 817 l 1,7,-1
 610 768 l 1,0,-1
428 594 m 1,8,-1
 560 594 l 2,9,10
 727 594 727 594 797.5 510.5 c 128,-1,11
 868 427 868 427 839 301 c 0,12,13
 812 185 812 185 709 106 c 128,-1,14
 606 27 606 27 463 41 c 1,15,16
 558 83 558 83 631.5 166.5 c 128,-1,17
 705 250 705 250 721 330 c 0,18,19
 735 399 735 399 695.5 442.5 c 128,-1,20
 656 486 656 486 558 486 c 2,21,-1
 428 486 l 1,22,-1
 394 453 l 1,23,-1
 394 628 l 1,24,-1
 428 594 l 1,8,-1
EndSplineSet
EndChar

StartChar: Japan1.7921
Encoding: 66134 -1 7923
Width: 1000
GlyphClass: 2
Flags: W
LayerCount: 2
Fore
SplineSet
408 605 m 1,0,-1
 739 605 l 1,1,2
 735 558 735 558 733.5 544 c 128,-1,3
 732 530 732 530 724.5 488 c 128,-1,4
 717 446 717 446 706.5 420.5 c 128,-1,5
 696 395 696 395 676 355 c 128,-1,6
 656 315 656 315 627 274 c 0,7,8
 579 206 579 206 497 152 c 128,-1,9
 415 98 415 98 327 80 c 1,10,11
 432 162 432 162 504 273 c 128,-1,12
 576 384 576 384 607 494 c 1,13,-1
 408 494 l 1,14,-1
 375 461 l 1,15,-1
 375 638 l 1,16,-1
 408 605 l 1,0,-1
871 45 m 1,17,-1
 838 78 l 1,18,-1
 651 78 l 1,19,-1
 651 223 l 1,20,-1
 620 256 l 1,21,-1
 789 256 l 1,22,-1
 756 223 l 1,23,-1
 756 187 l 1,24,-1
 838 187 l 1,25,-1
 871 220 l 1,26,-1
 871 45 l 1,17,-1
570 780 m 1,27,-1
 701 675 l 1,28,29
 650 653 650 653 606.5 658.5 c 128,-1,30
 563 664 563 664 534 682 c 2,31,-1
 505 699 l 1,32,-1
 450 697 l 1,33,-1
 556 829 l 1,34,-1
 570 780 l 1,27,-1
EndSplineSet
EndChar

StartChar: Japan1.7922
Encoding: 66135 -1 7924
Width: 1000
GlyphClass: 2
Flags: W
LayerCount: 2
Fore
SplineSet
597 557 m 1,0,-1
 597 520 l 1,1,2
 712 517 712 517 783 442.5 c 128,-1,3
 854 368 854 368 842 250 c 0,4,5
 834 165 834 165 776 114.5 c 128,-1,6
 718 64 718 64 624 56 c 1,7,8
 689 94 689 94 719 156 c 128,-1,9
 749 218 749 218 744.5 273.5 c 128,-1,10
 740 329 740 329 712 364 c 0,11,12
 674 413 674 413 597 419 c 1,13,-1
 597 68 l 1,14,-1
 416 68 l 1,15,16
 355 112 355 112 328 168.5 c 128,-1,17
 301 225 301 225 307.5 278.5 c 128,-1,18
 314 332 314 332 339 380.5 c 128,-1,19
 364 429 364 429 405.5 462.5 c 128,-1,20
 447 496 447 496 492 507 c 1,21,-1
 492 557 l 1,22,-1
 382 557 l 1,23,-1
 349 524 l 1,24,-1
 349 681 l 1,25,-1
 382 648 l 1,26,-1
 492 648 l 1,27,-1
 492 726 l 1,28,-1
 458 760 l 1,29,-1
 630 760 l 1,30,-1
 597 726 l 1,31,-1
 597 648 l 1,32,-1
 714 648 l 1,33,-1
 747 681 l 1,34,-1
 747 524 l 1,35,-1
 714 557 l 1,36,-1
 597 557 l 1,0,-1
945 504 m 1,37,-1
 778 504 l 1,38,-1
 812 537 l 1,39,40
 812 608 812 608 804.5 639.5 c 128,-1,41
 797 671 797 671 770 704 c 1,42,43
 837 701 837 701 876 659 c 128,-1,44
 915 617 915 617 912 537 c 1,45,-1
 945 504 l 1,37,-1
492 157 m 1,46,-1
 492 402 l 1,47,48
 453 384 453 384 429.5 338.5 c 128,-1,49
 406 293 406 293 410.5 240.5 c 128,-1,50
 415 188 415 188 452 157 c 1,51,-1
 492 157 l 1,46,-1
EndSplineSet
EndChar

StartChar: Japan1.7923
Encoding: 66136 -1 7925
Width: 1000
GlyphClass: 2
Flags: W
LayerCount: 2
Fore
SplineSet
372 708 m 1,0,-1
 406 674 l 1,1,-1
 558 674 l 2,2,3
 702 674 702 674 773 601.5 c 128,-1,4
 844 529 844 529 839 398 c 0,5,6
 833 247 833 247 728.5 163.5 c 128,-1,7
 624 80 624 80 444 103 c 1,8,9
 574 142 574 142 646.5 212.5 c 128,-1,10
 719 283 719 283 723 400 c 0,11,12
 726 488 726 488 688.5 528.5 c 128,-1,13
 651 569 651 569 558 569 c 2,14,-1
 406 569 l 1,15,-1
 372 535 l 1,16,-1
 372 708 l 1,0,-1
EndSplineSet
EndChar

StartChar: Japan1.7924
Encoding: 66137 -1 7926
Width: 1000
GlyphClass: 2
Flags: W
LayerCount: 2
Fore
SplineSet
533 729 m 1,0,-1
 533 569 l 1,1,-1
 640 569 l 2,2,3
 745 569 745 569 785 557 c 0,4,5
 840 542 840 542 866.5 495 c 128,-1,6
 893 448 893 448 885 397 c 128,-1,7
 877 346 877 346 842 315 c 0,8,9
 798 276 798 276 738.5 267 c 128,-1,10
 679 258 679 258 598 276 c 1,11,12
 667 298 667 298 706 321.5 c 128,-1,13
 745 345 745 345 766 382 c 1,14,15
 779 396 779 396 777.5 422 c 128,-1,16
 776 448 776 448 758 460 c 0,17,18
 742 467 742 467 702 469 c 128,-1,19
 662 471 662 471 533 469 c 1,20,-1
 533 85 l 1,21,-1
 566 52 l 1,22,-1
 383 52 l 1,23,-1
 420 85 l 1,24,-1
 420 466 l 1,25,-1
 331 466 l 1,26,-1
 297 433 l 1,27,-1
 297 604 l 1,28,-1
 331 570 l 1,29,-1
 420 570 l 1,30,-1
 420 729 l 1,31,-1
 387 762 l 1,32,-1
 566 762 l 1,33,-1
 533 729 l 1,0,-1
746 760 m 1,34,-1
 713 726 l 1,35,-1
 713 578 l 1,36,37
 686 591 686 591 665.5 610.5 c 128,-1,38
 645 630 645 630 636 649.5 c 128,-1,39
 627 669 627 669 621.5 686.5 c 128,-1,40
 616 704 616 704 616 715 c 2,41,-1
 615 726 l 1,42,-1
 582 760 l 1,43,-1
 746 760 l 1,34,-1
EndSplineSet
EndChar

StartChar: Japan1.7925
Encoding: 66138 -1 7927
Width: 1000
GlyphClass: 2
Flags: W
LayerCount: 2
Fore
SplineSet
662 651 m 1,0,1
 762 642 762 642 821 572 c 128,-1,2
 880 502 880 502 882 406 c 0,3,4
 884 316 884 316 832.5 240.5 c 128,-1,5
 781 165 781 165 678 135 c 1,6,7
 731 201 731 201 755 263.5 c 128,-1,8
 779 326 779 326 775 402 c 0,9,10
 772 463 772 463 742.5 501 c 128,-1,11
 713 539 713 539 662 550 c 1,12,-1
 662 73 l 1,13,-1
 694 39 l 1,14,-1
 522 39 l 1,15,-1
 554 73 l 1,16,-1
 554 546 l 1,17,18
 512 528 512 528 480.5 488.5 c 128,-1,19
 449 449 449 449 441 391 c 1,20,-1
 441 191 l 1,21,-1
 472 159 l 1,22,-1
 305 159 l 1,23,-1
 336 191 l 1,24,-1
 336 660 l 1,25,-1
 305 694 l 1,26,-1
 472 694 l 1,27,-1
 441 660 l 1,28,-1
 441 585 l 1,29,30
 452 601 452 601 486 619 c 128,-1,31
 520 637 520 637 554 647 c 1,32,-1
 554 721 l 1,33,-1
 522 755 l 1,34,-1
 694 755 l 1,35,-1
 662 721 l 1,36,-1
 662 651 l 1,0,1
EndSplineSet
EndChar

StartChar: Japan1.7926
Encoding: 66139 -1 7928
Width: 1000
GlyphClass: 2
Flags: W
LayerCount: 2
Fore
SplineSet
639 549 m 1,0,-1
 639 423 l 1,1,2
 734 410 734 410 789 333.5 c 128,-1,3
 844 257 844 257 824 156 c 1,4,5
 796 222 796 222 752.5 262 c 128,-1,6
 709 302 709 302 639 316 c 1,7,-1
 639 59 l 1,8,-1
 456 59 l 1,9,10
 403 86 403 86 375 127 c 128,-1,11
 347 168 347 168 347 209 c 128,-1,12
 347 250 347 250 363 293 c 0,13,14
 384 340 384 340 427 374 c 128,-1,15
 470 408 470 408 529 420 c 1,16,-1
 529 740 l 1,17,-1
 495 774 l 1,18,-1
 672 774 l 1,19,-1
 639 740 l 1,20,-1
 639 657 l 1,21,-1
 785 657 l 1,22,-1
 819 690 l 1,23,-1
 819 516 l 1,24,-1
 785 549 l 1,25,-1
 639 549 l 1,0,-1
529 161 m 1,26,-1
 529 308 l 1,27,28
 475 287 475 287 459.5 239.5 c 128,-1,29
 444 192 444 192 485 161 c 1,30,-1
 529 161 l 1,26,-1
EndSplineSet
EndChar

StartChar: Japan1.7927
Encoding: 66140 -1 7929
Width: 1000
GlyphClass: 2
Flags: W
LayerCount: 2
Fore
SplineSet
534 745 m 1,0,-1
 534 589 l 1,1,2
 602 670 602 670 675 685 c 0,3,4
 717 693 717 693 756 680 c 128,-1,5
 795 667 795 667 823 635 c 0,6,7
 845 610 845 610 856 576 c 128,-1,8
 867 542 867 542 869 517.5 c 128,-1,9
 871 493 871 493 872 450 c 2,10,-1
 872 357 l 2,11,12
 872 211 872 211 802.5 148 c 128,-1,13
 733 85 733 85 622 90 c 1,14,15
 647 103 647 103 667.5 118.5 c 128,-1,16
 688 134 688 134 702.5 151 c 128,-1,17
 717 168 717 168 727.5 184 c 128,-1,18
 738 200 738 200 744 219 c 128,-1,19
 750 238 750 238 754 251.5 c 128,-1,20
 758 265 758 265 759.5 283.5 c 128,-1,21
 761 302 761 302 761.5 310.5 c 128,-1,22
 762 319 762 319 761.5 334.5 c 128,-1,23
 761 350 761 350 761 351 c 2,24,-1
 761 449 l 2,25,26
 760 486 760 486 759.5 501 c 128,-1,27
 759 516 759 516 754 535 c 128,-1,28
 749 554 749 554 740 565 c 0,29,30
 723 583 723 583 696 578 c 0,31,32
 675 574 675 574 652.5 558 c 128,-1,33
 630 542 630 542 606.5 514.5 c 128,-1,34
 583 487 583 487 569 468.5 c 128,-1,35
 555 450 555 450 534 420 c 1,36,-1
 534 95 l 1,37,-1
 567 62 l 1,38,-1
 395 62 l 1,39,-1
 429 95 l 1,40,-1
 429 295 l 2,41,42
 427 293 427 293 424 290 c 128,-1,43
 421 287 421 287 411.5 278.5 c 128,-1,44
 402 270 402 270 391.5 262.5 c 128,-1,45
 381 255 381 255 366.5 247 c 128,-1,46
 352 239 352 239 338 234.5 c 128,-1,47
 324 230 324 230 307.5 230 c 128,-1,48
 291 230 291 230 277 236 c 1,49,-1
 429 459 l 1,50,-1
 429 549 l 1,51,-1
 355 549 l 1,52,-1
 321 516 l 1,53,-1
 321 679 l 1,54,-1
 355 645 l 1,55,-1
 429 645 l 1,56,-1
 429 745 l 1,57,-1
 395 778 l 1,58,-1
 567 778 l 1,59,-1
 534 745 l 1,0,-1
EndSplineSet
EndChar

StartChar: Japan1.7928
Encoding: 66141 -1 7930
Width: 1000
GlyphClass: 2
Flags: W
LayerCount: 2
Fore
SplineSet
843 320 m 1,0,-1
 667 320 l 1,1,-1
 633 287 l 1,2,-1
 633 460 l 1,3,-1
 667 427 l 1,4,-1
 732 427 l 1,5,-1
 732 585 l 1,6,-1
 366 585 l 1,7,-1
 332 551 l 1,8,-1
 332 723 l 1,9,-1
 366 692 l 1,10,-1
 843 692 l 1,11,-1
 843 320 l 1,0,-1
639 512 m 1,12,-1
 605 478 l 1,13,-1
 605 418 l 2,14,15
 605 340 605 340 596.5 283 c 128,-1,16
 588 226 588 226 566 173.5 c 128,-1,17
 544 121 544 121 500 88 c 128,-1,18
 456 55 456 55 390 43 c 1,19,20
 462 115 462 115 480.5 194.5 c 128,-1,21
 499 274 499 274 499 418 c 2,22,-1
 499 478 l 1,23,-1
 466 512 l 1,24,-1
 639 512 l 1,12,-1
EndSplineSet
EndChar

StartChar: Japan1.7929
Encoding: 66142 -1 7931
Width: 1000
GlyphClass: 2
Flags: W
LayerCount: 2
Fore
SplineSet
881 635 m 1,0,-1
 831 637 l 1,1,-1
 710 537 l 1,2,-1
 710 105 l 1,3,-1
 743 70 l 1,4,-1
 565 70 l 1,5,-1
 599 105 l 1,6,-1
 599 445 l 1,7,-1
 550 404 l 2,8,9
 504 368 504 368 437 353.5 c 128,-1,10
 370 339 370 339 313 350 c 1,11,-1
 764 719 l 1,12,-1
 770 770 l 1,13,-1
 881 635 l 1,0,-1
EndSplineSet
EndChar

StartChar: Japan1.7930
Encoding: 66143 -1 7932
Width: 1000
GlyphClass: 2
Flags: W
LayerCount: 2
Fore
SplineSet
647 638 m 1,0,-1
 841 638 l 1,1,-1
 841 485 l 2,2,3
 840 424 840 424 834 374.5 c 128,-1,4
 828 325 828 325 811 271 c 128,-1,5
 794 217 794 217 766.5 178.5 c 128,-1,6
 739 140 739 140 692 110.5 c 128,-1,7
 645 81 645 81 582 71 c 1,8,9
 610 99 610 99 623.5 114.5 c 128,-1,10
 637 130 637 130 662 168.5 c 128,-1,11
 687 207 687 207 699 245 c 128,-1,12
 711 283 711 283 720.5 346.5 c 128,-1,13
 730 410 730 410 729 485 c 2,14,-1
 729 536 l 1,15,-1
 428 536 l 1,16,-1
 428 370 l 1,17,-1
 462 337 l 1,18,-1
 290 337 l 1,19,-1
 324 370 l 1,20,-1
 324 664 l 1,21,-1
 290 698 l 1,22,-1
 462 698 l 1,23,-1
 428 664 l 1,24,-1
 428 638 l 1,25,-1
 538 638 l 1,26,-1
 538 727 l 1,27,-1
 505 761 l 1,28,-1
 680 761 l 1,29,-1
 647 727 l 1,30,-1
 647 638 l 1,0,-1
EndSplineSet
EndChar

StartChar: Japan1.7931
Encoding: 66144 -1 7933
Width: 1000
GlyphClass: 2
Flags: W
LayerCount: 2
Fore
SplineSet
861 85 m 1,0,-1
 828 118 l 1,1,-1
 368 118 l 1,2,-1
 334 85 l 1,3,-1
 334 248 l 1,4,-1
 368 214 l 1,5,-1
 535 214 l 1,6,-1
 535 580 l 1,7,-1
 403 580 l 1,8,-1
 369 546 l 1,9,-1
 369 709 l 1,10,-1
 403 676 l 1,11,-1
 790 676 l 1,12,-1
 823 708 l 1,13,-1
 823 547 l 1,14,-1
 790 580 l 1,15,-1
 650 580 l 1,16,-1
 650 214 l 1,17,-1
 828 214 l 1,18,-1
 861 248 l 1,19,-1
 861 85 l 1,0,-1
EndSplineSet
EndChar

StartChar: Japan1.7932
Encoding: 66145 -1 7934
Width: 1000
GlyphClass: 2
Flags: W
LayerCount: 2
Fore
SplineSet
883 497 m 1,0,-1
 850 530 l 1,1,-1
 761 530 l 1,2,-1
 761 106 l 1,3,-1
 794 73 l 1,4,-1
 619 73 l 1,5,-1
 652 106 l 1,6,-1
 652 530 l 1,7,-1
 390 530 l 1,8,-1
 356 497 l 1,9,-1
 356 661 l 1,10,-1
 390 626 l 1,11,-1
 652 626 l 1,12,-1
 652 721 l 1,13,-1
 619 754 l 1,14,-1
 794 754 l 1,15,-1
 761 721 l 1,16,-1
 761 626 l 1,17,-1
 850 626 l 1,18,-1
 883 660 l 1,19,-1
 883 497 l 1,0,-1
634 465 m 1,20,-1
 592 441 l 1,21,-1
 511 213 l 2,22,23
 492 159 492 159 443.5 116.5 c 128,-1,24
 395 74 395 74 344 62 c 1,25,-1
 493 476 l 1,26,-1
 477 522 l 1,27,-1
 634 465 l 1,20,-1
EndSplineSet
EndChar

StartChar: Japan1.7933
Encoding: 66146 -1 7935
Width: 1000
GlyphClass: 2
Flags: W
LayerCount: 2
Fore
SplineSet
915 652 m 1,0,-1
 867 625 l 1,1,-1
 695 220 l 2,2,3
 671 161 671 161 619 120.5 c 128,-1,4
 567 80 567 80 511 73 c 1,5,-1
 767 667 l 1,6,-1
 748 720 l 1,7,-1
 915 652 l 1,0,-1
463 414 m 1,8,-1
 292 414 l 1,9,-1
 326 452 l 1,10,-1
 326 663 l 1,11,-1
 292 701 l 1,12,-1
 463 701 l 1,13,-1
 429 663 l 1,14,-1
 429 452 l 1,15,-1
 463 414 l 1,8,-1
644 701 m 1,16,-1
 611 663 l 1,17,-1
 611 452 l 1,18,-1
 644 414 l 1,19,-1
 474 414 l 1,20,-1
 508 452 l 1,21,-1
 508 663 l 1,22,-1
 474 701 l 1,23,-1
 644 701 l 1,16,-1
EndSplineSet
EndChar

StartChar: Japan1.7934
Encoding: 66147 -1 7936
Width: 1000
GlyphClass: 2
Flags: W
LayerCount: 2
Fore
SplineSet
568 599 m 1,0,-1
 905 599 l 1,1,2
 889 455 889 455 812.5 373.5 c 128,-1,3
 736 292 736 292 598 292 c 1,4,5
 599 293 599 293 614 303.5 c 128,-1,6
 629 314 629 314 635 318 c 128,-1,7
 641 322 641 322 656.5 335 c 128,-1,8
 672 348 672 348 680.5 357.5 c 128,-1,9
 689 367 689 367 703 383 c 128,-1,10
 717 399 717 399 725.5 414 c 128,-1,11
 734 429 734 429 743.5 449.5 c 128,-1,12
 753 470 753 470 759 492 c 1,13,-1
 568 492 l 1,14,-1
 568 95 l 1,15,-1
 602 61 l 1,16,-1
 428 61 l 1,17,-1
 463 95 l 1,18,-1
 463 492 l 1,19,-1
 366 492 l 1,20,-1
 333 459 l 1,21,-1
 333 633 l 1,22,-1
 366 599 l 1,23,-1
 463 599 l 1,24,-1
 463 723 l 1,25,-1
 429 757 l 1,26,-1
 602 757 l 1,27,-1
 568 723 l 1,28,-1
 568 599 l 1,0,-1
EndSplineSet
EndChar

StartChar: Japan1.7935
Encoding: 66148 -1 7937
Width: 1000
GlyphClass: 2
Flags: W
LayerCount: 2
Fore
SplineSet
876 83 m 1,0,-1
 843 117 l 1,1,-1
 375 117 l 1,2,-1
 341 83 l 1,3,-1
 341 254 l 1,4,-1
 375 220 l 1,5,-1
 647 220 l 1,6,-1
 647 570 l 1,7,-1
 460 570 l 1,8,-1
 426 537 l 1,9,-1
 426 713 l 1,10,-1
 460 679 l 1,11,-1
 765 679 l 1,12,-1
 765 220 l 1,13,-1
 843 220 l 1,14,-1
 876 254 l 1,15,-1
 876 83 l 1,0,-1
EndSplineSet
EndChar

StartChar: Japan1.7936
Encoding: 66149 -1 7938
Width: 1000
GlyphClass: 2
Flags: W
LayerCount: 2
Fore
SplineSet
804 76 m 1,0,-1
 414 76 l 1,1,-1
 380 42 l 1,2,-1
 380 216 l 1,3,-1
 414 183 l 1,4,-1
 691 183 l 1,5,-1
 691 603 l 1,6,-1
 414 603 l 1,7,-1
 380 570 l 1,8,-1
 380 744 l 1,9,-1
 414 710 l 1,10,-1
 804 710 l 1,11,-1
 804 76 l 1,0,-1
463 441 m 1,12,-1
 653 441 l 1,13,14
 640 402 640 402 592.5 378.5 c 128,-1,15
 545 355 545 355 504 350 c 2,16,-1
 463 346 l 1,17,-1
 429 313 l 1,18,-1
 429 475 l 1,19,-1
 463 441 l 1,12,-1
EndSplineSet
EndChar

StartChar: Japan1.7937
Encoding: 66150 -1 7939
Width: 1000
GlyphClass: 2
Flags: W
LayerCount: 2
Fore
SplineSet
430 676 m 1,0,-1
 845 676 l 1,1,-1
 845 470 l 2,2,3
 844 392 844 392 833 331 c 128,-1,4
 822 270 822 270 795.5 208.5 c 128,-1,5
 769 147 769 147 715.5 107.5 c 128,-1,6
 662 68 662 68 584 56 c 1,7,8
 611 83 611 83 625.5 99 c 128,-1,9
 640 115 640 115 664 153 c 128,-1,10
 688 191 688 191 700.5 229.5 c 128,-1,11
 713 268 713 268 722.5 331.5 c 128,-1,12
 732 395 732 395 730 470 c 2,13,-1
 730 574 l 1,14,-1
 430 574 l 1,15,-1
 430 441 l 1,16,-1
 463 408 l 1,17,-1
 292 408 l 1,18,-1
 326 441 l 1,19,-1
 326 703 l 1,20,-1
 291 736 l 1,21,-1
 463 736 l 1,22,-1
 430 703 l 1,23,-1
 430 676 l 1,0,-1
EndSplineSet
EndChar

StartChar: Japan1.7938
Encoding: 66151 -1 7940
Width: 1000
GlyphClass: 2
Flags: W
LayerCount: 2
Fore
SplineSet
822 82 m 1,0,-1
 623 82 l 1,1,-1
 589 48 l 1,2,-1
 589 222 l 1,3,-1
 623 189 l 1,4,-1
 712 189 l 1,5,-1
 712 493 l 1,6,-1
 603 493 l 1,7,8
 560 156 560 156 335 88 c 1,9,10
 404 173 404 173 441.5 282 c 128,-1,11
 479 391 479 391 486 493 c 1,12,-1
 365 493 l 1,13,-1
 332 460 l 1,14,-1
 332 634 l 1,15,-1
 365 600 l 1,16,-1
 495 600 l 1,17,18
 497 668 497 668 498 726 c 1,19,-1
 465 760 l 1,20,-1
 645 760 l 1,21,-1
 612 726 l 1,22,23
 614 696 614 696 610 600 c 1,24,-1
 822 600 l 1,25,-1
 822 82 l 1,0,-1
EndSplineSet
EndChar

StartChar: Japan1.7939
Encoding: 66152 -1 7941
Width: 1000
GlyphClass: 2
Flags: W
LayerCount: 2
Fore
SplineSet
887 645 m 1,0,-1
 887 475 l 1,1,-1
 854 508 l 1,2,-1
 742 508 l 1,3,-1
 742 437 l 2,4,5
 742 287 742 287 677 186.5 c 128,-1,6
 612 86 612 86 478 75 c 1,7,8
 501 95 501 95 514 107.5 c 128,-1,9
 527 120 527 120 551.5 153.5 c 128,-1,10
 576 187 576 187 590 222 c 128,-1,11
 604 257 604 257 615.5 314.5 c 128,-1,12
 627 372 627 372 627 440 c 2,13,-1
 627 508 l 1,14,-1
 488 508 l 1,15,-1
 488 495 l 2,16,17
 487 435 487 435 454.5 379.5 c 128,-1,18
 422 324 422 324 380 298 c 1,19,-1
 380 715 l 1,20,-1
 346 749 l 1,21,-1
 522 749 l 1,22,-1
 488 715 l 1,23,-1
 488 611 l 1,24,-1
 854 611 l 1,25,-1
 887 645 l 1,0,-1
EndSplineSet
EndChar

StartChar: Japan1.7958
Encoding: 12436 12436 7960
Width: 1000
GlyphClass: 2
Flags: W
LayerCount: 2
Fore
SplineSet
764 551 m 5,0,-1
 710 637 l 5,1,-1
 764 723 l 5,2,-1
 818 637 l 5,3,-1
 764 551 l 5,0,-1
848 398 m 5,4,-1
 794 484 l 5,5,-1
 848 570 l 5,6,-1
 902 484 l 5,7,-1
 848 398 l 5,4,-1
484 811 m 1,8,-1
 662 683 l 1,9,10
 628 665 628 665 589.5 661 c 128,-1,11
 551 657 551 657 520.5 664.5 c 128,-1,12
 490 672 490 672 464.5 682 c 128,-1,13
 439 692 439 692 425 702 c 2,14,-1
 411 711 l 1,15,-1
 350 698 l 1,16,-1
 480 870 l 1,17,-1
 484 811 l 1,8,-1
443 617 m 2,18,-1
 268 617 l 1,19,-1
 232 652 l 1,20,-1
 232 462 l 1,21,-1
 268 498 l 1,22,-1
 442 498 l 2,23,24
 616 498 616 498 648 393 c 0,25,26
 675 298 675 298 607 180 c 0,27,28
 516 21 516 21 327 -70 c 1,29,30
 444 -68 444 -68 539 -22.5 c 128,-1,31
 634 23 634 23 696 104 c 0,32,33
 759 186 759 186 776.5 278 c 128,-1,34
 794 370 794 370 760 464 c 1,35,36
 691 617 691 617 443 617 c 2,18,-1
EndSplineSet
EndChar

StartChar: Japan1.8313
Encoding: 12535 12535 8315
Width: 1000
GlyphClass: 2
Flags: W
LayerCount: 2
Fore
SplineSet
848 703 m 1,0,-1
 794 789 l 1,1,-1
 848 875 l 1,2,-1
 902 789 l 1,3,-1
 848 703 l 1,0,-1
908 550 m 5,4,-1
 854 636 l 5,5,-1
 908 722 l 5,6,-1
 962 636 l 5,7,-1
 908 550 l 5,4,-1
338 702 m 1,8,-1
 815 702 l 1,9,10
 815 692 815 692 812.5 621.5 c 128,-1,11
 810 551 810 551 808.5 525.5 c 128,-1,12
 807 500 807 500 802.5 446.5 c 128,-1,13
 798 393 798 393 790.5 356 c 128,-1,14
 783 319 783 319 772 287 c 0,15,16
 747 214 747 214 718 160.5 c 128,-1,17
 689 107 689 107 643.5 57.5 c 128,-1,18
 598 8 598 8 531 -21.5 c 128,-1,19
 464 -51 464 -51 376 -60 c 1,20,21
 531 18 531 18 605 189 c 128,-1,22
 679 360 679 360 672 583 c 1,23,-1
 338 583 l 1,24,-1
 338 366 l 1,25,-1
 373 330 l 1,26,-1
 179 330 l 1,27,-1
 215 366 l 1,28,-1
 215 729 l 1,29,-1
 179 765 l 1,30,-1
 373 765 l 1,31,-1
 338 729 l 1,32,-1
 338 702 l 1,8,-1
EndSplineSet
EndChar

StartChar: Japan1.8314
Encoding: 12536 12536 8316
Width: 1000
GlyphClass: 2
Flags: W
LayerCount: 2
Fore
SplineSet
814 727 m 1,0,-1
 760 813 l 1,1,-1
 814 899 l 1,2,-1
 868 813 l 1,3,-1
 814 727 l 1,0,-1
883 574 m 1,4,-1
 829 660 l 1,5,-1
 883 746 l 1,6,-1
 937 660 l 1,7,-1
 883 574 l 1,4,-1
830 142 m 1,8,-1
 794 178 l 1,9,-1
 667 178 l 1,10,-1
 667 7 l 1,11,-1
 703 -30 l 1,12,-1
 520 -30 l 1,13,-1
 556 7 l 1,14,-1
 556 178 l 1,15,-1
 203 178 l 1,16,-1
 167 142 l 1,17,-1
 167 320 l 1,18,-1
 203 284 l 1,19,-1
 271 284 l 1,20,-1
 271 560 l 1,21,-1
 240 560 l 1,22,-1
 204 524 l 1,23,-1
 204 702 l 1,24,-1
 240 666 l 1,25,-1
 556 666 l 1,26,-1
 556 764 l 1,27,-1
 520 801 l 1,28,-1
 703 801 l 1,29,-1
 667 764 l 1,30,-1
 667 666 l 1,31,-1
 747 666 l 1,32,-1
 784 702 l 1,33,-1
 784 524 l 1,34,-1
 747 560 l 1,35,-1
 667 560 l 1,36,-1
 667 284 l 1,37,-1
 794 284 l 1,38,-1
 830 320 l 1,39,-1
 830 142 l 1,8,-1
556 284 m 1,40,-1
 556 560 l 1,41,-1
 392 560 l 1,42,-1
 392 284 l 1,43,-1
 556 284 l 1,40,-1
EndSplineSet
EndChar

StartChar: Japan1.8315
Encoding: 12537 12537 8317
Width: 1000
GlyphClass: 2
Flags: W
LayerCount: 2
Fore
SplineSet
790 728 m 1,0,-1
 736 814 l 1,1,-1
 790 900 l 1,2,-1
 844 814 l 1,3,-1
 790 728 l 1,0,-1
852 575 m 1,4,-1
 798 661 l 1,5,-1
 852 747 l 1,6,-1
 906 661 l 1,7,-1
 852 575 l 1,4,-1
741 724 m 1,8,-1
 741 568 l 2,9,10
 741 562 741 562 740.5 551.5 c 128,-1,11
 740 541 740 541 734 512.5 c 128,-1,12
 728 484 728 484 717.5 458.5 c 128,-1,13
 707 433 707 433 683.5 405 c 128,-1,14
 660 377 660 377 629 361 c 1,15,-1
 629 617 l 1,16,-1
 236 617 l 1,17,-1
 200 581 l 1,18,-1
 200 759 l 1,19,-1
 236 724 l 1,20,-1
 741 724 l 1,8,-1
828 -32 m 1,21,-1
 792 4 l 1,22,-1
 215 4 l 1,23,-1
 179 -32 l 1,24,-1
 179 146 l 1,25,-1
 215 110 l 1,26,-1
 423 110 l 1,27,-1
 423 487 l 1,28,-1
 387 523 l 1,29,-1
 571 523 l 1,30,-1
 535 487 l 1,31,-1
 535 110 l 1,32,-1
 792 110 l 1,33,-1
 828 146 l 1,34,-1
 828 -32 l 1,21,-1
EndSplineSet
EndChar

StartChar: Japan1.8316
Encoding: 12538 12538 8318
Width: 1000
GlyphClass: 2
Flags: W
LayerCount: 2
Fore
SplineSet
843 759 m 1,0,-1
 789 845 l 1,1,-1
 843 931 l 1,2,-1
 897 845 l 1,3,-1
 843 759 l 1,0,-1
901 606 m 1,4,-1
 847 692 l 1,5,-1
 901 778 l 1,6,-1
 955 692 l 1,7,-1
 901 606 l 1,4,-1
248 746 m 1,8,-1
 809 746 l 1,9,10
 799 468 799 468 714 267 c 0,11,12
 656 138 656 138 553 51.5 c 128,-1,13
 450 -35 450 -35 304 -53 c 1,14,15
 512 86 512 86 603 314 c 0,16,17
 649 436 649 436 662 624 c 1,18,-1
 248 624 l 1,19,-1
 212 588 l 1,20,-1
 212 782 l 1,21,-1
 248 746 l 1,8,-1
320 470 m 1,22,-1
 569 470 l 1,23,24
 568 465 568 465 564.5 457.5 c 128,-1,25
 561 450 561 450 543.5 431 c 128,-1,26
 526 412 526 412 501.5 397 c 128,-1,27
 477 382 477 382 429 370 c 128,-1,28
 381 358 381 358 320 358 c 1,29,-1
 284 322 l 1,30,-1
 284 506 l 1,31,-1
 320 470 l 1,22,-1
EndSplineSet
EndChar

